ply
format ascii 1.0
element vertex 200
property float x
property float y
property float z
element face 396
property list uchar int vertex_indices
end_header
-0.226952 -0.382589 -0.50115
-0.0619678 -0.0419475 -0.716152
-0.603236 0.615625 0.124982
-0.432448 0.406761 0.687523
0.377674 -0.348611 0.755164
0.511546 -0.550844 0.43366
0.305457 -0.597538 0.506907
0.561306 -0.564304 0.378943
0.483775 -0.371718 0.666638
0.237988 0.0261064 -0.804691
0.519138 0.747089 -0.151991
0.458646 0.812448 0.187235
0.899305 0.29177 -0.146882
0.561353 0.740452 -0.0936609
0.570686 0.750461 0.0513758
0.694092 0.44226 -0.319141
0.903278 0.237362 -0.224121
0.987739 0.0165662 -0.11327
1 0 0
0.932046 0.152122 -0.244972
-0.302827 -0.685012 -0.0437145
-0.135494 -0.672225 -0.202026
-0.0956793 -0.750267 0.319016
0.0146776 0.405392 -0.747981
-0.709492 -0.109993 -0.0436339
-0.526757 -0.116422 -0.486031
-0.55765 0.683175 -0.110945
-0.536251 0.136213 -0.524311
-0.491433 0.318742 -0.539531
-0.564514 0.582762 -0.297512
-0.494731 0.596336 -0.371054
-0.323838 0.432518 -0.601125
-0.139668 0.512982 -0.681984
-0.474037 -0.540349 -0.102207
-0.46609 -0.654383 0.181766
-0.325301 -0.597258 -0.237029
-0.688663 -0.301217 0.116211
-0.518293 -0.338379 0.630418
-0.631512 -0.0812497 0.563821
-0.466098 -0.264715 0.711468
0.600768 -0.597856 0.223786
0.850624 -0.249715 -0.289614
-0.0548261 0.890299 0.367394
0.00693397 0.983077 0.13259
-0.257638 0.550096 0.670582
-0.230873 0.435757 0.792357
-0.293874 0.613603 0.587684
-0.329936 0.248079 0.830351
-0.0594609 0.297619 0.898542
-0.143377 0.399714 0.836494
-0.133115 0.645466 0.643198
-0.394145 0.474679 0.670112
0.603376 0.52119 0.36586
0.499167 0.0860328 0.752034
0.265733 -0.0516363 0.921521
-0.701446 0.150603 0.434753
-0.571655 0.273849 0.624067
-0.694791 -0.0501494 0.476618
-0.649028 0.336843 0.485879
-0.717082 0.146077 0.3796
-0.702784 0.378319 0.323008
0.743784 0.0847527 0.449486
0.698473 -0.514959 0.19095
0.605072 -0.585736 0.270251
0.728158 -0.429214 0.330639
-0.245806 -0.36412 0.835598
0.337243 0.328027 -0.719998
0.216927 0.479133 -0.706316
0.141478 0.654033 -0.609596
0.290372 0.428612 -0.708017
0.0702525 0.531937 -0.70945
0.0838538 0.320745 -0.78621
0.801997 0.399388 0.198968
0.682389 0.496978 0.309043
0.852078 0.2994 0.193196
0.770246 0.467141 0.159633
0.850595 0.357659 0.00929091
-0.25966 0.925869 -0.0466321
-0.271279 0.920384 -0.0816537
-0.445654 0.798856 0.118256
-0.0940866 0.991781 -0.0171784
-0.239641 0.862149 0.291027
0.259436 -0.361746 -0.668767
0.345186 -0.246406 -0.717071
0.13783 -0.177532 -0.784918
0.153401 -0.750307 0.00806213
-0.679322 0.0222439 -0.317357
-0.5963 0.0842225 -0.457229
-0.551123 0.0263995 -0.5155
-0.646328 -0.0403827 -0.353657
-0.601072 0.43213 -0.405838
-0.640237 -0.17454 -0.288523
-0.732714 0.39775 -0.0199489
-0.720099 0.10399 -0.221978
-0.758991 0.328122 0.18874
-0.672443 0.465921 -0.222674
-0.587977 0.661548 -0.0345454
-0.470296 -0.626124 0.344904
-0.417887 -0.691803 0.256428
-0.275207 0.777227 0.410272
-0.227695 0.847912 0.337626
-0.31935 0.75371 0.413634
0.164327 0.844251 0.406371
0.101138 0.615284 0.64629
-0.0809107 0.799144 0.49835
0.0105257 0.901763 0.34674
0.397248 0.812701 0.277724
0.283535 0.333846 0.825786
0.230915 0.379065 0.82444
0.28592 0.543912 0.66804
0.516606 0.417467 0.548598
0.326414 0.229948 0.844321
0.0503547 0.189934 0.960837
-0.544837 0.535069 0.452262
-0.393911 0.68063 0.459907
-0.588006 0.505891 0.429598
-0.424182 0.565168 0.557047
-0.513575 0.402893 0.619218
0.778883 -0.31485 0.364644
-0.0629956 -0.0882538 0.989119
0.245161 -0.18347 0.896462
-0.109264 -0.198147 0.946959
0 0 1
-0.303491 0.075256 0.891375
-0.384292 0.0477622 0.857804
-0.124474 -0.73986 0.447536
0.6138 -0.0227219 0.639537
0.667662 -0.308844 0.514364
0.549546 0.0457751 0.717266
0.711767 -0.174493 0.501547
0.724169 -0.0852082 0.500571
0.606758 0.142617 0.638561
0.454154 -0.308386 -0.637217
0.68997 -0.265031 -0.529521
0.629878 0.334275 -0.519667
0.494687 0.492882 -0.498737
0.7628 0.266895 -0.447852
0.502998 0.324315 -0.641213
0.571268 -0.592294 -0.14799
0.383403 -0.702774 -0.0395233
0.577789 -0.635837 0.0421194
0.561633 -0.55458 -0.282112
0.672802 -0.497723 -0.285263
-0.639834 -0.390238 0.442263
-0.606108 -0.505664 0.353113
-0.528455 -0.500048 0.491994
-0.476265 -0.371043 0.669055
-0.565874 -0.44487 0.503556
-0.641002 -0.364839 0.464629
0.104161 0.903482 -0.302819
-0.13477 0.965867 -0.152143
-0.00234069 0.804524 -0.476432
0.210575 0.904189 -0.207944
0.157402 0.856978 -0.386677
0.429776 0.800026 -0.190941
0.119626 0.983334 -0.0554115
0 1 0
0.15309 0.968672 0.0888525
0.102032 0.973749 -0.127037
0.167364 0.957645 -0.116315
0.346215 0.891286 0.115469
0.4402 0.847457 0.065597
0.86152 -0.212422 0.27406
0.777427 -0.369389 0.305369
0.751825 -0.411995 0.302614
-0.282885 -0.590092 0.612295
-0.275524 -0.678676 0.497249
-0.397427 -0.64813 0.433122
-0.50328 -0.455968 0.584913
-0.0956665 -0.558205 0.703252
-0.16481 -0.654089 0.576161
-0.0235681 -0.614816 0.654005
-0.295812 -0.468938 0.751783
0.0459633 -0.402844 0.841612
0.824472 -0.119699 -0.425287
0.86766 0.0401494 -0.384353
0.646693 -0.00329495 -0.646323
0.728043 0.0409522 -0.572573
0.665885 0.0839153 -0.633659
0.679208 -0.196234 -0.581059
0.481188 -0.120528 -0.736478
0.780172 -0.0492073 -0.511119
0.433876 -0.00834475 -0.767694
-0.0582933 -0.590797 -0.444125
0.429541 -0.515357 -0.45692
0.541072 -0.537902 -0.343119
0.721847 -0.346916 -0.429614
0.425528 -0.525437 -0.447547
0.318274 -0.38694 -0.658004
0.839474 -0.347491 0.122165
0.837116 -0.370477 -0.00388533
0.731635 -0.506212 0.117477
0.825665 -0.341555 0.209091
0.999168 -0.00691742 0.0422337
0.908657 -0.250987 -0.150808
0.148939 -0.620554 -0.405434
0.13194 -0.5782 -0.466792
0.323902 -0.66532 -0.29725
-0.00108478 -0.602821 -0.43397
0.0719296 -0.681834 -0.277485
3 125 7 6
3 150 151 30
3 88 84 25
3 91 25 35
3 186 194 142
3 190 191 142
3 190 142 194
3 81 79 101
3 112 123 122
3 112 122 54
3 47 124 123
3 59 94 57
3 36 24 91
3 36 94 24
3 36 57 94
3 56 124 47
3 8 4 6
3 8 7 64
3 8 128 54
3 8 54 4
3 161 13 154
3 161 14 13
3 161 11 14
3 26 96 79
3 0 25 84
3 0 84 183
3 0 35 25
3 0 183 35
3 21 35 183
3 185 186 142
3 32 30 151
3 32 151 70
3 32 71 28
3 32 28 31
3 1 71 84
3 1 88 71
3 1 84 88
3 27 28 71
3 27 71 88
3 87 27 88
3 22 85 125
3 22 125 98
3 34 98 144
3 34 144 36
3 38 124 56
3 38 56 57
3 38 57 148
3 166 98 125
3 140 142 191
3 140 191 40
3 174 186 133
3 19 136 16
3 19 175 136
3 17 18 194
3 17 175 19
3 17 194 174
3 17 174 175
3 100 81 101
3 43 105 157
3 80 81 43
3 45 49 50
3 45 47 49
3 114 101 79
3 114 79 115
3 114 51 46
3 114 46 50
3 2 60 115
3 2 94 60
3 2 96 94
3 2 79 96
3 2 115 79
3 73 11 106
3 73 14 11
3 73 110 131
3 73 131 74
3 73 109 110
3 111 112 54
3 3 117 56
3 3 56 47
3 3 51 117
3 3 45 51
3 3 47 45
3 58 115 60
3 58 117 115
3 58 56 117
3 193 194 18
3 63 40 191
3 63 64 7
3 63 7 125
3 63 125 40
3 164 64 191
3 120 4 54
3 120 173 4
3 120 54 122
3 171 6 4
3 171 4 173
3 171 125 6
3 5 6 7
3 5 7 8
3 5 8 6
3 127 64 118
3 127 8 64
3 127 128 8
3 180 84 182
3 9 84 71
3 9 71 182
3 9 182 84
3 135 153 154
3 68 70 151
3 68 151 153
3 68 135 69
3 68 153 135
3 10 154 13
3 10 135 154
3 15 16 136
3 15 10 13
3 15 136 135
3 15 135 10
3 160 11 161
3 160 106 11
3 160 157 106
3 75 76 14
3 75 14 73
3 12 13 14
3 12 14 76
3 12 16 15
3 12 15 13
3 12 18 17
3 12 193 18
3 12 19 16
3 12 17 19
3 12 76 74
3 12 74 193
3 78 26 79
3 78 80 150
3 78 150 30
3 78 30 29
3 78 29 26
3 199 21 183
3 20 35 21
3 20 34 35
3 20 98 34
3 20 85 22
3 20 22 98
3 20 199 85
3 20 21 199
3 188 133 186
3 23 70 71
3 23 71 32
3 23 32 70
3 93 91 24
3 93 24 94
3 89 88 25
3 89 25 91
3 95 96 26
3 95 26 29
3 90 28 27
3 90 27 87
3 90 95 29
3 90 93 95
3 90 29 30
3 90 31 28
3 90 30 32
3 90 32 31
3 33 36 91
3 33 34 36
3 33 91 35
3 33 35 34
3 143 57 36
3 143 148 57
3 143 36 144
3 39 124 38
3 39 65 124
3 39 146 65
3 37 148 146
3 37 38 148
3 37 146 39
3 37 39 38
3 167 98 166
3 139 140 40
3 139 125 85
3 139 40 125
3 41 194 186
3 41 174 194
3 41 186 174
3 104 101 114
3 104 114 50
3 104 50 103
3 42 81 100
3 42 43 81
3 42 105 43
3 42 104 105
3 42 100 104
3 156 43 157
3 156 80 43
3 156 150 80
3 44 51 45
3 44 45 50
3 44 46 51
3 44 50 46
3 48 49 47
3 48 123 112
3 48 47 123
3 108 109 103
3 108 48 112
3 108 49 48
3 108 50 49
3 108 103 50
3 116 117 51
3 116 51 114
3 52 106 109
3 52 109 73
3 52 73 106
3 53 54 128
3 53 111 54
3 53 128 131
3 53 131 111
3 55 57 56
3 55 56 58
3 55 59 57
3 55 58 60
3 55 60 94
3 55 94 59
3 61 131 130
3 61 130 193
3 61 74 131
3 61 193 74
3 62 191 64
3 62 63 191
3 62 64 63
3 163 118 64
3 163 64 164
3 121 65 173
3 121 124 65
3 172 173 65
3 172 65 146
3 129 127 118
3 179 174 133
3 66 71 69
3 66 182 71
3 178 182 66
3 137 69 135
3 137 136 178
3 137 66 69
3 137 178 66
3 67 68 69
3 67 70 68
3 67 69 71
3 67 71 70
3 72 73 74
3 72 75 73
3 72 74 76
3 72 76 75
3 77 78 79
3 77 80 78
3 77 79 81
3 77 81 80
3 82 183 84
3 82 84 188
3 82 188 183
3 83 84 180
3 83 188 84
3 83 180 188
3 197 85 199
3 197 139 85
3 86 87 88
3 86 88 89
3 86 90 87
3 86 93 90
3 86 91 93
3 86 89 91
3 92 93 94
3 92 95 93
3 92 94 96
3 92 96 95
3 97 144 98
3 97 167 144
3 97 98 167
3 145 144 167
3 99 100 101
3 99 101 104
3 99 104 100
3 102 103 109
3 102 104 103
3 102 105 104
3 102 109 106
3 102 157 105
3 102 106 157
3 152 154 153
3 158 150 156
3 107 109 108
3 107 110 109
3 107 112 111
3 107 108 112
3 107 131 110
3 107 111 131
3 113 114 115
3 113 116 114
3 113 115 117
3 113 117 116
3 162 118 163
3 162 193 130
3 162 129 118
3 162 130 129
3 119 173 120
3 119 121 173
3 119 120 122
3 119 122 123
3 119 123 124
3 119 124 121
3 170 166 125
3 170 125 171
3 126 128 127
3 126 127 129
3 126 129 130
3 126 131 128
3 126 130 131
3 132 188 180
3 132 180 179
3 132 133 188
3 132 179 133
3 177 136 175
3 177 178 136
3 134 135 136
3 134 136 137
3 134 137 135
3 196 183 188
3 187 185 197
3 187 196 188
3 187 197 196
3 141 185 142
3 141 197 185
3 138 140 139
3 138 139 197
3 138 197 141
3 138 142 140
3 138 141 142
3 147 143 144
3 147 144 145
3 147 148 143
3 168 145 167
3 168 172 146
3 168 147 145
3 168 146 148
3 168 148 147
3 149 150 158
3 149 158 153
3 149 151 150
3 149 153 151
3 159 152 153
3 159 153 158
3 159 161 154
3 159 154 152
3 155 156 157
3 155 158 156
3 155 159 158
3 155 157 160
3 155 160 161
3 155 161 159
3 192 162 163
3 192 193 162
3 192 164 191
3 192 163 164
3 165 166 170
3 165 170 172
3 165 167 166
3 165 168 167
3 165 172 168
3 169 170 171
3 169 172 170
3 169 171 173
3 169 173 172
3 181 175 174
3 181 177 175
3 181 174 179
3 176 178 177
3 176 179 180
3 176 181 179
3 176 177 181
3 176 180 182
3 176 182 178
3 198 199 183
3 198 183 196
3 184 186 185
3 184 185 187
3 184 188 186
3 184 187 188
3 189 191 190
3 189 192 191
3 189 193 192
3 189 190 194
3 189 194 193
3 195 196 197
3 195 198 196
3 195 197 199
3 195 199 198
