ply
format ascii 1.0
element vertex 200
property float x
property float y
property float z
element face 396
property list uchar int vertex_indices
end_header
-0.701176 -0.250146 -0.0518221
-0.604421 0.568174 0.21898
-0.76577 0.0475337 0.111469
-0.747754 -0.033206 0.262715
0.333061 0.148157 0.843568
0.678414 0.280218 0.493186
0.561679 0.18227 0.650883
0.267632 0.117081 0.906962
0.363203 0.436703 0.672805
-0.708459 0.421742 0.13904
-0.590934 0.597726 -0.152456
-0.703118 0.434296 0.0699442
-0.709295 0.202929 0.366664
-0.511928 0.303971 0.604402
-0.483566 0.317315 0.614518
-0.222414 -0.564687 0.62057
-0.461049 -0.431185 -0.340199
-0.442873 -0.585898 0.461699
0.0574411 0.457057 -0.730007
0.0255779 -0.202904 -0.684759
-0.118733 0.204651 -0.770924
0.433801 -0.449873 -0.540473
0.468185 -0.307288 -0.625201
-0.110373 -0.494849 -0.495002
0.0352831 -0.285913 -0.658756
-0.404464 0.180386 -0.706578
-0.624438 -0.450451 0.356762
-0.724601 -0.228487 0.276144
-0.621767 -0.481798 0.317041
-0.561045 -0.535752 0.354535
0.465513 0.498745 0.562822
0.401934 0.421801 0.660078
0.575125 0.358742 0.550717
0.149321 -0.535649 0.686143
0.240223 -0.47062 0.727195
0.276805 -0.17653 0.878357
0.0778146 0.0833666 0.987841
0 0 1
0.143226 -0.354604 0.826185
0.0940691 -0.367037 0.827636
0.114157 -0.458578 0.771418
0.322934 0.710148 0.505455
0.351258 0.673777 0.534431
0.823252 0.263951 0.312051
0.694275 0.355626 0.426729
0.476205 0.800814 -0.0177066
0.124005 0.938594 -0.207911
0.231108 0.831142 0.391695
0.172491 0.852916 0.377659
0.0444864 0.663759 -0.600428
-0.00617201 0.722258 -0.565035
0.0550811 0.477056 -0.723866
0.146681 0.706096 -0.547766
0.205082 0.519665 -0.674873
-0.0872944 0.980272 0.112734
-0.515216 0.724333 -0.102918
-0.1195 0.924805 0.283522
-0.459921 0.76016 0.269826
-0.559322 0.0993188 0.665781
-0.598185 0.117388 0.626697
-0.58537 -0.158724 -0.349494
-0.523626 0.12763 -0.56125
-0.594535 -0.18579 -0.318826
0.355089 0.294731 -0.694825
0.459613 0.233081 -0.656736
0.79021 0.0836179 -0.454867
0.488271 0.399118 -0.576481
0.789015 -0.274774 -0.399585
0.685081 -0.306256 -0.519779
0.845024 -0.0559317 -0.383284
0.696657 -0.102859 -0.560641
0.784074 -0.0445561 0.43858
0.997426 -0.0128131 0.0583327
0.861428 -0.184177 0.324768
0.860231 0.206078 0.302472
0.909419 -0.187216 -0.219728
0.551649 -0.168092 0.684664
0.464349 -0.0438253 0.796838
0.359041 -0.106856 0.85358
0.318431 -0.254165 0.840208
0.858763 -0.2912 0.228662
0.753054 -0.480319 0.0620413
-0.470346 -0.263548 -0.44914
-0.523239 -0.174867 -0.444223
-0.450526 -0.432812 -0.353644
-0.446546 -0.25561 -0.474385
-0.361954 -0.645613 -0.104867
-0.409515 -0.625477 -0.0575423
-0.434412 -0.624054 0.117197
-0.209797 -0.561926 -0.362986
-0.62897 -0.371067 -0.0939866
-0.671192 -0.350029 -0.0385476
-0.523702 -0.41399 -0.247692
0.232063 0.924225 0.130926
0.14305 0.942569 0.18612
0.46079 0.811863 0.00518713
0.365096 0.595316 -0.524461
0.327718 0.613057 -0.539445
-0.268672 0.840469 -0.28393
-0.118836 0.823978 -0.430459
0.00236111 0.942731 -0.234425
0 1 0
-0.342366 0.879299 0.131119
-0.443712 0.730725 -0.327037
-0.341208 0.735234 -0.437969
-0.157116 0.794955 -0.468839
-0.284404 0.789804 -0.388511
-0.132376 -0.208044 0.936076
0.258526 -0.558115 -0.51258
0.702178 -0.440894 -0.368784
0.630746 0.411616 -0.46168
0.326587 0.765498 -0.421365
0.4328 0.789476 -0.273529
0.500341 -0.0659466 -0.669211
0.363544 0.165377 -0.735281
0.499405 -0.119957 -0.663992
0.529817 0.0850603 -0.669998
0.52557 -0.37682 0.603596
0.781267 -0.301065 0.396331
0.488119 -0.232524 0.735705
-0.00883435 -0.756227 0.24449
0.0208659 -0.751931 0.344083
0.539412 -0.604214 0.0551388
0.736772 -0.507205 0.0457266
0.551504 -0.593428 -0.0357745
0.49095 -0.479009 0.54676
0.0620489 -0.67739 0.540154
0.0946525 -0.640127 0.581532
0.338474 -0.45431 0.702375
-0.695982 0.37415 -0.333326
-0.624084 0.439949 -0.429442
-0.57184 0.57032 -0.369766
-0.393308 -0.566629 -0.231933
-0.441392 -0.590072 -0.120399
-0.437296 -0.486786 -0.299812
-0.362903 -0.584348 -0.237852
-0.338624 -0.520695 -0.356044
0.626875 0.564731 0.235696
0.39936 0.818284 0.223896
0.840513 0.299718 0.233315
0.595783 0.469838 0.440125
0.422418 0.665668 0.448975
0.349058 0.783983 0.38319
0.844962 0.197969 -0.304515
0.851275 0.156018 -0.321228
0.798793 0.190891 -0.409572
0.880521 0.320492 0.0585457
1 0 0
0.654798 0.586472 -0.195287
0.612896 0.678229 -0.0277322
0.561148 0.662418 -0.276611
0.813174 0.446817 0.0190068
0.692764 0.505824 -0.228003
0.617923 0.515778 -0.384417
0.274884 0.903591 -0.14774
0.380989 0.825178 -0.249023
0.303834 0.900438 -0.0952068
0.303656 0.859159 -0.26677
0.196096 0.953938 -0.0803964
-0.209099 0.599976 0.585737
-0.278099 0.466381 0.64187
-0.481298 0.738261 0.293054
-0.0295164 0.527513 0.696271
-0.112455 0.815879 0.474491
0.152421 0.711049 0.563677
-0.0536363 0.485877 0.723646
0.101518 0.156178 0.974724
-0.483755 -0.0896815 0.751857
-0.318905 -0.0273995 0.885345
-0.354538 0.0631788 0.865212
-0.334447 -0.1846 0.845996
-0.372804 -0.368072 0.736552
-0.390535 -0.425812 0.685285
-0.494183 -0.468432 0.559667
0.00410137 -0.721867 -0.0820683
-0.327558 -0.646805 -0.149679
0.49993 -0.553589 0.446427
0.156824 -0.74202 0.291169
0.696234 -0.493587 0.279351
0.46428 -0.558137 0.482728
0.768551 -0.403234 0.30965
0.507732 -0.456961 0.555566
-0.463559 0.450113 -0.57671
-0.575155 0.409754 -0.51051
-0.502304 0.328975 -0.611458
-0.35615 0.560031 -0.575755
-0.289711 0.522729 -0.634056
-0.423978 0.711026 -0.395028
-0.56184 -0.196105 0.660135
-0.6706 -0.165879 0.549417
-0.523906 -0.388668 0.593338
-0.441934 -0.31374 0.726008
-0.568178 -0.106702 0.679954
-0.650294 -0.100349 0.59238
0.223848 -0.695341 -0.232387
0.0790077 -0.699355 -0.267488
0.174714 -0.759903 0.0730371
0.277191 -0.654536 -0.303622
0.429818 -0.64383 -0.184816
0.151974 -0.61325 -0.477327
3 74 6 71
3 74 43 44
3 77 6 7
3 77 71 6
3 94 101 54
3 186 51 20
3 50 105 99
3 50 186 105
3 50 51 186
3 50 100 111
3 50 99 100
3 129 2 9
3 129 0 2
3 15 40 107
3 15 126 40
3 15 17 126
3 62 0 129
3 91 62 92
3 91 0 62
3 29 17 173
3 121 17 120
3 121 126 17
3 109 21 68
3 125 181 128
3 199 23 24
3 22 68 21
3 22 115 68
3 25 186 20
3 27 91 28
3 27 0 91
3 27 189 3
3 27 2 0
3 27 3 2
3 1 161 55
3 1 55 9
3 12 1 9
3 12 9 2
3 12 2 3
3 12 189 193
3 12 3 189
3 12 161 1
3 8 31 42
3 8 7 31
3 4 7 6
3 4 6 31
3 4 31 7
3 32 31 6
3 39 107 40
3 5 6 74
3 5 74 44
3 5 32 6
3 5 44 32
3 78 7 36
3 78 77 7
3 79 37 107
3 46 111 100
3 46 100 101
3 46 101 158
3 140 141 42
3 56 94 54
3 41 164 42
3 41 47 164
3 166 42 164
3 166 36 7
3 166 8 42
3 166 7 8
3 166 37 36
3 166 169 37
3 185 105 186
3 57 55 161
3 57 161 56
3 103 131 55
3 11 9 55
3 11 129 9
3 10 55 131
3 10 131 129
3 10 11 55
3 10 129 11
3 59 169 13
3 59 12 193
3 59 13 161
3 59 161 12
3 168 107 37
3 168 37 169
3 14 161 13
3 14 13 169
3 160 161 14
3 160 14 169
3 172 15 107
3 172 173 17
3 172 17 15
3 16 92 62
3 16 134 92
3 16 84 134
3 83 61 25
3 83 84 16
3 83 16 62
3 88 17 29
3 88 120 17
3 88 29 28
3 144 147 69
3 70 68 115
3 149 112 45
3 149 150 112
3 75 69 147
3 75 123 109
3 76 71 77
3 18 20 51
3 18 114 20
3 18 51 53
3 18 53 114
3 19 114 115
3 19 115 22
3 19 22 24
3 19 20 114
3 19 25 20
3 19 24 25
3 108 21 109
3 108 22 21
3 108 199 24
3 108 24 22
3 136 134 84
3 136 23 199
3 85 23 136
3 85 136 84
3 85 24 23
3 85 25 24
3 85 83 25
3 184 61 129
3 184 25 61
3 184 186 25
3 133 28 91
3 133 92 134
3 133 88 28
3 133 87 88
3 26 27 28
3 26 189 27
3 26 190 189
3 26 173 190
3 26 29 173
3 26 28 29
3 30 42 31
3 30 31 32
3 30 140 42
3 30 32 44
3 30 44 140
3 34 40 33
3 34 79 40
3 34 128 79
3 127 40 126
3 127 33 40
3 127 128 34
3 127 34 33
3 35 36 37
3 35 78 36
3 35 37 79
3 35 79 78
3 38 39 40
3 38 40 79
3 38 107 39
3 38 79 107
3 142 94 47
3 142 47 41
3 142 41 42
3 142 42 141
3 95 149 45
3 95 138 149
3 139 43 74
3 139 74 146
3 139 44 43
3 139 140 44
3 156 45 112
3 156 95 45
3 157 46 158
3 157 112 111
3 157 111 46
3 48 164 47
3 48 47 94
3 48 94 56
3 163 164 48
3 163 48 56
3 163 56 161
3 52 50 111
3 52 111 53
3 49 51 50
3 49 53 51
3 49 50 52
3 49 52 53
3 97 53 111
3 97 66 53
3 97 110 66
3 63 53 66
3 63 114 53
3 63 66 64
3 106 99 105
3 187 131 103
3 187 103 106
3 102 54 101
3 102 103 55
3 102 56 54
3 102 57 56
3 102 55 57
3 58 169 59
3 192 169 58
3 192 59 193
3 192 58 59
3 171 172 107
3 60 61 83
3 60 83 62
3 60 129 61
3 60 62 129
3 198 109 123
3 198 123 124
3 65 69 70
3 65 145 144
3 65 144 69
3 116 70 115
3 116 114 63
3 116 63 64
3 116 65 70
3 116 64 66
3 116 66 110
3 116 110 145
3 116 145 65
3 67 109 68
3 67 75 109
3 67 69 75
3 67 68 70
3 67 70 69
3 73 118 80
3 73 74 71
3 73 71 76
3 73 76 118
3 72 75 147
3 72 80 75
3 72 73 80
3 72 74 73
3 72 147 146
3 72 146 74
3 81 123 75
3 81 75 80
3 119 76 77
3 119 77 78
3 119 78 79
3 119 79 128
3 119 118 76
3 180 80 118
3 180 118 181
3 180 178 123
3 180 123 81
3 180 81 80
3 177 126 121
3 89 199 175
3 89 136 199
3 82 84 83
3 82 85 84
3 82 83 85
3 130 129 131
3 86 87 133
3 86 133 175
3 86 120 88
3 86 88 87
3 86 174 120
3 86 175 174
3 135 175 133
3 135 89 175
3 135 136 89
3 90 91 92
3 90 92 133
3 90 133 91
3 93 94 142
3 93 142 138
3 93 101 94
3 93 158 101
3 93 138 95
3 93 156 158
3 93 95 156
3 151 149 138
3 151 139 146
3 155 156 112
3 155 112 157
3 165 169 166
3 165 160 169
3 96 111 110
3 96 97 111
3 96 110 97
3 98 100 99
3 98 99 106
3 98 101 100
3 98 102 101
3 98 106 103
3 98 103 102
3 104 105 185
3 104 185 187
3 104 106 105
3 104 187 106
3 170 107 168
3 170 171 107
3 197 108 109
3 197 109 198
3 197 199 108
3 153 110 111
3 153 145 110
3 153 111 112
3 153 112 150
3 113 115 114
3 113 116 115
3 113 114 116
3 117 181 118
3 117 118 119
3 117 128 181
3 117 119 128
3 196 120 174
3 196 121 120
3 196 177 121
3 122 123 178
3 122 178 177
3 122 177 196
3 122 124 123
3 122 198 124
3 122 196 198
3 179 181 125
3 179 126 177
3 179 127 126
3 179 125 128
3 179 128 127
3 183 184 129
3 183 129 130
3 183 131 187
3 183 130 131
3 132 133 134
3 132 135 133
3 132 134 136
3 132 136 135
3 137 151 138
3 137 139 151
3 137 140 139
3 137 141 140
3 137 142 141
3 137 138 142
3 143 152 151
3 143 144 145
3 143 151 146
3 143 145 153
3 143 153 152
3 143 146 147
3 143 147 144
3 148 150 149
3 148 149 151
3 148 151 152
3 148 153 150
3 148 152 153
3 154 156 155
3 154 155 157
3 154 158 156
3 154 157 158
3 159 160 165
3 159 165 163
3 159 161 160
3 159 163 161
3 162 164 163
3 162 163 165
3 162 166 164
3 162 165 166
3 167 170 168
3 167 192 170
3 167 168 169
3 167 169 192
3 191 171 170
3 191 170 192
3 191 172 171
3 191 190 173
3 191 173 172
3 195 196 174
3 195 174 175
3 195 175 199
3 176 177 178
3 176 179 177
3 176 178 180
3 176 180 181
3 176 181 179
3 182 184 183
3 182 185 186
3 182 186 184
3 182 187 185
3 182 183 187
3 188 189 190
3 188 190 191
3 188 191 192
3 188 193 189
3 188 192 193
3 194 196 195
3 194 197 198
3 194 198 196
3 194 199 197
3 194 195 199
