ply
format ascii 1.0
element vertex 200
property float x
property float y
property float z
element face 396
property list uchar int vertex_indices
end_header
0.871454 0.149929 -0.305751
-0.56731 0.469726 0.477915
0.257764 -0.0314219 -0.7471
0.0272548 0.273462 -0.756602
-0.00931589 0.0167933 -0.73057
0.0942761 -0.690529 -0.307497
-0.688781 0.272311 -0.157091
-0.494586 0.631151 -0.381705
-0.453185 0.472216 -0.552924
-0.313414 0.566291 -0.584274
-0.212058 0.704621 -0.503078
-0.502215 0.600404 0.414913
-0.412887 0.499762 0.607789
-0.374171 0.658881 0.483144
-0.387843 0.624457 0.516252
-0.502278 0.585275 0.439705
0.702739 0.56842 0.137976
0.889455 0.387737 0.0752336
0.626305 0.262083 0.548607
0.521271 0.54179 0.391532
0.486649 0.677035 0.295535
0.19368 0.922965 0.185877
0.167623 0.88887 0.311462
-0.0636513 0.767447 -0.472304
0.794812 0.425443 -0.275576
0.631196 -0.569272 0.208811
-0.627182 0.270139 -0.427121
0.325892 -0.334497 -0.674457
0.475878 -0.441806 -0.577943
0.235419 -0.144248 -0.736392
0.557725 -0.339933 -0.611098
-0.178946 -0.540688 -0.396771
-0.238138 -0.531611 -0.373824
0.0635212 -0.473576 -0.597869
-0.0680403 -0.413621 -0.593447
-0.644993 -0.335882 0.473892
-0.652417 -0.121391 -0.14059
-0.670263 0.133569 -0.273094
-0.361206 -0.660791 -0.0362892
-0.0218533 -0.65292 -0.312799
-0.384664 -0.547369 -0.250747
-0.0444274 -0.715944 -0.157665
-0.545496 -0.567289 0.0521423
-0.198433 -0.759124 0.220732
-0.234443 -0.685659 0.437321
0.901352 -0.0502128 -0.295542
0.684421 -0.285162 -0.52447
0.397776 0.399632 0.650046
-0.527891 0.218619 0.674335
-0.615404 0.065143 0.60304
-0.648988 0.195342 0.506588
-0.739719 0.0106467 0.320011
-0.558805 0.329807 0.599244
-0.561937 -0.142699 0.669315
-0.616239 -0.14906 0.614779
-0.53082 0.0775292 0.724014
-0.0804776 0.374208 0.880437
-0.451578 -0.0072073 0.78994
-0.443612 0.786598 0.0888656
-0.459248 0.755505 0.0109496
-0.636039 0.530263 -0.162629
-0.611946 0.591929 0.200357
-0.226934 0.87678 -0.239738
-0.184365 0.897367 -0.243016
-0.440277 0.710472 -0.318592
-0.245998 0.926126 -0.0941489
0.879725 0.385569 -0.0888083
0.88258 0.247373 -0.247775
0.975331 0.158247 -0.00254198
0.924105 0.295292 0.129096
0.947752 0.257318 0.0391058
-0.160122 0.905941 0.246019
-0.0166583 0.935601 0.246865
0 1 0
0.439432 -0.183353 -0.72378
1 0 0
0.991676 0.0344131 0.0898172
0.749659 -0.497056 -0.13241
-0.0678038 -0.757779 0.317568
0.24765 -0.755707 0.270754
0.0281249 -0.755402 0.378918
0.143812 -0.74961 0.379645
0.230479 -0.688613 0.485604
0.0326077 -0.75193 0.394419
-0.359754 0.0711154 -0.649709
-0.32035 0.174213 -0.690807
-0.45815 -0.0295887 -0.570954
0.257715 0.730699 -0.456238
0.0440816 0.992395 -0.0812454
0.170221 0.844654 -0.321182
0.201246 0.925306 0.171981
0.482567 0.745446 0.142543
0.074528 0.646449 -0.582525
0.100813 0.676197 -0.557253
0.280732 0.330011 -0.721014
0.0817239 0.433723 -0.707521
0.241643 0.241274 -0.762572
0.636762 -0.0177259 -0.617335
0.609505 -0.026438 -0.644146
-0.403849 -0.431275 -0.367726
-0.40828 -0.467032 -0.335854
-0.246648 -0.325566 -0.567571
-0.326606 -0.142546 -0.619159
-0.444358 -0.213864 -0.471263
-0.530932 -0.0443592 -0.50251
-0.427373 -0.569 0.550468
-0.291499 -0.637953 0.55337
-0.319885 -0.715225 0.230972
0.791598 -0.333333 -0.34127
0.82576 -0.189052 -0.390552
0.806609 -0.167334 -0.43641
0.555803 -0.57172 -0.368747
0.769411 -0.378778 -0.343542
0.600716 -0.617115 -0.209913
0.526146 -0.443466 -0.5604
0.486622 -0.488598 -0.520085
0.525806 -0.668607 -0.157043
0.263694 -0.697783 -0.236789
0.271775 -0.564322 -0.479248
0.123135 0.284838 0.915174
0.104038 0.35519 0.890425
-0.0206896 0.191039 0.962664
-0.381424 -0.569589 0.601472
-0.423462 -0.231576 0.765303
-0.628073 -0.225817 0.573101
-0.551857 -0.522811 0.454371
-0.280918 0.626293 0.591935
-0.295475 0.349795 0.79096
-0.161723 0.27865 0.911944
-0.324729 0.276738 0.813224
-0.313015 0.492651 0.692681
-0.49163 0.347567 0.650637
0 0 1
-0.105967 -0.179459 0.955569
-0.100341 -0.0390613 0.989286
0.0349819 -0.646483 0.631371
0.56844 -0.462158 0.550164
0.632591 -0.434721 0.505265
0.378345 -0.587375 0.561168
-0.359363 0.832502 0.204794
-0.327247 0.88497 0.0669235
-0.421851 0.813681 0.121459
-0.291111 0.86015 0.25465
-0.342455 0.821508 0.274615
0.617958 0.292765 -0.563658
0.712675 0.182653 -0.515436
0.619953 0.0333874 -0.632513
0.422587 0.492962 -0.586484
0.502722 0.278349 -0.658984
0.318061 0.570224 -0.595366
0.866323 -0.350799 0.167458
0.862474 -0.373169 -0.000912525
0.794624 -0.459128 0.206972
0.923542 -0.204234 0.172807
0.919505 -0.238513 -0.134488
0.423283 0.737543 -0.306282
0.31175 0.900889 -0.080597
0.330333 0.779822 -0.329977
0.545755 0.634841 -0.305128
0.747802 0.5622 -0.0919579
0.676857 0.405223 -0.466321
0.479416 0.612761 -0.407878
0.266008 0.698068 -0.499245
0.286388 0.637926 -0.559035
-0.160168 0.778611 0.462397
-0.232464 0.698493 0.537008
-0.26499 0.795262 0.399215
-0.130628 0.696045 0.571333
0.0502084 0.906175 0.322193
0.153625 0.803864 0.466467
-0.187971 -0.378791 0.849682
-0.333403 -0.463139 0.731216
-0.234189 -0.237235 0.908495
-0.0482574 -0.415124 0.844084
-0.104295 -0.553454 0.732911
-0.0398894 -0.217272 0.950727
0.351766 -0.547898 0.618811
0.205341 -0.495091 0.740454
0.179826 -0.48705 0.757576
0.027736 -0.520638 0.775538
-0.0215477 -0.389135 0.864376
0.802602 0.0503023 0.455192
0.757633 -0.368387 0.403966
0.930007 -0.0255666 0.255744
0.864941 -0.28313 0.278148
0.866265 0.261767 0.317542
0.531906 0.159063 0.695741
0.238283 -0.389583 0.80063
0.134954 -0.403032 0.821031
0.243001 -0.462904 0.755398
0.312174 -0.415259 0.757304
0.351721 -0.110293 0.860109
0.547306 0.0620989 0.697886
0.258227 0.0803225 0.921696
0.560827 -0.118171 0.68017
0.628418 -0.219379 0.596421
0.393226 -0.242206 0.783506
0.381615 -0.330173 0.761244
0.279985 -0.22546 0.855798
0.148011 -0.221158 0.924434
3 50 61 51
3 47 20 169
3 3 95 96
3 3 96 2
3 3 9 95
3 74 2 96
3 41 5 117
3 41 117 79
3 60 51 61
3 104 37 26
3 67 0 145
3 45 67 75
3 45 0 67
3 45 110 145
3 45 145 0
3 12 14 15
3 131 48 129
3 131 52 48
3 131 12 52
3 1 61 50
3 1 50 52
3 1 15 61
3 1 52 12
3 1 12 15
3 141 61 143
3 66 24 159
3 66 67 24
3 25 138 79
3 185 16 20
3 22 169 20
3 22 168 169
3 118 5 33
3 118 117 5
3 28 118 33
3 28 115 118
3 82 79 138
3 85 8 9
3 85 9 3
3 85 4 102
3 85 3 4
3 85 26 8
3 162 23 89
3 162 93 23
3 10 63 23
3 10 64 63
3 92 95 9
3 92 9 10
3 92 23 93
3 92 10 23
3 29 2 74
3 29 3 2
3 29 4 3
3 29 102 4
3 146 145 110
3 39 5 41
3 39 33 5
3 32 39 40
3 6 37 51
3 6 51 60
3 6 26 37
3 6 60 26
3 7 8 26
3 7 26 60
3 7 60 64
3 7 9 8
3 7 64 10
3 7 10 9
3 103 104 102
3 107 125 42
3 154 45 75
3 121 134 132
3 54 51 124
3 11 143 61
3 11 61 15
3 11 15 143
3 126 166 14
3 130 12 131
3 130 56 126
3 130 14 12
3 130 126 14
3 13 14 166
3 13 166 143
3 13 15 14
3 13 143 15
3 59 64 60
3 65 64 141
3 17 159 16
3 17 66 159
3 17 185 69
3 17 16 185
3 91 16 159
3 91 20 16
3 91 22 20
3 91 90 22
3 70 17 69
3 70 66 17
3 116 25 79
3 116 79 117
3 18 47 186
3 18 186 185
3 18 185 47
3 19 20 47
3 19 185 20
3 19 47 185
3 199 193 132
3 72 168 73
3 21 22 90
3 21 168 22
3 21 90 73
3 21 73 168
3 160 24 67
3 160 67 145
3 88 73 90
3 88 65 73
3 88 63 65
3 88 89 23
3 88 23 63
3 158 159 24
3 158 24 160
3 114 28 30
3 114 115 28
3 114 30 46
3 152 113 77
3 152 116 113
3 152 25 116
3 152 184 182
3 152 182 137
3 152 138 25
3 86 102 104
3 86 104 26
3 86 26 85
3 149 95 92
3 27 33 29
3 27 29 74
3 27 28 33
3 27 74 30
3 27 30 28
3 34 102 29
3 34 29 33
3 34 101 102
3 98 30 74
3 98 46 30
3 98 110 46
3 100 32 40
3 100 101 34
3 100 34 32
3 100 40 42
3 100 42 104
3 31 39 32
3 31 33 39
3 31 34 33
3 31 32 34
3 35 125 124
3 35 42 125
3 35 124 51
3 35 51 42
3 36 104 42
3 36 37 104
3 36 42 51
3 36 51 37
3 43 78 44
3 43 79 78
3 43 41 79
3 38 40 39
3 38 39 41
3 38 42 40
3 38 107 42
3 38 41 43
3 38 43 107
3 106 174 122
3 106 43 44
3 106 107 43
3 106 44 78
3 106 78 83
3 109 110 45
3 109 45 154
3 112 154 77
3 112 77 113
3 112 114 46
3 112 46 110
3 120 47 169
3 120 169 56
3 120 186 47
3 120 56 121
3 172 133 134
3 172 57 123
3 172 134 57
3 55 129 48
3 55 57 129
3 55 48 52
3 49 50 51
3 49 51 54
3 49 54 55
3 49 52 50
3 49 55 52
3 53 123 57
3 53 124 123
3 53 54 124
3 53 57 55
3 53 55 54
3 167 56 169
3 167 126 56
3 128 56 130
3 128 121 56
3 128 134 121
3 128 129 57
3 128 57 134
3 58 59 60
3 58 60 61
3 58 61 141
3 58 141 64
3 58 64 59
3 62 63 64
3 62 64 65
3 62 65 63
3 140 65 141
3 140 73 65
3 68 67 66
3 68 66 70
3 68 75 67
3 76 75 68
3 76 69 185
3 76 185 183
3 76 70 69
3 76 68 70
3 197 199 190
3 195 137 182
3 195 196 197
3 142 143 166
3 71 166 168
3 71 168 72
3 71 142 166
3 71 72 73
3 71 73 140
3 71 140 142
3 148 146 98
3 148 74 96
3 148 98 74
3 153 154 75
3 153 75 76
3 153 183 184
3 153 76 183
3 151 77 154
3 151 152 77
3 80 78 79
3 80 83 78
3 81 79 82
3 81 80 79
3 81 83 80
3 135 179 174
3 135 81 82
3 135 83 81
3 135 174 106
3 135 106 83
3 135 82 138
3 135 177 179
3 84 85 102
3 84 102 86
3 84 86 85
3 87 162 89
3 87 89 157
3 87 157 162
3 156 89 88
3 156 157 89
3 156 88 90
3 156 90 91
3 156 91 159
3 163 92 93
3 163 149 92
3 163 93 162
3 163 161 160
3 94 96 95
3 94 95 149
3 94 148 96
3 94 149 148
3 97 146 110
3 97 110 98
3 97 98 146
3 99 101 100
3 99 102 101
3 99 103 102
3 99 104 103
3 99 100 104
3 105 122 125
3 105 106 122
3 105 125 107
3 105 107 106
3 108 109 154
3 108 154 112
3 108 110 109
3 108 112 110
3 111 112 113
3 111 114 112
3 111 115 114
3 111 113 116
3 111 116 117
3 111 118 115
3 111 117 118
3 119 193 186
3 119 186 120
3 119 120 121
3 119 132 193
3 119 121 132
3 171 122 174
3 171 172 123
3 171 123 124
3 171 125 122
3 171 124 125
3 165 166 126
3 165 126 167
3 127 129 128
3 127 128 130
3 127 131 129
3 127 130 131
3 175 180 199
3 175 199 132
3 175 133 172
3 175 132 134
3 175 134 133
3 173 174 179
3 173 179 180
3 176 135 138
3 176 177 135
3 178 179 177
3 136 197 190
3 136 190 176
3 136 137 195
3 136 195 197
3 136 176 138
3 136 138 152
3 136 152 137
3 198 199 197
3 139 140 141
3 139 142 140
3 139 141 143
3 139 143 142
3 144 160 145
3 144 148 160
3 144 145 146
3 144 146 148
3 147 160 148
3 147 148 149
3 147 163 160
3 147 149 163
3 150 152 151
3 150 184 152
3 150 153 184
3 150 154 153
3 150 151 154
3 155 157 156
3 155 159 158
3 155 156 159
3 155 160 161
3 155 158 160
3 155 162 157
3 155 161 163
3 155 163 162
3 164 166 165
3 164 165 167
3 164 168 166
3 164 169 168
3 164 167 169
3 170 172 171
3 170 173 180
3 170 171 174
3 170 174 173
3 170 175 172
3 170 180 175
3 189 176 190
3 189 177 176
3 189 178 177
3 188 179 178
3 188 180 179
3 188 199 180
3 188 178 189
3 192 186 193
3 181 194 195
3 181 195 182
3 181 192 194
3 181 184 183
3 181 182 184
3 181 183 185
3 181 185 186
3 181 186 192
3 187 199 188
3 187 188 189
3 187 190 199
3 187 189 190
3 191 192 193
3 191 194 192
3 191 196 195
3 191 195 194
3 191 197 196
3 191 198 197
3 191 193 199
3 191 199 198
