ply
format ascii 1.0
element vertex 200
property float x
property float y
property float z
element face 396
property list uchar int vertex_indices
end_header
-0.744344 -0.0763373 -0.017998
-0.704623 -0.168709 -0.10767
-0.560252 -0.451352 -0.0758224
-0.712636 0.435589 0.127375
-0.575706 0.597891 0.253824
-0.571224 0.620054 0.205636
-0.650837 -0.285775 0.440452
-0.723085 0.178001 0.422016
-0.704608 -0.30968 0.157024
0.974396 0.0901887 0.133426
0.724694 0.351428 0.448015
0.843172 -0.250114 0.278598
-0.706028 -0.0275115 -0.312919
-0.724057 0.177906 -0.28783
-0.38818 -0.564814 -0.137063
0.936095 -0.234554 -0.0759864
0.751266 -0.43817 -0.244212
0.712786 -0.407774 -0.357962
0.768742 -0.479057 -0.0922885
0.241847 -0.744679 -0.112113
0.494914 -0.59626 -0.347281
0.633292 -0.609669 -0.141899
0.599986 -0.42908 -0.481391
0.414112 -0.699057 -0.255784
-0.207967 -0.0401098 0.954002
0.0681173 -0.674446 0.604867
-0.259033 -0.380782 0.814093
-0.236092 -0.302698 0.871631
-0.361082 0.844532 -0.0428551
-0.517556 0.733635 0.0201865
-0.0493518 0.482754 0.811805
-0.124643 0.778546 0.503562
-0.264098 0.710978 0.526601
-0.528609 0.71868 -0.0783987
-0.615607 0.638467 -0.0301924
-0.603539 0.643444 -0.114123
-0.71872 0.443907 -0.0514691
-0.771487 0.223565 -0.125871
-0.730838 0.240097 -0.229555
-0.6097 0.181479 0.612794
-0.0965465 0.284174 0.901091
-0.279162 0.505376 0.706039
-0.440676 0.545276 0.55098
0.468696 0.758775 0.148001
0.497354 0.711722 0.234033
0.946549 -0.211445 -0.0828152
0.314215 -0.431856 -0.655909
0.350782 -0.539585 -0.546853
0.508114 -0.398207 -0.583886
0.646332 -0.340397 -0.493309
0.848705 -0.321261 -0.265955
0.728809 0.575902 0.109683
0.876521 0.26983 0.317401
0.918123 0.0268386 0.30919
0.0627984 0.16033 0.970464
0.224853 -0.43657 0.761115
0.100346 -0.479633 0.796935
0.110748 -0.636209 0.641201
-0.524104 0.209711 -0.536574
-0.595603 0.0275637 -0.463475
-0.240086 0.127008 -0.721513
-0.508462 0.121835 -0.552774
-0.376947 0.203479 -0.653737
-0.132182 0.913445 -0.250095
0.263772 0.452801 -0.644689
0.0634402 0.591481 -0.609408
0.154814 -0.749966 0.213625
0.245888 -0.748432 -0.0675048
0.548444 -0.659605 0.158395
-0.596125 -0.0143892 0.675571
-0.104557 -0.729436 0.350055
0.0790005 -0.760859 -0.122925
0.0226237 -0.750216 0.46248
0.145008 0.70492 0.556932
0.0682939 0.355516 0.893456
0.468584 0.51968 0.54991
-0.0919648 0.977239 0.121551
-0.12401 0.862845 0.371527
-0.0503398 0.910739 0.282337
-0.36141 0.771615 0.327246
-0.30339 0.879486 0.121997
-0.623584 0.362858 -0.433525
-0.582261 0.649691 -0.165717
-0.287618 0.877327 -0.184704
-0.32397 -0.147679 0.895363
-0.328216 -0.178753 0.888629
-0.231227 -0.0480049 0.948966
-0.225054 0.0413722 0.947414
-0.408373 0.148344 0.821476
0.417782 0.791326 0.154383
0 1 0
0.0627062 0.953615 -0.203171
0.34406 0.863436 -0.0216109
0.487197 0.754471 0.105365
0.0925907 0.83673 -0.427619
0.252599 0.170472 -0.715308
0.174794 -0.251026 -0.750006
0.55405 -0.164157 -0.625034
0.127023 0.400943 -0.70364
0.70741 0.123571 -0.558302
0.797717 0.198838 -0.436184
0.609204 0.245079 -0.63343
0.646357 0.0654997 -0.597694
0.651151 -0.228539 -0.537529
0.700231 0.278714 -0.531431
0.569296 -0.216362 -0.608618
-0.0775884 -0.468606 -0.574284
0.168744 -0.318763 -0.739019
-0.385368 -0.439485 -0.354389
-0.192657 -0.539507 -0.437979
-0.0247042 -0.552594 -0.516437
0.0972231 -0.60503 -0.51964
0.939066 0.232271 0.156416
0.922729 0.225818 0.224152
0.974351 0.101421 0.132616
0.922746 0.284358 0.163899
0.833265 0.218895 -0.371919
1 0 0
0.924924 -0.103253 -0.24442
0.0184214 -0.233916 0.953961
0.0401117 0.0402462 0.997766
0 0 1
0.735828 -0.416417 0.316262
0.797025 -0.325826 0.319394
0.710573 -0.532034 0.122758
0.759823 -0.4682 0.107036
0.855796 -0.288723 0.20242
0.668526 -0.425816 0.388751
0.729761 -0.368356 0.383256
0.665361 -0.531307 0.266492
0.439606 -0.538459 0.47474
0.340437 -0.515379 0.594051
-0.333982 0.137211 -0.676179
-0.141724 0.476223 -0.655485
-0.311591 0.589967 -0.545257
-0.0519133 0.485903 -0.666615
-0.399164 -0.354951 0.71312
-0.310033 -0.463901 0.742075
-0.483056 -0.115037 0.771866
-0.51341 -0.553451 0.318497
-0.28012 -0.700003 0.228379
-0.454933 -0.626846 0.0771887
-0.415446 -0.553423 0.493713
-0.67776 -0.36967 0.21394
-0.550098 -0.409308 0.507261
0.189072 0.737285 0.509704
0.114727 0.810676 0.429325
0.371314 0.492226 0.660498
0.617197 0.390769 0.543481
0.301616 0.611996 0.597754
0.300523 0.463989 0.733234
0.224042 0.696396 0.548968
0.345041 0.569422 0.614301
0.228073 0.713706 0.526511
0.353139 0.699211 0.453461
-0.36403 0.595846 -0.507349
-0.0565786 0.811513 -0.447731
-0.315086 0.603863 -0.528981
-0.453823 0.57142 -0.469282
-0.432585 0.636812 -0.408347
-0.494062 0.638635 -0.339156
-0.616272 0.394203 -0.425068
-0.539104 0.621637 -0.302969
-0.635034 0.471606 -0.324093
-0.326877 0.370684 -0.622513
-0.407048 0.297024 -0.606069
-0.225211 0.329543 -0.689742
-0.390908 0.571631 -0.51818
0.580586 0.626436 -0.303556
0.368166 0.809645 -0.225447
0.533847 0.60934 -0.376047
0.746349 0.292814 -0.461534
0.582574 0.338039 -0.612132
0.867608 0.360745 -7.00625e-06
0.93637 0.257816 0.0911201
0.903969 0.187021 -0.229746
0.865642 0.393438 0.149985
0.520637 0.116532 0.702798
0.331823 0.271573 0.827142
0.575418 0.103478 0.657793
0.311283 -0.243685 0.845028
0.0450566 -0.0577443 0.995615
0.270318 -0.263228 0.863558
0.394171 0.0277842 0.807825
0.520302 0.019585 0.717866
0.725117 -0.0711211 0.551834
0.548522 -0.367553 0.562164
-0.409875 -0.187487 -0.551045
-0.161358 -0.425664 -0.583711
-0.127477 -0.153288 -0.722908
-0.360249 -0.157501 -0.591714
-0.507111 -0.129141 -0.512937
0.68472 0.629586 0.036733
0.692235 0.622865 0.0524379
0.754675 0.521772 -0.0777411
0.745959 0.508854 -0.178444
0.737486 0.541152 -0.106849
0.659615 0.585805 -0.233265
0.795474 0.449345 -0.135989
0.769181 0.333079 -0.389027
3 68 124 129
3 3 37 7
3 126 117 53
3 185 53 52
3 0 7 37
3 12 0 37
3 12 1 0
3 21 124 68
3 57 68 129
3 31 30 73
3 63 83 90
3 36 37 3
3 36 3 34
3 123 53 185
3 8 0 1
3 8 7 0
3 2 141 143
3 2 14 141
3 2 143 8
3 2 108 14
3 2 8 1
3 2 1 12
3 13 12 37
3 81 12 13
3 191 108 2
3 191 2 12
3 98 96 60
3 17 22 50
3 17 21 22
3 23 21 68
3 23 19 71
3 23 71 111
3 23 111 47
3 29 34 5
3 29 33 34
3 4 3 7
3 4 7 42
3 4 34 3
3 4 5 34
3 151 30 74
3 151 73 30
3 79 4 42
3 79 5 4
3 79 80 29
3 79 29 5
3 82 33 83
3 39 42 7
3 39 7 69
3 6 69 7
3 6 7 8
3 6 8 143
3 6 143 144
3 6 144 69
3 40 30 41
3 40 74 30
3 44 154 148
3 44 148 51
3 44 89 154
3 44 51 193
3 10 51 148
3 10 52 51
3 91 63 90
3 91 94 63
3 48 22 47
3 49 50 22
3 49 22 48
3 9 53 117
3 9 117 114
3 9 114 53
3 179 10 148
3 179 185 52
3 179 52 10
3 54 178 74
3 54 74 40
3 54 40 87
3 119 56 182
3 119 27 56
3 119 121 86
3 11 126 53
3 11 53 123
3 11 123 126
3 59 12 81
3 59 61 191
3 59 191 12
3 38 13 37
3 38 81 13
3 109 14 108
3 109 110 111
3 109 141 14
3 109 71 141
3 109 111 71
3 166 98 60
3 166 60 62
3 95 96 98
3 45 15 50
3 45 117 126
3 45 126 15
3 125 15 126
3 18 124 21
3 18 125 124
3 18 15 125
3 18 50 15
3 16 17 50
3 16 21 17
3 16 50 18
3 16 18 21
3 67 23 68
3 67 19 23
3 67 71 19
3 20 22 21
3 20 21 23
3 20 47 22
3 20 23 47
3 24 121 87
3 24 86 121
3 24 87 86
3 85 137 27
3 85 27 119
3 85 119 86
3 25 68 57
3 25 72 68
3 25 137 72
3 25 57 56
3 25 56 137
3 140 141 71
3 26 56 27
3 26 137 56
3 26 27 137
3 28 83 33
3 28 33 29
3 28 80 83
3 28 29 80
3 146 31 73
3 146 154 89
3 146 90 78
3 146 89 90
3 32 79 42
3 32 42 41
3 32 30 31
3 32 41 30
3 77 31 146
3 77 146 78
3 77 32 31
3 77 79 32
3 159 160 83
3 35 34 33
3 35 33 82
3 35 36 34
3 163 35 82
3 163 36 35
3 163 37 36
3 163 161 81
3 163 38 37
3 163 81 38
3 88 39 69
3 88 87 40
3 88 40 41
3 88 41 42
3 88 42 39
3 43 44 193
3 43 89 44
3 43 193 93
3 43 93 89
3 169 94 91
3 97 102 105
3 97 107 96
3 97 105 107
3 118 45 50
3 118 117 45
3 106 107 111
3 189 60 96
3 189 96 107
3 46 48 47
3 46 47 111
3 46 111 107
3 46 107 105
3 46 105 48
3 103 48 105
3 103 49 48
3 103 50 49
3 103 118 50
3 176 51 52
3 176 52 115
3 176 193 51
3 113 115 52
3 113 52 53
3 113 53 114
3 116 118 100
3 174 114 117
3 174 176 115
3 177 148 178
3 177 179 148
3 120 87 121
3 120 54 87
3 120 178 54
3 130 57 129
3 130 131 57
3 55 182 56
3 55 56 57
3 55 57 131
3 55 186 182
3 55 131 186
3 128 123 185
3 128 185 186
3 58 62 61
3 58 81 62
3 58 61 59
3 58 59 81
3 132 62 60
3 132 60 189
3 132 191 61
3 132 61 62
3 165 62 81
3 165 166 62
3 156 94 65
3 156 134 157
3 156 63 94
3 156 83 63
3 156 159 83
3 135 98 166
3 135 65 98
3 135 156 65
3 64 172 98
3 64 98 65
3 64 94 172
3 64 65 94
3 66 72 71
3 66 71 67
3 66 68 72
3 66 67 68
3 138 137 85
3 138 69 144
3 138 88 69
3 70 71 72
3 70 140 71
3 70 72 140
3 142 72 137
3 142 140 72
3 142 137 144
3 145 73 151
3 145 146 73
3 150 178 148
3 150 74 178
3 150 151 74
3 75 148 154
3 75 152 148
3 75 154 152
3 76 77 78
3 76 78 90
3 76 80 79
3 76 79 77
3 76 90 83
3 76 83 80
3 167 157 134
3 167 81 161
3 167 165 81
3 167 134 166
3 162 163 82
3 162 83 160
3 162 82 83
3 84 85 86
3 84 86 87
3 84 87 88
3 84 138 85
3 84 88 138
3 92 89 93
3 92 90 89
3 92 91 90
3 92 169 91
3 192 197 169
3 192 169 92
3 192 93 193
3 192 92 93
3 170 172 94
3 170 94 169
3 171 104 172
3 171 199 116
3 171 100 104
3 171 116 100
3 101 172 104
3 101 96 95
3 101 97 96
3 101 102 97
3 101 98 172
3 101 95 98
3 99 100 118
3 99 102 101
3 99 118 103
3 99 104 100
3 99 101 104
3 99 105 102
3 99 103 105
3 188 107 106
3 188 189 107
3 188 108 191
3 188 109 108
3 188 110 109
3 188 111 110
3 188 106 111
3 112 113 114
3 112 115 113
3 112 114 174
3 112 174 115
3 175 116 199
3 175 174 117
3 175 117 118
3 175 118 116
3 198 175 199
3 183 178 120
3 181 119 182
3 181 183 120
3 181 121 119
3 181 120 121
3 122 128 129
3 122 123 128
3 122 129 124
3 122 124 125
3 122 126 123
3 122 125 126
3 127 129 128
3 127 128 186
3 127 130 129
3 127 186 131
3 127 131 130
3 190 191 132
3 190 132 189
3 133 166 134
3 133 135 166
3 133 134 156
3 133 156 135
3 136 144 137
3 136 138 144
3 136 137 138
3 139 141 140
3 139 140 142
3 139 143 141
3 139 144 143
3 139 142 144
3 153 145 151
3 153 154 146
3 153 146 145
3 147 148 152
3 147 150 148
3 147 152 150
3 149 151 150
3 149 150 152
3 149 153 151
3 149 152 154
3 149 154 153
3 155 159 156
3 155 167 159
3 155 156 157
3 155 157 167
3 158 160 159
3 158 159 167
3 158 167 161
3 158 162 160
3 158 161 163
3 158 163 162
3 164 166 165
3 164 167 166
3 164 165 167
3 168 169 197
3 168 170 169
3 168 197 199
3 168 199 171
3 168 172 170
3 168 171 172
3 173 176 174
3 173 198 176
3 173 174 175
3 173 175 198
3 194 193 176
3 194 176 198
3 184 177 178
3 184 178 183
3 184 185 179
3 184 179 177
3 180 181 182
3 180 183 181
3 180 184 183
3 180 185 184
3 180 186 185
3 180 182 186
3 187 189 188
3 187 190 189
3 187 188 191
3 187 191 190
3 196 192 193
3 196 193 194
3 196 197 192
3 196 194 198
3 195 197 196
3 195 196 198
3 195 199 197
3 195 198 199
