ply
format ascii 1.0
element vertex 200
property float x
property float y
property float z
element face 396
property list uchar int vertex_indices
end_header
-0.0508167 0.918782 0.270182
-0.183821 0.840267 0.381495
0.419395 0.429083 0.672789
-0.298053 0.108636 0.887692
-0.151408 -0.404194 0.832196
0.386346 0.847433 0.174303
0 1 0
-0.00511272 0.999773 0.0346603
-0.0200085 1.00077 0.0161966
-0.551201 0.266826 -0.522103
-0.627539 0.244871 -0.444638
0.820573 -0.0916594 -0.414458
0.7777 -0.174487 -0.439699
0.859696 -0.0387182 -0.346478
-0.38868 0.81067 -0.226282
-0.245252 0.850027 -0.261257
-0.586284 0.664369 -0.114049
-0.101283 0.984981 -0.0743477
-0.431738 0.743621 0.269292
-0.302041 0.901538 0.00598795
-0.546255 0.716396 -0.00891402
-0.000612964 0.472628 0.795523
-0.0470117 0.837153 0.431245
0.132309 0.553619 0.729654
-0.0120894 0.460584 0.801506
0.183586 0.388858 0.844099
0.0852498 0.201744 0.950563
-0.423809 0.726852 0.324963
-0.167 0.910181 0.253485
-0.211693 0.801045 0.44143
-0.768493 0.0121762 0.244342
0 0 1
0.932482 0.249438 -0.0413073
-0.0790355 0.965272 -0.200185
0.197528 0.958354 0.0481056
-0.00829505 0.989371 -0.10697
0.615062 0.461915 -0.456242
0.604715 0.396733 -0.535168
0.753182 0.51546 0.141657
0.682137 0.352996 0.414954
-0.637889 0.366673 -0.361136
-0.583985 0.319738 -0.480199
-0.771148 0.21413 0.0554298
-0.693415 0.228473 -0.343308
-0.791548 0.116661 0.173025
-0.48009 0.0851873 -0.546873
0.696107 0.212204 -0.505915
-0.36791 0.493958 -0.58718
-0.367945 0.640502 -0.46243
-0.472498 0.561769 -0.452917
-0.125989 0.664561 -0.552659
-0.0254486 0.441494 -0.66157
-0.358991 0.435551 -0.633714
-0.146344 0.664831 -0.548495
-0.329634 0.370474 0.7361
-0.308271 0.39245 0.734533
-0.373398 0.149437 0.848454
-0.40604 0.42804 0.652085
-0.296592 0.600728 0.601203
-0.457833 0.708486 0.319762
-0.418601 0.545168 0.543033
-0.689226 0.358026 0.353996
-0.535565 0.39975 0.547644
-0.706309 0.0112595 0.436666
-0.738493 0.226559 0.336912
-0.340665 -0.535323 0.61447
-0.145466 -0.685439 0.176278
-0.342501 -0.635364 0.378442
0.0336033 -0.188134 0.96967
0.798082 0.372489 -0.298089
0.91883 0.232374 -0.146775
0.656741 0.392747 -0.477655
0.750706 0.442223 -0.315984
0.835778 0.418752 -0.126921
0.356114 0.474023 -0.635099
0.286448 0.446201 -0.668056
0.503935 0.414828 -0.593461
0.264913 0.301549 -0.740603
0.00568256 0.69144 -0.548782
0.185932 0.680162 -0.524032
0.15591 0.640289 -0.581921
0.428279 0.549005 -0.537301
0.518769 0.579432 -0.432446
0.288271 0.845159 -0.220646
0.0491384 0.826166 -0.376976
0.107132 0.683744 -0.545666
0.57545 0.565468 -0.396782
0.682618 0.60737 -0.0623611
0.68413 0.601467 0.0273851
0.660346 0.609989 -0.139613
0.63388 0.648456 0.126769
0.362821 0.862686 -0.131132
0.812841 0.458211 -0.0749611
0.769079 0.516012 -0.141391
0.803419 0.459988 0.0698786
0.387778 0.701398 0.419376
0.4202 0.53498 0.575269
0.449628 -0.150959 -0.696507
0.53074 -0.0570074 -0.663298
0.361228 0.0718496 -0.737471
-0.478884 -0.585506 0.167771
-0.212394 -0.67529 0.0547163
0.628135 0.100281 -0.597603
0.383409 0.310009 -0.696549
0.629583 -0.0247896 -0.614323
0.588618 0.29161 -0.586046
0.664709 0.23115 -0.538203
0.867027 0.0806588 -0.339383
-0.660802 0.519129 0.228787
-0.556828 0.517714 0.424597
-0.690862 0.409757 0.296079
-0.623365 0.557308 0.246481
-0.705485 0.384268 0.297204
-0.628044 0.596376 0.140828
-0.698764 0.500463 -0.143946
-0.425399 -0.0892239 0.780295
-0.380625 0.0694297 0.855223
-0.639052 -0.337016 0.313661
-0.486131 -0.593474 0.300122
-0.703667 -0.162263 0.36727
-0.746435 -0.0247938 0.351183
0.0608295 -0.141202 0.976813
0.794756 0.224316 0.337184
0.891057 0.355153 0.00677672
1.0006 0.0171832 -0.0104862
0.637204 0.581504 0.228237
0.746512 0.521961 0.145742
0.53426 0.518661 0.46527
0.415169 0.68263 0.417348
0.464532 0.808717 0.146556
0.0867588 -0.121195 -0.744649
-0.321586 0.19997 -0.694429
0.0659554 0.059697 -0.777076
-0.651595 -0.272683 -0.114444
-0.767748 -0.00163159 0.100004
-0.65314 0.146558 -0.433519
-0.763542 -0.0469378 0.173364
-0.56485 -0.38341 -0.164974
-0.646125 -0.275669 -0.126066
-0.626268 -0.42627 0.0676604
-0.604418 -0.178595 0.581787
-0.522106 -0.442867 0.536923
-0.394932 -0.378551 0.712016
-0.646094 -0.182963 0.516858
-0.443803 -0.231846 0.724605
-0.579489 -0.046978 0.646614
-0.627931 -0.0120398 0.597893
0.115799 -0.731238 0.327092
0.121243 -0.665589 0.469454
0.326986 -0.615039 0.47759
-0.0789016 -0.515182 0.76625
0.384126 0.0602667 0.815784
0.354687 0.246228 0.822127
-0.370739 -0.336828 -0.472742
-0.314574 -0.145545 -0.600772
-0.397908 -0.345949 -0.442753
0.543718 -0.578744 0.133544
0.218544 -0.694066 0.402208
0.473465 -0.556628 0.383739
0.977852 -0.138149 0.0596775
0.868239 -0.269295 -0.206911
1 0 0
0.606778 -0.567249 -0.137803
0.816909 -0.38095 0.0731408
0.609074 -0.549984 0.0247883
0.397793 -0.351406 -0.644111
0.475694 -0.221523 -0.669248
0.194493 -0.192105 -0.752975
0.176397 -0.41255 -0.647357
0.654072 -0.457744 -0.359186
-0.274904 -0.386046 -0.511374
0.0148309 -0.379233 -0.670909
0.538043 -0.367382 0.53136
0.515326 -0.363664 0.556436
0.422393 -0.167475 0.743961
0.190077 -0.449233 0.783082
0.844833 -0.0921679 0.373985
0.490872 -0.13979 0.702879
0.556072 -0.281866 0.570649
0.94868 -0.139313 0.201255
0.635917 -0.390309 0.415697
0.947048 -0.0234325 0.224884
0.723432 0.0676099 0.522974
0.541604 0.019144 0.695561
0.427047 -0.0799474 0.784959
0.617329 -0.366156 -0.499186
0.65777 -0.250209 -0.550254
0.648693 -0.52372 -0.247481
0.608511 -0.475487 -0.408537
0.039461 -0.64961 -0.342077
-0.00475384 -0.620773 -0.389392
0.333742 -0.662897 -0.261928
0.0522938 -0.706375 -0.174402
-0.342051 -0.63167 -0.0754953
0.457455 -0.524676 -0.480041
0.367873 -0.574183 -0.445281
0.459127 -0.676275 -0.121691
0.516467 -0.504783 -0.46236
0.307567 -0.558229 -0.53605
0.521702 -0.456854 -0.517202
3 152 31 151
3 22 5 0
3 28 8 19
3 28 7 8
3 28 0 7
3 28 22 0
3 3 116 31
3 3 56 116
3 93 123 73
3 93 73 72
3 161 160 124
3 169 12 160
3 34 7 0
3 34 0 5
3 2 25 152
3 2 127 96
3 2 39 127
3 2 182 39
3 2 152 182
3 95 5 22
3 52 41 49
3 52 132 131
3 52 77 132
3 13 124 160
3 13 107 124
3 20 16 113
3 1 22 28
3 59 20 113
3 55 24 58
3 55 56 24
3 29 22 1
3 29 59 58
3 29 1 28
3 23 95 22
3 23 96 95
3 23 2 96
3 23 25 2
3 26 56 3
3 26 24 56
3 26 3 31
3 26 31 152
3 26 152 25
3 146 116 56
3 146 56 62
3 134 44 43
3 134 43 135
3 68 31 116
3 68 116 4
3 142 4 116
3 142 65 4
3 150 4 65
3 150 68 4
3 32 123 124
3 32 73 123
3 122 39 182
3 17 19 8
3 17 8 35
3 33 35 83
3 33 17 35
3 71 37 72
3 86 93 72
3 38 39 122
3 38 122 123
3 129 5 95
3 129 34 5
3 186 12 169
3 6 7 34
3 6 34 35
3 6 8 7
3 6 35 8
3 9 131 135
3 9 135 41
3 9 52 131
3 9 41 52
3 10 135 43
3 10 41 135
3 10 43 41
3 114 16 49
3 114 113 16
3 51 77 52
3 106 37 71
3 105 37 106
3 99 104 98
3 99 132 77
3 99 167 132
3 11 160 12
3 11 13 160
3 11 12 186
3 11 186 104
3 11 107 13
3 11 104 107
3 53 33 78
3 53 48 15
3 53 15 33
3 14 15 48
3 14 49 16
3 14 48 49
3 14 20 19
3 14 16 20
3 14 33 15
3 14 19 17
3 14 17 33
3 18 28 19
3 18 59 28
3 18 19 20
3 18 20 59
3 57 62 56
3 57 55 58
3 21 22 29
3 21 23 22
3 21 58 24
3 21 29 58
3 21 25 23
3 21 26 25
3 21 24 26
3 27 28 59
3 27 29 28
3 27 59 29
3 64 112 44
3 100 118 139
3 120 44 30
3 120 64 44
3 136 120 30
3 136 30 44
3 136 44 134
3 121 151 31
3 121 31 68
3 70 124 107
3 70 32 124
3 70 73 32
3 76 81 37
3 76 37 105
3 84 78 33
3 84 33 83
3 80 75 77
3 80 51 78
3 80 77 51
3 91 34 129
3 91 83 35
3 91 35 34
3 82 83 91
3 82 91 86
3 82 37 81
3 82 86 37
3 36 72 37
3 36 37 86
3 36 86 72
3 88 90 38
3 88 38 93
3 94 38 123
3 94 93 38
3 126 38 90
3 126 90 129
3 126 127 39
3 126 39 38
3 166 104 186
3 40 41 43
3 40 43 114
3 40 49 41
3 40 114 49
3 42 43 44
3 42 114 43
3 42 44 112
3 42 112 114
3 45 135 131
3 45 154 135
3 45 131 154
3 130 132 167
3 46 71 107
3 46 107 106
3 46 106 71
3 103 104 99
3 103 99 77
3 103 76 105
3 47 53 52
3 47 48 53
3 47 52 49
3 47 49 48
3 50 51 52
3 50 52 53
3 50 78 51
3 50 53 78
3 54 56 55
3 54 57 56
3 54 55 57
3 60 57 58
3 60 62 57
3 60 58 59
3 111 59 113
3 109 110 112
3 109 59 111
3 109 62 60
3 109 60 59
3 61 112 64
3 61 62 109
3 61 109 112
3 61 146 62
3 61 64 146
3 141 118 65
3 141 65 142
3 63 146 64
3 63 120 146
3 63 64 120
3 119 136 139
3 119 120 136
3 115 142 116
3 115 144 142
3 67 150 65
3 67 65 118
3 67 118 101
3 67 101 66
3 187 169 160
3 147 101 192
3 147 66 101
3 147 150 67
3 147 67 66
3 175 121 68
3 175 149 180
3 175 68 150
3 69 70 107
3 69 107 71
3 69 71 72
3 69 72 73
3 69 73 70
3 74 75 80
3 74 80 81
3 74 81 76
3 74 76 103
3 74 77 75
3 74 103 77
3 85 78 84
3 85 80 78
3 79 81 80
3 79 83 82
3 79 82 81
3 79 84 83
3 79 85 84
3 79 80 85
3 89 93 86
3 89 86 91
3 87 88 93
3 87 93 89
3 87 129 90
3 87 90 88
3 87 91 129
3 87 89 91
3 92 123 93
3 92 94 123
3 92 93 94
3 128 129 95
3 128 96 127
3 128 95 96
3 97 98 104
3 97 104 166
3 97 99 98
3 97 167 99
3 97 166 167
3 153 135 154
3 153 155 135
3 138 135 155
3 193 100 139
3 193 118 100
3 193 101 118
3 193 192 101
3 102 104 103
3 102 103 105
3 102 105 106
3 102 107 104
3 102 106 107
3 108 110 109
3 108 109 111
3 108 112 110
3 108 111 113
3 108 113 114
3 108 114 112
3 145 144 115
3 145 116 146
3 145 115 116
3 117 119 139
3 117 141 119
3 117 139 118
3 117 118 141
3 143 119 141
3 143 146 120
3 143 120 119
3 196 147 192
3 148 150 147
3 158 180 149
3 184 151 121
3 184 121 175
3 181 122 182
3 181 124 123
3 181 123 122
3 181 161 124
3 181 179 161
3 125 127 126
3 125 128 127
3 125 126 129
3 125 129 128
3 171 130 167
3 171 154 131
3 171 131 132
3 171 132 130
3 133 134 135
3 133 135 138
3 133 138 139
3 133 139 136
3 133 136 134
3 137 139 138
3 137 138 155
3 137 193 139
3 137 155 193
3 140 141 142
3 140 143 141
3 140 142 144
3 140 144 145
3 140 145 146
3 140 146 143
3 157 147 196
3 157 148 147
3 157 158 149
3 157 149 175
3 157 175 150
3 157 150 148
3 183 151 184
3 183 182 152
3 183 152 151
3 163 179 180
3 163 180 158
3 163 187 160
3 199 166 186
3 191 196 192
3 191 198 196
3 195 196 198
3 170 153 154
3 170 154 171
3 170 155 153
3 170 193 155
3 156 157 196
3 156 158 157
3 156 196 164
3 156 163 158
3 156 164 163
3 173 178 175
3 177 175 178
3 159 163 160
3 159 179 163
3 159 160 161
3 159 161 179
3 162 196 187
3 162 187 163
3 162 164 196
3 162 163 164
3 168 198 171
3 168 171 167
3 165 166 199
3 165 199 198
3 165 167 166
3 165 198 168
3 165 168 167
3 188 186 169
3 188 169 187
3 190 193 170
3 190 170 171
3 190 171 198
3 172 175 180
3 172 173 175
3 172 180 178
3 172 178 173
3 174 184 175
3 174 175 177
3 174 177 184
3 176 177 178
3 176 180 179
3 176 178 180
3 176 181 182
3 176 179 181
3 176 182 183
3 176 183 184
3 176 184 177
3 185 199 186
3 185 186 188
3 185 188 199
3 197 187 196
3 197 188 187
3 197 199 188
3 189 190 198
3 189 191 192
3 189 198 191
3 189 192 193
3 189 193 190
3 194 196 195
3 194 197 196
3 194 195 198
3 194 198 199
3 194 199 197
