ply
format ascii 1.0
element vertex 200
property float x
property float y
property float z
element face 396
property list uchar int vertex_indices
end_header
-0.632598 0.254034 0.579957
-0.255702 0.6151 -0.592837
0.240613 0.865056 0.244479
-0.680026 0.0535479 0.579302
-0.625324 -0.0850745 0.640629
0.701214 0.0444199 0.544234
0.0739412 0.0543044 0.992525
0.718603 0.143494 -0.494953
0.519588 0.186029 -0.630606
-0.697826 -0.155347 -0.110159
-0.614062 0.126763 -0.554156
-0.191086 -0.423435 0.812133
-0.450315 -0.604232 -0.146341
-0.421479 -0.645091 -0.0611247
0.643027 0.392903 -0.463066
0.947864 0.10138 0.200285
0.0664676 0.667339 0.573554
0.00961399 0.785257 0.441404
0.0596851 0.787304 0.432857
-0.168505 0.411492 0.820484
-0.146104 0.599669 0.654429
-0.615492 0.544287 0.315934
-0.466778 0.487148 0.599834
-0.301474 0.522314 0.686021
-0.525854 0.404365 0.619589
-0.748508 -0.0648874 0.301646
-0.747549 0.0642965 0.395827
-0.76105 0.0406658 0.0524651
-0.746978 -0.289824 0.178714
-0.725644 -0.274787 0.287675
0.429461 -0.694463 0.0314008
0.695026 -0.525801 0.0753238
0.393665 0.254074 0.832455
0.259037 0.433997 0.778113
0.0549836 0.321705 0.921975
0.448817 0.43154 0.686107
0.554222 0.358629 0.634586
0.242963 0.154782 0.93288
0.32533 0.167818 0.901819
0.0923767 0.20936 0.957885
0.242606 0.0984337 0.945701
0.0837787 0.0973262 0.988463
0.242494 -0.366428 0.744257
0.268706 -0.461921 0.669112
0.308848 0.0192012 0.915029
0.464405 -0.117291 0.76011
-0.251542 0.380838 0.814347
-0.384606 0.435888 0.709721
-0.534632 0.275307 0.700285
-0.427215 0.0861486 0.85534
-0.491188 0.114454 0.793798
-0.09211 -0.241982 0.944258
-0.259926 -0.213209 0.920324
-0.114426 -0.100987 0.977177
-0.0173015 -0.0474431 0.998447
0 0 1
-0.521227 0.628955 -0.355557
-0.118135 0.962201 -0.152958
-0.0845296 0.986811 0.0828499
-0.135863 0.611641 -0.658453
-0.471417 -0.382719 -0.392559
-0.532794 -0.471579 -0.230378
-0.655582 -0.419331 -0.145887
-0.605377 -0.164522 -0.39594
-0.412054 0.523455 -0.565275
-0.410189 0.486907 -0.5927
-0.418297 0.667533 -0.435699
-0.38827 -0.576796 0.562568
-0.458302 -0.36836 0.697995
-0.50879 -0.33607 0.67744
-0.65462 -0.319987 0.497768
-0.123609 -0.594297 0.675504
-0.00415869 -0.803942 0.238357
0.21301 0.421096 -0.738125
0.392702 0.508465 -0.585246
0.234606 0.53857 -0.663688
0.559012 0.305642 -0.561508
0.0602679 0.483663 -0.716617
0.877412 0.324372 0.121458
0.706555 0.444977 0.280801
0.60135 0.402393 0.50812
-0.481517 0.664848 0.380597
-0.500407 0.590808 0.457205
-0.430803 0.646969 0.461501
-0.34317 0.889968 0.0773158
-0.46149 0.767622 0.220256
-0.56632 0.691909 0.187977
-0.306316 0.911362 -0.0177485
-0.389929 0.781092 0.329823
-0.303476 0.844659 0.278659
-0.121433 0.970918 0.158285
-0.627516 -0.516967 0.169887
-0.553144 -0.598941 0.0762352
-0.693701 -0.422557 0.0401118
-0.714595 -0.371826 0.223458
0.40562 -0.351079 0.689369
0.412876 -0.152461 0.784984
0.9748 0.0754251 -0.140939
1 0 0
0.941523 -0.001209 0.2367
0.348322 -0.624913 0.413108
0.386133 -0.458067 0.624308
0.339944 -0.653782 0.372277
0.485334 -0.654049 0.233787
0.219627 -0.620261 0.517601
0.0899626 -0.612798 0.579945
0.131876 -0.682591 0.468173
0.251044 -0.608918 0.517325
0.530823 -0.655449 0.104391
0.404974 -0.4793 -0.438413
0.578756 -0.111434 -0.585329
0.658249 0.0503726 -0.573878
0.414482 -0.156581 -0.640274
-0.0892184 -0.534474 -0.475145
-0.276587 0.0869523 0.929371
-0.385983 0.1463 0.876162
-0.369043 0.0904562 0.891844
-0.130106 0.141524 0.962628
-0.155338 -0.0434924 0.976612
-0.239545 -0.118151 0.947037
-0.185495 0.720232 -0.54596
-0.197296 0.83675 -0.38655
-0.197476 0.720884 -0.542436
-0.111466 0.696518 -0.589535
0.337982 0.697154 -0.506617
-0.570916 0.414586 -0.506028
-0.519897 0.438631 -0.537374
-0.563088 0.512832 -0.432652
-0.574843 0.349676 -0.545114
-0.748354 0.211206 0.106676
-0.466841 -0.66254 0.224397
-0.343522 -0.740426 0.247245
-0.534425 -0.576088 0.32895
-0.48525 -0.653672 0.196673
-0.311387 -0.478998 -0.431932
-0.316191 -0.619064 -0.271482
-0.397518 -0.38933 -0.453273
-0.285233 -0.492365 -0.436332
0.585906 0.617092 0.25618
0.457294 0.574069 0.49898
0.555596 0.377949 0.609532
0.573543 -0.238799 0.625803
0.699405 -0.300132 0.446691
0.72217 -0.092384 0.529076
0.495374 -0.279093 0.681688
0.492776 -0.251568 0.693543
0.574323 -0.011554 0.697096
0.796529 -0.409664 0.10908
0.983806 -0.12979 0.00887043
0.832204 -0.304955 0.233545
0.704768 -0.486705 0.242788
0.751072 -0.466484 0.106227
0.527925 -0.619529 -0.149007
0.533332 -0.626095 -0.0969968
0.355364 -0.726033 -0.0511338
0.40249 -0.532074 -0.381266
0.677541 -0.547441 -0.096417
0.758422 -0.425806 -0.209586
0.189678 -0.522337 -0.501771
0.0554136 -0.506681 -0.532049
0.298194 -0.484037 -0.499128
0.270439 -0.55911 -0.430824
-0.0262939 -0.555295 -0.450081
-0.530694 -0.0367986 -0.561326
-0.346208 -0.372834 -0.502306
0.546678 0.636122 -0.296677
0.549557 0.700855 -0.157271
0.766292 0.451202 -0.275505
0.512934 0.652202 -0.321379
0.163868 0.926374 -0.247194
0.079597 0.93085 -0.282348
-0.0094255 0.984544 -0.126967
0.189094 0.793441 -0.471617
0 1 0
0.339284 0.886889 0.0483336
0.212647 0.908852 -0.253412
0.205818 0.954378 0.0464414
0.423243 0.763487 0.282298
0.211166 0.929378 0.14835
-0.304012 -0.655286 0.531007
-0.212172 -0.769952 0.388603
-0.196723 -0.735004 0.463995
-0.221125 -0.706229 0.497311
-0.349065 -0.625034 0.538578
-0.234534 -0.571693 0.672253
-0.142122 -0.680236 0.569884
0.128609 -0.0971643 -0.701905
-0.00770425 -0.157738 -0.676792
0.0726796 -0.18762 -0.669716
0.342035 -0.309858 -0.618099
0.21442 0.290957 -0.786957
0.0805437 0.345286 -0.786094
0.0293297 -0.397424 -0.594405
0.686392 0.583894 0.0556533
0.679055 0.551135 0.198549
0.737863 0.519437 0.0808924
0.667445 0.600796 0.0660515
0.806453 0.420376 -0.210907
0.909086 0.296545 -0.0608594
0.544972 0.727156 -0.0503361
3 4 69 49
3 15 98 198
3 97 198 98
3 59 191 65
3 178 173 90
3 129 86 127
3 129 27 26
3 48 24 0
3 21 26 0
3 21 129 26
3 21 86 129
3 21 0 24
3 70 69 4
3 3 0 26
3 3 26 70
3 3 70 4
3 3 48 0
3 150 101 103
3 157 111 97
3 99 98 15
3 43 51 71
3 54 51 44
3 11 71 51
3 52 49 69
3 52 11 51
3 56 127 86
3 197 97 167
3 197 198 97
3 10 27 129
3 10 63 62
3 10 65 191
3 92 93 62
3 92 62 12
3 1 59 65
3 1 65 64
3 1 122 59
3 1 64 122
3 177 178 2
3 177 35 139
3 177 33 35
3 20 88 23
3 20 17 90
3 18 177 2
3 18 33 177
3 18 2 178
3 18 178 90
3 18 90 17
3 83 23 88
3 85 86 88
3 47 46 23
3 47 24 48
3 28 27 62
3 28 62 93
3 50 48 3
3 50 4 49
3 50 3 4
3 102 72 103
3 102 106 72
3 108 103 72
3 108 31 150
3 108 150 103
3 38 40 44
3 38 34 39
3 5 15 36
3 5 99 15
3 5 143 99
3 146 38 44
3 146 143 5
3 146 5 36
3 95 43 101
3 95 44 51
3 105 43 71
3 6 44 40
3 6 54 44
3 6 55 54
3 6 41 55
3 6 40 41
3 117 34 46
3 117 55 41
3 117 39 34
3 117 41 39
3 68 52 69
3 68 11 52
3 119 116 49
3 119 49 52
3 58 90 173
3 7 111 76
3 7 167 97
3 7 97 111
3 14 124 167
3 14 167 7
3 14 7 76
3 8 111 190
3 8 76 111
3 8 190 76
3 172 124 75
3 176 173 178
3 61 12 62
3 128 65 10
3 128 10 129
3 9 62 27
3 9 27 10
3 9 10 62
3 163 10 191
3 163 164 136
3 163 63 10
3 13 92 12
3 131 183 132
3 131 92 13
3 184 71 11
3 184 11 68
3 181 72 106
3 162 161 154
3 135 12 61
3 135 13 12
3 135 113 162
3 135 72 131
3 135 131 13
3 135 154 72
3 135 162 154
3 77 191 59
3 77 59 75
3 74 14 76
3 74 75 124
3 74 124 14
3 140 36 80
3 140 35 36
3 140 139 35
3 78 15 198
3 78 198 195
3 78 79 80
3 78 36 15
3 78 80 36
3 16 20 34
3 16 17 20
3 16 34 33
3 16 33 18
3 16 18 17
3 19 23 46
3 19 20 23
3 19 46 34
3 19 34 20
3 89 20 90
3 89 88 20
3 82 21 24
3 82 86 21
3 87 56 86
3 87 90 58
3 22 23 83
3 22 47 23
3 22 24 47
3 22 82 24
3 22 83 82
3 29 70 26
3 29 26 28
3 25 26 27
3 25 27 28
3 25 28 26
3 94 28 93
3 94 132 70
3 94 70 29
3 94 29 28
3 142 99 143
3 142 149 99
3 142 150 149
3 142 101 150
3 151 150 31
3 107 106 102
3 107 101 43
3 107 43 105
3 30 72 154
3 30 108 72
3 30 154 108
3 156 31 108
3 156 151 31
3 109 189 157
3 112 189 190
3 159 162 113
3 155 109 157
3 32 33 34
3 32 34 38
3 32 35 33
3 32 36 35
3 32 146 36
3 32 38 146
3 37 38 39
3 37 40 38
3 37 39 41
3 37 41 40
3 45 146 44
3 45 145 146
3 42 51 43
3 42 95 51
3 42 43 95
3 96 44 95
3 96 45 44
3 96 145 45
3 115 117 46
3 115 46 47
3 115 47 48
3 115 49 116
3 115 50 49
3 115 48 50
3 53 51 54
3 53 52 51
3 53 119 52
3 118 119 53
3 118 53 54
3 118 54 55
3 118 55 117
3 66 121 122
3 66 122 64
3 66 56 87
3 66 87 121
3 66 127 56
3 57 171 170
3 57 170 121
3 57 121 87
3 57 87 58
3 57 173 171
3 57 58 173
3 123 75 59
3 123 172 75
3 123 59 122
3 123 170 172
3 123 121 170
3 60 61 62
3 60 62 63
3 60 136 135
3 60 135 61
3 60 163 136
3 60 63 163
3 126 64 65
3 126 65 128
3 126 127 66
3 126 66 64
3 133 92 131
3 67 183 184
3 67 184 68
3 67 68 69
3 67 69 70
3 67 70 132
3 67 132 183
3 185 181 106
3 185 105 71
3 185 106 105
3 185 71 184
3 180 183 131
3 180 131 72
3 180 72 181
3 137 164 113
3 137 113 135
3 73 75 74
3 73 190 191
3 73 76 190
3 73 74 76
3 73 191 77
3 73 77 75
3 194 78 195
3 194 79 78
3 194 80 79
3 194 140 80
3 81 88 86
3 81 86 82
3 81 83 88
3 81 82 83
3 84 86 85
3 84 87 86
3 84 85 88
3 84 88 89
3 84 89 90
3 84 90 87
3 91 93 92
3 91 94 93
3 91 132 94
3 91 133 132
3 91 92 133
3 144 101 142
3 144 95 101
3 144 145 96
3 144 96 95
3 148 97 98
3 148 157 97
3 148 98 99
3 148 99 149
3 100 101 107
3 100 107 102
3 100 103 101
3 100 102 103
3 104 105 106
3 104 106 107
3 104 107 105
3 153 108 154
3 153 156 108
3 160 189 109
3 160 155 161
3 160 109 155
3 110 190 111
3 110 112 190
3 110 189 112
3 110 111 157
3 110 157 189
3 192 113 164
3 192 159 113
3 192 189 159
3 114 115 116
3 114 117 115
3 114 118 117
3 114 116 119
3 114 119 118
3 120 122 121
3 120 123 122
3 120 121 123
3 199 197 167
3 199 167 166
3 168 167 124
3 175 199 166
3 175 124 172
3 175 168 124
3 175 166 168
3 125 127 126
3 125 126 128
3 125 129 127
3 125 128 129
3 130 131 132
3 130 132 133
3 130 133 131
3 182 181 185
3 134 135 136
3 134 137 135
3 134 136 164
3 134 164 137
3 138 177 139
3 138 194 177
3 138 139 140
3 138 140 194
3 141 142 143
3 141 144 142
3 141 145 144
3 141 143 146
3 141 146 145
3 147 148 149
3 147 149 150
3 147 150 151
3 147 157 148
3 147 156 157
3 147 151 156
3 152 153 154
3 152 154 161
3 152 161 155
3 152 156 153
3 152 157 156
3 152 155 157
3 158 159 189
3 158 189 160
3 158 160 161
3 158 161 162
3 158 162 159
3 187 164 163
3 187 192 164
3 187 188 192
3 187 163 191
3 196 177 194
3 165 166 167
3 165 167 168
3 165 168 166
3 169 170 171
3 169 176 175
3 169 172 170
3 169 175 172
3 169 171 173
3 169 173 176
3 174 175 176
3 174 199 175
3 174 178 177
3 174 176 178
3 174 177 196
3 174 196 199
3 179 180 181
3 179 181 182
3 179 183 180
3 179 184 183
3 179 185 184
3 179 182 185
3 186 188 187
3 186 190 189
3 186 191 190
3 186 187 191
3 186 189 192
3 186 192 188
3 193 194 195
3 193 196 194
3 193 198 197
3 193 195 198
3 193 197 199
3 193 199 196
