ply
format ascii 1.0
element vertex 200
property float x
property float y
property float z
element face 396
property list uchar int vertex_indices
end_header
-0.397889 0.185452 0.835391
-0.098336 0.315532 -0.775632
0.407128 0.499357 0.628082
-0.753936 0.220483 0.43756
-0.186608 0.390862 0.751538
-0.516466 0.572381 -0.306665
-0.520326 0.51261 -0.397429
-0.253523 0.728601 -0.446249
-0.295937 -0.1686 -0.602319
-0.433408 0.257625 -0.603333
-0.329929 0.200918 -0.700578
-0.475189 0.504813 -0.46449
-0.637935 0.550606 0.0723337
-0.773138 0.244578 0.287493
-0.562812 0.571205 -0.220415
-0.670757 0.224808 0.576646
-0.547216 0.235119 0.704051
0.452202 0.19702 -0.697416
0.723909 0.513906 -0.0441572
0.683356 0.564159 -0.04923
0.200211 0.326759 0.832677
0.379606 0.438871 0.692579
0.158875 0.459006 0.762904
-0.164698 0.148256 0.949299
0.0903703 0.208762 0.946346
0.400595 0.248951 0.800118
0.999259 0.0332748 0.0251599
0.969752 -0.04322 -0.168671
1 0 0
0.892306 -0.196378 -0.301369
0.288082 0.116959 0.892778
0.572195 0.198387 0.671691
0.489697 0.184399 0.74473
0.407079 0.226364 0.802739
0.53527 0.665711 0.265437
0.637149 0.541969 0.276409
0.575608 0.656042 0.173062
0.582923 0.55565 0.360476
0.336638 0.761299 0.432245
-0.630371 0.565265 0.101195
-0.422775 0.723301 -0.180059
-0.332801 0.748294 0.345343
-0.415444 0.583659 0.486573
0.00484783 0.971837 0.175918
0.0898565 0.894022 0.36296
0.118829 0.868302 0.411248
0.026325 0.902552 0.354603
-0.578443 -0.296788 -0.400564
-0.65709 0.00454941 -0.348809
-0.644891 0.13522 -0.365433
0.0638048 0.88658 -0.366596
-0.00571328 0.963263 -0.190621
0.0789223 0.990225 0.0666827
0.0787635 0.974997 0.163585
0.393036 0.804766 0.200141
0.222467 0.940941 -0.135619
0 1 0
0.101862 0.965809 -0.153718
0.245715 0.918606 -0.210556
0.462997 0.385322 -0.611922
0.689598 0.217644 -0.503495
-0.471259 0.138827 0.814355
-0.634884 0.186337 0.63179
-0.228141 0.0745235 0.939736
-0.190508 0.154363 0.944126
0.0949082 0.590292 -0.649249
0.372746 0.367708 -0.670258
0.435599 0.559857 -0.501058
0.0362776 0.725927 -0.573356
0.0340457 0.500813 -0.715955
0.71204 -0.0168039 -0.544355
0.0741054 0.0424182 -0.75507
-0.0219892 -0.633348 -0.439356
0.543186 -0.229402 0.650593
0.59119 -0.321616 0.57593
0.66133 -0.372038 0.431922
-0.572209 0.497479 0.401128
-0.566707 0.575496 0.27518
-0.433413 0.695172 0.327655
-0.729308 0.264256 0.464132
-0.462433 0.395143 0.670803
-0.44513 0.742412 0.173376
-0.39081 0.781474 0.140478
-0.414985 0.720891 0.300533
-0.4738 0.727408 0.162371
-0.762689 -0.153537 -0.0726211
-0.785771 0.0632197 0.202867
-0.66205 0.400981 -0.234751
-0.197585 -0.541228 -0.472989
-0.740858 -0.352164 -0.0547235
-0.719539 -0.217651 -0.231932
-0.638265 -0.370533 -0.253057
-0.57519 -0.417523 -0.313899
0.435673 0.710347 -0.312276
0.480019 0.557606 -0.476561
0.453432 0.426036 -0.592118
0.503617 0.599371 -0.396043
0.862419 0.126108 -0.382403
-0.364327 0.10175 0.881388
-0.773217 -0.26969 0.207895
-0.730253 0.0468488 0.509733
0.612939 -0.142547 -0.642898
0.731061 -0.280729 -0.493951
0.696777 -0.214495 -0.545615
0.502591 -0.0742512 -0.69163
0.608352 0.00817919 -0.648292
0.661025 -0.0573733 -0.598319
0.0309113 -0.371812 -0.685917
0.214638 -0.275767 -0.728562
0.384054 -0.457914 -0.63039
0.153584 -0.547431 -0.57024
-0.00411266 -0.375826 -0.672448
-0.0441732 -0.184143 -0.736975
0.92263 -0.297926 -0.0449619
0.925546 -0.293636 -0.0163469
0.950632 -0.202029 -0.0842045
0.843976 -0.0757141 0.385337
0.765918 -0.188425 0.469412
0.645916 0.0839356 0.610935
0.937511 -0.0978955 0.227468
0.957227 0.197452 0.107232
0.330628 -0.632688 0.421091
0.330572 -0.641216 0.405018
-0.603093 -0.489001 -0.16522
-0.695376 -0.441106 -0.0381754
-0.711758 -0.408052 -0.0740019
-0.680353 -0.461889 -0.0616422
-0.739344 -0.361876 0.210228
-0.768218 -0.330672 0.0998179
-0.287779 -0.716379 0.0525731
0.120574 -0.714276 0.285878
0.18906 -0.752261 0.127074
0.221946 -0.657199 0.441121
-0.0917957 -0.684404 0.400366
-0.23638 -0.710161 0.285169
0.718494 0.443885 -0.32132
0.771045 0.352731 -0.326922
0.651212 0.416866 -0.446636
0.588109 0.490313 -0.444584
0.611401 0.573785 -0.293482
0.750044 0.466885 -0.142818
0.798422 0.386595 -0.144958
0.95298 0.118453 -0.1782
-0.562346 -0.110618 0.71171
-0.497878 -0.00990877 0.79784
0.888533 -0.252717 -0.254466
0.713601 -0.441417 -0.378634
0.0858917 -0.682181 -0.417773
0.364959 -0.667319 -0.382741
-0.581416 -0.424449 0.526838
-0.676568 -0.204052 0.532415
-0.684251 -0.324401 0.390278
-0.662058 -0.174971 0.589318
-0.624331 -0.197944 0.623348
-0.531834 -0.480993 0.535525
-0.518565 -0.46024 0.565672
-0.447602 -0.170393 0.818971
-0.614204 -0.557489 0.12969
-0.625066 -0.543496 -0.0116331
-0.700667 -0.438105 0.0451153
-0.672298 -0.457705 0.277022
-0.572252 -0.603036 0.0251324
-0.577739 -0.542316 0.367999
-0.492313 -0.653426 0.113343
-0.440329 -0.5555 0.546073
-0.476571 -0.523313 0.548996
-0.416163 -0.474292 0.646532
-0.444942 -0.600644 0.48815
-0.137549 -0.631385 0.537954
-0.373519 -0.126038 0.86753
-0.17392 -0.0442022 0.967742
0.511771 -0.626422 -0.347643
0.69572 -0.503258 -0.339706
0.401724 -0.614149 -0.484004
0.533722 -0.518828 -0.493582
0.548924 -0.640403 0.244927
0.689231 -0.527684 0.221611
0.578071 -0.40699 0.509649
0.431022 -0.559827 0.46363
0.631317 -0.617854 -0.124094
0.87355 -0.396393 -0.0953657
0.710345 -0.531924 -0.264568
0.691318 -0.542653 0.175434
0.610856 -0.605338 0.229282
0.396429 -0.748637 -0.144544
0.377721 -0.73159 -0.24286
0.420644 -0.70858 -0.279656
0.526225 -0.701453 -0.0993847
0.193442 -0.803183 -0.111166
0.348411 -0.754036 0.118687
0 0 1
0.470482 -0.0292146 0.778182
0.481381 -0.246489 0.69482
0.306823 -0.412637 0.721588
0.299947 -0.506383 0.653442
-0.0392661 -0.573678 0.62925
-0.285044 -0.326243 0.838141
-0.17643 -0.128471 0.950936
-0.292164 -0.327379 0.836339
0.031933 -0.288931 0.907986
3 31 2 25
3 31 118 120
3 35 120 36
3 53 38 54
3 53 56 43
3 21 25 2
3 21 2 38
3 21 38 22
3 45 22 38
3 45 38 53
3 99 3 86
3 99 100 3
3 7 1 11
3 6 11 49
3 6 49 87
3 6 7 11
3 14 39 40
3 14 6 87
3 19 139 58
3 10 1 112
3 10 11 1
3 71 112 1
3 69 7 68
3 69 1 7
3 0 64 80
3 0 98 64
3 61 98 0
3 61 80 16
3 61 0 80
3 13 87 86
3 13 86 3
3 15 3 100
3 15 16 80
3 17 1 69
3 17 104 71
3 17 71 1
3 105 104 17
3 140 139 19
3 24 30 25
3 24 190 30
3 24 22 64
3 29 102 97
3 29 97 27
3 147 129 161
3 119 26 120
3 119 28 26
3 119 114 28
3 37 31 120
3 37 120 35
3 37 2 31
3 37 38 2
3 79 39 13
3 79 13 3
3 79 3 15
3 79 15 80
3 46 80 45
3 46 53 43
3 63 64 98
3 4 22 45
3 4 64 22
3 4 45 80
3 4 80 64
3 50 68 7
3 50 58 68
3 51 40 56
3 51 7 40
3 51 50 7
3 5 14 40
3 5 6 14
3 5 40 7
3 5 7 6
3 55 54 36
3 55 36 19
3 55 19 58
3 94 67 68
3 94 68 58
3 94 95 67
3 8 112 47
3 8 10 112
3 8 47 10
3 9 47 48
3 9 10 47
3 9 48 49
3 9 49 11
3 9 11 10
3 12 13 39
3 12 87 13
3 12 39 14
3 12 14 87
3 62 15 100
3 62 61 16
3 62 16 15
3 66 59 17
3 66 17 69
3 66 95 59
3 60 17 59
3 60 105 17
3 60 97 105
3 141 140 120
3 18 120 140
3 18 140 19
3 18 36 120
3 18 19 36
3 20 25 21
3 20 24 25
3 20 21 22
3 20 22 24
3 23 64 190
3 23 190 24
3 23 24 64
3 33 31 25
3 33 32 31
3 33 25 30
3 142 27 97
3 142 120 26
3 142 26 28
3 142 28 27
3 142 141 120
3 111 47 112
3 88 92 47
3 88 47 111
3 146 174 102
3 146 102 29
3 146 29 145
3 109 102 174
3 115 27 28
3 115 28 114
3 115 145 29
3 115 29 27
3 191 30 190
3 191 118 31
3 191 31 32
3 191 33 30
3 191 32 33
3 188 129 147
3 34 35 36
3 34 37 35
3 34 38 37
3 34 36 54
3 34 54 38
3 77 39 79
3 82 56 40
3 82 43 56
3 82 83 43
3 84 78 83
3 84 39 77
3 84 77 78
3 84 40 39
3 84 82 40
3 42 78 80
3 42 80 46
3 41 83 78
3 41 78 42
3 41 42 46
3 41 43 83
3 41 46 43
3 44 45 53
3 44 53 46
3 44 46 45
3 128 99 86
3 128 127 99
3 91 47 92
3 90 48 47
3 90 47 91
3 90 49 48
3 90 87 49
3 57 58 50
3 57 50 51
3 57 55 58
3 57 51 56
3 52 53 54
3 52 54 55
3 52 56 53
3 52 57 56
3 52 55 57
3 93 58 139
3 93 94 58
3 137 59 95
3 137 60 59
3 137 97 60
3 144 98 61
3 144 61 62
3 144 62 100
3 170 63 98
3 170 190 64
3 170 64 63
3 155 166 156
3 65 95 66
3 65 68 67
3 65 67 95
3 65 69 68
3 65 66 69
3 103 97 102
3 70 105 97
3 70 106 105
3 70 97 103
3 70 103 106
3 72 147 161
3 72 161 88
3 108 112 71
3 108 71 104
3 110 147 72
3 110 88 111
3 110 72 88
3 173 109 174
3 173 110 109
3 173 148 147
3 173 147 110
3 113 115 114
3 193 194 74
3 193 74 192
3 117 74 75
3 117 118 191
3 73 192 74
3 73 191 192
3 73 74 117
3 73 117 191
3 177 75 74
3 177 74 194
3 177 194 178
3 176 117 75
3 176 75 177
3 176 114 119
3 176 119 117
3 76 78 77
3 76 77 79
3 76 80 78
3 76 79 80
3 81 83 82
3 81 84 83
3 81 82 84
3 85 89 128
3 85 90 89
3 85 128 86
3 85 86 87
3 85 87 90
3 123 126 92
3 123 92 88
3 123 88 161
3 125 128 89
3 125 89 90
3 125 90 91
3 125 91 92
3 125 92 126
3 163 161 129
3 167 154 162
3 167 162 163
3 131 188 189
3 96 93 139
3 96 94 93
3 138 95 94
3 138 137 95
3 138 94 96
3 138 96 139
3 136 97 137
3 136 142 97
3 169 170 98
3 169 98 144
3 169 144 156
3 150 100 99
3 150 99 127
3 150 127 151
3 152 144 100
3 152 100 150
3 101 102 109
3 101 103 102
3 101 108 104
3 101 109 108
3 101 104 105
3 101 105 106
3 101 106 103
3 107 108 109
3 107 110 111
3 107 109 110
3 107 111 112
3 107 112 108
3 180 113 114
3 180 114 176
3 180 145 115
3 180 115 113
3 116 118 117
3 116 117 119
3 116 120 118
3 116 119 120
3 132 189 122
3 132 122 121
3 132 194 195
3 132 121 194
3 175 121 122
3 175 122 189
3 175 178 194
3 175 194 121
3 186 148 173
3 158 123 161
3 158 126 123
3 158 159 126
3 124 128 125
3 124 125 126
3 124 159 128
3 124 126 159
3 160 151 127
3 160 127 128
3 160 128 159
3 165 154 167
3 165 166 155
3 165 155 154
3 168 195 166
3 168 132 195
3 168 133 132
3 134 163 129
3 134 167 163
3 134 133 168
3 134 168 167
3 134 129 188
3 134 188 131
3 130 131 189
3 130 189 132
3 130 132 133
3 130 133 134
3 130 134 131
3 135 136 137
3 135 138 139
3 135 137 138
3 135 139 140
3 135 140 141
3 135 141 142
3 135 142 136
3 198 166 195
3 198 156 166
3 198 169 156
3 143 156 144
3 143 152 156
3 143 144 152
3 153 156 152
3 182 180 176
3 172 180 181
3 172 145 180
3 172 146 145
3 172 174 146
3 185 188 147
3 185 147 148
3 185 148 186
3 187 186 181
3 187 175 189
3 149 150 151
3 149 151 160
3 149 152 150
3 149 153 152
3 149 162 154
3 149 160 162
3 149 154 155
3 149 155 156
3 149 156 153
3 157 159 158
3 157 160 159
3 157 158 161
3 157 162 160
3 157 161 163
3 157 163 162
3 164 166 165
3 164 165 167
3 164 168 166
3 164 167 168
3 197 170 169
3 197 169 198
3 197 190 170
3 171 181 186
3 171 172 181
3 171 186 173
3 171 173 174
3 171 174 172
3 183 175 187
3 183 182 176
3 183 176 177
3 183 177 178
3 183 178 175
3 179 181 180
3 179 187 181
3 179 180 182
3 179 182 183
3 179 183 187
3 184 185 186
3 184 186 187
3 184 188 185
3 184 189 188
3 184 187 189
3 199 190 197
3 199 191 190
3 199 192 191
3 199 193 192
3 199 194 193
3 199 195 194
3 199 198 195
3 196 197 198
3 196 198 199
3 196 199 197
