ply
format ascii 1.0
element vertex 200
property float x
property float y
property float z
element face 396
property list uchar int vertex_indices
end_header
-0.544067 0.404001 0.558626
0.980923 -0.0475893 0.132057
0.89046 -0.141424 0.335482
0.865813 0.145034 0.383108
0.893807 0.226137 0.226958
0.741724 0.458202 0.278153
0.965034 0.00778996 0.208327
0.902838 0.246797 0.166625
-0.643374 0.447459 0.328993
-0.631175 0.430839 0.390354
0.600764 -0.212703 0.628963
0.824991 0.089548 0.467764
0.27764 -0.0338819 0.915603
-0.0412124 -0.0595244 0.995739
-0.518401 0.269961 0.678989
-0.445463 0.440078 0.611078
0.595388 0.572354 0.29906
-0.728257 0.0125941 0.289297
-0.736145 0.0990299 0.23029
-0.767155 0.0627827 0.0383611
-0.773835 0.305659 -0.0334231
0.330224 -0.546031 0.623325
-0.239283 -0.618529 0.502572
-0.0119702 -0.765925 0.0937242
-0.184971 -0.727592 0.118544
-0.374541 -0.665737 0.178793
0.667567 0.102654 -0.540751
-0.373584 -0.0377957 -0.589352
-0.194485 0.182063 -0.694915
-0.487269 -0.105996 -0.507386
0.759785 0.45193 -0.220779
0.603026 0.576907 -0.298809
0.878442 0.261194 -0.198737
0.981886 0.130072 -0.043114
0.455191 0.741082 0.0388032
0.808567 0.434043 0.136417
0.545139 0.6637 -0.0402672
0.0974312 0.321333 -0.739055
0.0386633 0.226481 -0.744284
-0.179723 0.406991 -0.729625
0.809455 -0.420035 -0.00070314
0.381393 -0.678975 0.267254
0.438672 -0.554391 0.530128
0.110658 -0.712401 0.47136
0.397245 -0.25462 0.798801
0.415018 -0.427084 0.681168
0.48854 -0.362197 0.676647
0.422622 -0.17733 0.809656
0.102803 -0.116528 0.976279
0.522967 0.492933 0.507133
0.0240344 0.267393 0.922947
0 0 1
-0.696978 -0.212637 -0.05762
-0.692294 0.0446299 -0.221745
-0.686661 -0.105425 -0.181376
0.0693291 -0.604394 0.642475
-0.473412 -0.588278 0.223433
-0.388209 -0.660742 0.205314
-0.142153 -0.668949 -0.197756
-0.343676 -0.630526 -0.14523
0.300229 -0.478253 -0.5475
-0.139281 -0.487278 -0.487279
-0.423521 -0.434241 -0.343509
-0.154972 -0.548743 -0.409716
0.47626 -0.20898 -0.646235
0.524725 -0.0284138 -0.651385
0.252166 -0.670494 -0.334405
0.282565 -0.742431 0.143221
0.194524 -0.777872 0.0142305
0.41453 -0.717291 0.00754527
-0.152218 -0.734142 -0.0233626
0.00488719 -0.714957 -0.142075
0.0269213 -0.624592 -0.419082
0.467326 -0.570542 -0.41974
0.423154 -0.617737 -0.413205
0.890293 -0.147036 -0.330852
0.936929 -0.111445 -0.218269
0.555077 -0.249392 -0.599895
0.926879 0.111315 -0.25502
0.75471 0.309247 -0.420604
-0.533544 0.36395 -0.505937
-0.552992 0.0806523 -0.481859
-0.540097 0.453914 -0.458423
-0.367848 0.384549 -0.689159
-0.712471 0.373113 -0.281258
-0.754555 0.336048 -0.176986
-0.681244 0.338084 -0.3393
-0.640004 0.42369 -0.373647
-0.583905 0.656203 -0.261238
-0.625319 0.581382 0.179571
0.0380258 0.823806 0.449535
0.178784 0.845619 0.372145
0.23807 0.917272 0.142005
0.471343 0.116438 -0.649306
0.622527 -0.0495404 -0.612373
0.341209 0.128048 -0.710807
0.478493 0.405399 -0.563074
0.890631 -0.309937 -0.124708
0.853321 -0.38435 -0.136801
0.908647 -0.284199 0.127257
0.8933 -0.28392 -0.162677
1 0 0
0.564678 -0.647025 -0.177237
0.507356 -0.687629 -0.00961186
0.387722 -0.72959 -0.0437996
0.279762 -0.769728 -0.046536
0.526127 -0.65273 -0.218689
0.732123 -0.519613 -0.0763507
0.692377 -0.547382 -0.129196
0.646776 -0.512432 -0.339557
0.333138 0.0953179 0.881742
0.576796 0.452075 0.496371
-0.323355 0.0846926 0.900247
-0.475561 -0.53068 -0.191444
-0.449844 -0.575891 -0.126149
-0.549687 -0.48596 0.369203
-0.487446 -0.59898 0.114883
-0.500951 -0.502287 0.50667
-0.653162 -0.400428 0.118069
-0.571282 -0.47834 0.30023
-0.721384 -0.235009 0.124877
-0.654767 -0.379158 0.0711405
-0.55527 -0.525582 0.0643059
-0.521834 -0.56649 0.0935275
-0.28116 -0.427132 0.781455
-0.302809 -0.559024 0.661466
-0.0922844 -0.514828 0.742794
-0.151499 -0.209302 0.945974
0.0273759 -0.318057 0.909103
-0.452079 -0.223781 0.753732
-0.263545 -0.0324145 0.935053
0.0748625 -0.288085 -0.651956
-0.380354 -0.275907 -0.496242
-0.0158363 -0.139169 -0.681288
0.106245 -0.478318 -0.58404
0.438159 -0.275572 -0.644949
0.331784 0.104668 -0.721878
-0.270609 0.92108 0.0205592
-0.434419 0.649819 0.457235
-0.326682 0.407902 0.715778
0.0274376 0.507538 0.764624
0 1 0
-0.144864 0.980543 -0.0741847
-0.298412 0.4812 -0.671027
0.226194 0.916719 -0.161678
-0.0964021 0.987476 -0.0637792
0.0130674 0.577084 -0.63788
0.145483 0.533415 -0.654117
0.145966 0.487531 -0.687783
0.146795 0.596542 -0.601037
0.559745 0.247473 0.665325
0.373261 0.25239 0.815944
0.697074 0.200815 0.583818
0.581278 0.380231 0.554813
-0.607429 -0.360709 -0.174242
-0.586109 -0.47225 -0.0621881
-0.513353 -0.409132 -0.288269
-0.646963 -0.312995 -0.131024
-0.5589 -0.233791 -0.34223
-0.577328 -0.207941 -0.328319
-0.544499 -0.254854 0.673818
-0.492654 -0.327829 0.677535
-0.616834 -0.0132743 0.686558
-0.554534 -0.244687 0.670578
-0.515471 -0.242928 0.704987
-0.487036 -0.211163 0.735438
-0.501419 0.0601922 0.790327
-0.577282 0.19234 0.691583
-0.685408 0.220744 0.451309
-0.671022 -0.188103 0.497921
-0.588229 -0.381799 0.538102
-0.1958 0.86057 0.300346
-0.0652258 0.996338 -0.0198163
-0.335863 0.879759 0.13475
0.0289433 0.921491 0.269198
-0.427293 0.749299 0.320645
-0.175406 0.770196 0.484631
-0.0984255 0.78931 0.480204
-0.144493 0.646256 -0.576977
-0.00927644 0.518323 -0.683399
-0.268513 0.88484 -0.269081
-0.219879 0.940696 -0.189899
-0.482559 0.775404 -0.158956
-0.558039 0.718137 -0.158502
0.171168 0.812576 -0.351994
-0.0233488 0.824657 -0.426952
0.246176 0.85396 -0.255018
0.183994 0.643918 -0.547591
0.31426 0.611711 -0.507257
0.308591 0.438572 0.733013
0.359288 0.527009 0.631841
0.294185 0.671566 0.541582
0.295646 0.386665 0.779977
0.183661 0.719177 0.540898
0.049971 0.348945 0.890615
-0.31334 0.668956 -0.505572
-0.276492 0.583166 -0.606346
-0.117267 0.76613 -0.491896
-0.359342 0.819515 -0.334423
-0.401365 0.782417 -0.348696
3 43 68 67
3 6 11 2
3 3 11 6
3 144 141 92
3 144 145 141
3 42 21 43
3 42 2 46
3 42 99 2
3 45 128 21
3 45 42 46
3 45 21 42
3 0 138 9
3 0 9 167
3 89 9 138
3 89 183 20
3 10 46 2
3 10 2 11
3 48 127 128
3 152 11 3
3 152 5 111
3 152 3 5
3 50 51 110
3 15 139 138
3 15 138 0
3 15 0 167
3 90 177 140
3 19 18 20
3 19 52 120
3 19 54 52
3 168 167 9
3 168 20 18
3 170 169 120
3 125 170 117
3 23 68 43
3 116 59 25
3 63 72 59
3 113 63 59
3 74 135 77
3 88 199 83
3 88 183 199
3 1 99 101
3 1 101 6
3 1 2 99
3 1 6 2
3 186 144 31
3 4 5 3
3 4 6 7
3 4 3 6
3 49 111 5
3 49 5 191
3 16 5 92
3 16 191 5
3 36 31 144
3 35 4 7
3 35 5 4
3 35 92 5
3 33 6 101
3 33 7 6
3 33 101 78
3 33 78 32
3 33 35 7
3 79 96 31
3 79 32 78
3 79 26 96
3 188 31 96
3 188 186 31
3 136 133 38
3 148 188 96
3 143 83 199
3 143 39 83
3 107 99 42
3 103 107 42
3 76 78 101
3 76 101 100
3 8 89 20
3 8 9 89
3 8 20 168
3 8 168 9
3 12 110 51
3 12 51 48
3 47 10 11
3 47 11 152
3 47 152 110
3 47 110 12
3 47 46 10
3 47 12 48
3 13 48 51
3 13 127 48
3 130 13 51
3 130 127 13
3 14 167 139
3 14 15 167
3 14 139 15
3 91 16 92
3 91 191 16
3 17 18 19
3 17 168 18
3 17 169 168
3 17 120 169
3 17 19 120
3 85 19 20
3 85 54 19
3 85 20 183
3 85 183 88
3 22 43 125
3 55 125 43
3 55 21 128
3 55 43 21
3 57 43 22
3 57 22 125
3 57 125 117
3 57 116 25
3 24 57 25
3 24 23 43
3 24 43 57
3 70 68 23
3 70 23 24
3 70 25 59
3 70 24 25
3 132 156 29
3 62 113 156
3 62 63 113
3 62 156 132
3 114 59 116
3 114 113 59
3 94 65 136
3 94 96 26
3 94 26 79
3 60 135 74
3 66 72 74
3 27 29 83
3 27 83 133
3 27 132 29
3 27 133 132
3 28 39 38
3 28 38 133
3 28 83 39
3 28 133 83
3 158 29 156
3 158 159 29
3 81 83 29
3 81 29 159
3 81 159 54
3 30 31 36
3 30 36 35
3 30 79 31
3 30 32 79
3 30 33 32
3 30 35 33
3 34 92 35
3 34 35 36
3 34 144 92
3 34 36 144
3 173 183 89
3 173 142 137
3 37 136 38
3 37 148 136
3 37 38 39
3 37 39 148
3 95 148 96
3 95 136 148
3 147 149 187
3 147 188 148
3 147 187 188
3 179 148 39
3 179 39 143
3 40 99 107
3 98 107 108
3 98 108 109
3 98 40 107
3 98 99 40
3 69 103 67
3 41 67 103
3 41 103 42
3 41 43 67
3 41 42 43
3 106 74 109
3 44 45 46
3 44 46 47
3 44 128 45
3 44 48 128
3 44 47 48
3 194 50 110
3 194 140 139
3 190 111 49
3 190 49 191
3 112 139 167
3 112 194 139
3 112 50 194
3 112 51 50
3 112 130 51
3 193 191 91
3 193 91 90
3 193 90 140
3 193 140 194
3 157 120 52
3 157 121 120
3 157 52 54
3 157 54 159
3 53 54 85
3 53 85 86
3 53 81 54
3 53 86 81
3 126 55 128
3 126 125 55
3 161 170 125
3 129 127 130
3 56 117 116
3 56 57 117
3 56 116 57
3 58 59 72
3 58 72 70
3 58 70 59
3 71 70 72
3 134 74 72
3 134 60 74
3 134 135 60
3 61 63 62
3 61 62 132
3 61 132 134
3 61 72 63
3 61 134 72
3 64 65 94
3 64 135 136
3 64 136 65
3 64 77 135
3 64 94 77
3 105 66 74
3 105 74 106
3 105 67 68
3 105 69 67
3 105 68 70
3 105 70 71
3 105 72 66
3 105 71 72
3 105 104 103
3 105 103 69
3 73 74 77
3 73 77 109
3 73 109 74
3 75 76 100
3 75 100 98
3 75 98 109
3 75 109 77
3 75 77 94
3 75 78 76
3 75 79 78
3 75 94 79
3 80 83 81
3 80 81 86
3 80 87 83
3 80 86 87
3 82 88 83
3 82 83 87
3 82 87 88
3 84 86 85
3 84 87 86
3 84 85 88
3 84 88 87
3 181 137 142
3 181 142 145
3 175 89 138
3 175 173 89
3 174 177 90
3 174 90 91
3 174 92 141
3 174 91 92
3 93 94 136
3 93 136 95
3 93 96 94
3 93 95 96
3 97 99 98
3 97 98 100
3 97 101 99
3 97 100 101
3 102 103 104
3 102 104 105
3 102 105 106
3 102 108 107
3 102 107 103
3 102 109 108
3 102 106 109
3 151 110 152
3 151 194 110
3 153 152 111
3 153 111 190
3 153 190 151
3 166 130 112
3 166 112 167
3 155 156 113
3 155 113 114
3 155 121 157
3 123 116 119
3 123 122 155
3 123 114 116
3 123 155 114
3 115 116 117
3 115 119 116
3 115 117 170
3 115 170 119
3 118 119 170
3 118 170 120
3 118 120 121
3 118 155 122
3 118 121 155
3 118 122 123
3 118 123 119
3 163 170 161
3 124 161 125
3 124 164 161
3 124 125 126
3 124 127 129
3 124 129 164
3 124 128 127
3 124 126 128
3 165 129 130
3 165 164 129
3 165 130 166
3 131 132 133
3 131 134 132
3 131 135 134
3 131 136 135
3 131 133 136
3 182 137 181
3 182 183 173
3 182 173 137
3 176 175 138
3 176 138 139
3 176 139 140
3 176 140 177
3 172 174 141
3 172 142 173
3 172 141 145
3 172 145 142
3 196 179 143
3 196 143 199
3 185 187 149
3 185 144 186
3 185 145 144
3 185 181 145
3 185 180 181
3 185 197 180
3 146 179 197
3 146 147 148
3 146 148 179
3 146 149 147
3 146 185 149
3 146 197 185
3 192 151 190
3 192 194 151
3 150 151 152
3 150 152 153
3 150 153 151
3 154 156 155
3 154 155 157
3 154 158 156
3 154 159 158
3 154 157 159
3 160 161 164
3 160 164 163
3 160 163 161
3 162 163 164
3 162 164 165
3 162 165 166
3 162 166 167
3 162 167 168
3 162 168 169
3 162 169 170
3 162 170 163
3 171 172 173
3 171 174 172
3 171 173 175
3 171 175 176
3 171 177 174
3 171 176 177
3 178 197 179
3 178 179 196
3 178 196 197
3 198 180 197
3 198 181 180
3 198 182 181
3 198 199 183
3 198 183 182
3 184 185 186
3 184 187 185
3 184 186 188
3 184 188 187
3 189 190 191
3 189 192 190
3 189 191 193
3 189 193 194
3 189 194 192
3 195 197 196
3 195 198 197
3 195 196 199
3 195 199 198
