ply
format ascii 1.0
element vertex 200
property float x
property float y
property float z
element face 396
property list uchar int vertex_indices
end_header
-0.861597 -0.192998 -0.0726932
-0.821876 -0.28537 -0.162365
-0.677505 -0.568013 -0.130518
-0.829889 0.318928 0.0726798
-0.692959 0.48123 0.199129
-0.688477 0.503393 0.150941
-0.76809 -0.402436 0.385757
-0.840338 0.0613398 0.367321
-0.821861 -0.426341 0.102329
0.857143 -0.0264725 0.0787308
0.607441 0.234767 0.39332
0.725919 -0.366775 0.223903
-0.823281 -0.144173 -0.367614
-0.84131 0.0612448 -0.342525
-0.505433 -0.681475 -0.191758
0.818842 -0.351215 -0.130682
0.634013 -0.554831 -0.298907
0.595533 -0.524435 -0.412657
0.651489 -0.595718 -0.146984
0.124594 -0.86134 -0.166808
0.377661 -0.712921 -0.401976
0.516039 -0.72633 -0.196594
0.482733 -0.545741 -0.536086
0.296859 -0.815718 -0.310479
-0.32522 -0.156771 0.899307
-0.0491355 -0.791107 0.550172
-0.376286 -0.497443 0.759398
-0.353345 -0.419359 0.816936
-0.478335 0.727871 -0.0975503
-0.634809 0.616974 -0.0345087
-0.166605 0.366093 0.75711
-0.241896 0.661885 0.448867
-0.381351 0.594317 0.471906
-0.645862 0.602019 -0.133094
-0.73286 0.521806 -0.0848876
-0.720792 0.526783 -0.168818
-0.835973 0.327246 -0.106164
-0.88874 0.106904 -0.180566
-0.848091 0.123436 -0.28425
-0.726953 0.0648178 0.558099
-0.213799 0.167513 0.846396
-0.396415 0.388715 0.651344
-0.557929 0.428615 0.496285
0.351443 0.642114 0.0933058
0.380101 0.595061 0.179338
0.829296 -0.328106 -0.13751
0.196962 -0.548517 -0.710604
0.233529 -0.656246 -0.601548
0.390861 -0.514868 -0.638581
0.529079 -0.457058 -0.548004
0.731452 -0.437922 -0.32065
0.611556 0.459241 0.0549878
0.759268 0.153169 0.262706
0.80087 -0.0898226 0.254495
-0.0544544 0.0436688 0.915769
0.1076 -0.553231 0.70642
-0.0169068 -0.596294 0.74224
-0.00650479 -0.75287 0.586506
-0.641357 0.0930498 -0.591269
-0.712856 -0.0890975 -0.51817
-0.357339 0.0103468 -0.776208
-0.625715 0.00517381 -0.607469
-0.4942 0.0868178 -0.708432
-0.249435 0.796784 -0.30479
0.146519 0.33614 -0.699384
-0.0538126 0.47482 -0.664103
0.0375612 -0.866627 0.15893
0.128635 -0.865093 -0.1222
0.431191 -0.776266 0.1037
-0.713378 -0.13105 0.620876
-0.22181 -0.846097 0.29536
-0.0382523 -0.87752 -0.17762
-0.0946291 -0.866877 0.407785
0.0277552 0.588259 0.502237
-0.0489589 0.238855 0.838761
0.351331 0.403019 0.495215
-0.209218 0.860578 0.0668558
-0.241263 0.746184 0.316832
-0.167593 0.794078 0.227642
-0.478663 0.654954 0.272551
-0.420643 0.762825 0.0673018
-0.740837 0.246197 -0.48822
-0.699514 0.53303 -0.220412
-0.404871 0.760666 -0.239399
-0.441223 -0.26434 0.840668
-0.445469 -0.295414 0.833934
-0.34848 -0.164666 0.894271
-0.342307 -0.075289 0.892719
-0.525626 0.0316828 0.766781
0.300529 0.674665 0.0996878
-0.117253 0.883339 -0.0546952
-0.0545466 0.836954 -0.257866
0.226807 0.746775 -0.0763061
0.369944 0.63781 0.0506698
-0.0246621 0.720069 -0.482314
0.135346 0.0538108 -0.770003
0.0575412 -0.367687 -0.804701
0.436797 -0.280818 -0.679729
0.00977021 0.284282 -0.758335
0.590157 0.00690981 -0.612997
0.680464 0.0821768 -0.490879
0.491951 0.128418 -0.688125
0.529104 -0.0511615 -0.652389
0.533898 -0.3452 -0.592224
0.582978 0.162053 -0.586126
0.452043 -0.333023 -0.663313
-0.194841 -0.585267 -0.628979
0.0514912 -0.435424 -0.793714
-0.502621 -0.556146 -0.409084
-0.30991 -0.656168 -0.492674
-0.141957 -0.669255 -0.571132
-0.0200297 -0.721691 -0.574335
0.821813 0.11561 0.101721
0.805476 0.109157 0.169457
0.857098 -0.0152402 0.0779208
0.805493 0.167697 0.109204
0.716012 0.102234 -0.426614
0.882747 -0.116661 -0.0546952
0.807671 -0.219914 -0.299115
-0.0988314 -0.350577 0.899266
-0.0771411 -0.076415 0.943071
-0.117253 -0.116661 0.945305
0.618575 -0.533078 0.261567
0.679772 -0.442487 0.264699
0.59332 -0.648695 0.0680628
0.64257 -0.584861 0.0523408
0.738543 -0.405384 0.147725
0.551273 -0.542477 0.334056
0.612508 -0.485017 0.328561
0.548108 -0.647968 0.211797
0.322353 -0.65512 0.420045
0.223184 -0.63204 0.539356
-0.451235 0.0205498 -0.730874
-0.258977 0.359562 -0.71018
-0.428844 0.473306 -0.599952
-0.169166 0.369242 -0.72131
-0.516417 -0.471612 0.658425
-0.427286 -0.580562 0.68738
-0.600309 -0.231698 0.717171
-0.630663 -0.670112 0.263802
-0.397373 -0.816664 0.173684
-0.572186 -0.743507 0.0224935
-0.532699 -0.670084 0.439018
-0.795013 -0.486331 0.159245
-0.667351 -0.525969 0.452566
0.0718192 0.620624 0.455009
-0.00252579 0.694015 0.37463
0.254061 0.375565 0.605803
0.499944 0.274108 0.488786
0.184363 0.495335 0.543059
0.18327 0.347328 0.678539
0.106789 0.579735 0.494273
0.227788 0.452761 0.559606
0.11082 0.597045 0.471816
0.235886 0.58255 0.398766
-0.481283 0.479185 -0.562044
-0.173831 0.694852 -0.502426
-0.432339 0.487202 -0.583676
-0.571076 0.454759 -0.523977
-0.549838 0.520151 -0.463042
-0.611315 0.521974 -0.393851
-0.733525 0.277542 -0.479763
-0.656357 0.504976 -0.357664
-0.752287 0.354945 -0.378788
-0.44413 0.254023 -0.677208
-0.524301 0.180363 -0.660764
-0.342464 0.212882 -0.744437
-0.508161 0.45497 -0.572875
0.463333 0.509775 -0.358251
0.250913 0.692984 -0.280142
0.416594 0.492679 -0.430742
0.629096 0.176153 -0.516229
0.465321 0.221378 -0.666827
0.750355 0.244084 -0.0547022
0.819117 0.141155 0.0364249
0.786716 0.0703598 -0.284441
0.748389 0.276777 0.0952898
0.403384 -0.000129186 0.648103
0.21457 0.154912 0.772447
0.458165 -0.0131832 0.603098
0.19403 -0.360346 0.790333
-0.0721962 -0.174405 0.94092
0.153065 -0.379889 0.808863
0.276918 -0.088877 0.75313
0.403049 -0.0970762 0.663171
0.607864 -0.187782 0.497139
0.431269 -0.484214 0.507469
-0.527128 -0.304148 -0.60574
-0.278611 -0.542325 -0.638406
-0.24473 -0.269949 -0.777603
-0.477502 -0.274162 -0.646409
-0.624364 -0.245802 -0.567632
0.567467 0.512925 -0.0179622
0.574982 0.506204 -0.00225727
0.637422 0.405111 -0.132436
0.628706 0.392193 -0.233139
0.620233 0.424491 -0.161544
0.542362 0.469144 -0.28796
0.678221 0.332684 -0.190684
0.651928 0.216418 -0.443722
3 68 124 129
3 3 37 7
3 126 117 53
3 185 53 52
3 0 7 37
3 12 0 37
3 12 1 0
3 21 124 68
3 57 68 129
3 31 30 73
3 63 83 90
3 36 37 3
3 36 3 34
3 123 53 185
3 8 0 1
3 8 7 0
3 2 141 143
3 2 14 141
3 2 143 8
3 2 108 14
3 2 8 1
3 2 1 12
3 13 12 37
3 81 12 13
3 191 108 2
3 191 2 12
3 98 96 60
3 17 22 50
3 17 21 22
3 23 21 68
3 23 19 71
3 23 71 111
3 23 111 47
3 29 34 5
3 29 33 34
3 4 3 7
3 4 7 42
3 4 34 3
3 4 5 34
3 151 30 74
3 151 73 30
3 79 4 42
3 79 5 4
3 79 80 29
3 79 29 5
3 82 33 83
3 39 42 7
3 39 7 69
3 6 69 7
3 6 7 8
3 6 8 143
3 6 143 144
3 6 144 69
3 40 30 41
3 40 74 30
3 44 154 148
3 44 148 51
3 44 89 154
3 44 51 193
3 10 51 148
3 10 52 51
3 91 63 90
3 91 94 63
3 48 22 47
3 49 50 22
3 49 22 48
3 9 53 117
3 9 117 114
3 9 114 53
3 179 10 148
3 179 185 52
3 179 52 10
3 54 178 74
3 54 74 40
3 54 40 87
3 119 56 182
3 119 27 56
3 119 121 86
3 11 126 53
3 11 53 123
3 11 123 126
3 59 12 81
3 59 61 191
3 59 191 12
3 38 13 37
3 38 81 13
3 109 14 108
3 109 110 111
3 109 141 14
3 109 71 141
3 109 111 71
3 166 98 60
3 166 60 62
3 95 96 98
3 45 15 50
3 45 117 126
3 45 126 15
3 125 15 126
3 18 124 21
3 18 125 124
3 18 15 125
3 18 50 15
3 16 17 50
3 16 21 17
3 16 50 18
3 16 18 21
3 67 23 68
3 67 19 23
3 67 71 19
3 20 22 21
3 20 21 23
3 20 47 22
3 20 23 47
3 24 121 87
3 24 86 121
3 24 87 86
3 85 137 27
3 85 27 119
3 85 119 86
3 25 68 57
3 25 72 68
3 25 137 72
3 25 57 56
3 25 56 137
3 140 141 71
3 26 56 27
3 26 137 56
3 26 27 137
3 28 83 33
3 28 33 29
3 28 80 83
3 28 29 80
3 146 31 73
3 146 154 89
3 146 90 78
3 146 89 90
3 32 79 42
3 32 42 41
3 32 30 31
3 32 41 30
3 77 31 146
3 77 146 78
3 77 32 31
3 77 79 32
3 159 160 83
3 35 34 33
3 35 33 82
3 35 36 34
3 163 35 82
3 163 36 35
3 163 37 36
3 163 161 81
3 163 38 37
3 163 81 38
3 88 39 69
3 88 87 40
3 88 40 41
3 88 41 42
3 88 42 39
3 43 44 193
3 43 89 44
3 43 193 93
3 43 93 89
3 169 94 91
3 97 102 105
3 97 107 96
3 97 105 107
3 118 45 50
3 118 117 45
3 106 107 111
3 189 60 96
3 189 96 107
3 46 48 47
3 46 47 111
3 46 111 107
3 46 107 105
3 46 105 48
3 103 48 105
3 103 49 48
3 103 50 49
3 103 118 50
3 176 51 52
3 176 52 115
3 176 193 51
3 113 115 52
3 113 52 53
3 113 53 114
3 116 118 100
3 174 114 117
3 174 176 115
3 177 148 178
3 177 179 148
3 120 87 121
3 120 54 87
3 120 178 54
3 130 57 129
3 130 131 57
3 55 182 56
3 55 56 57
3 55 57 131
3 55 186 182
3 55 131 186
3 128 123 185
3 128 185 186
3 58 62 61
3 58 81 62
3 58 61 59
3 58 59 81
3 132 62 60
3 132 60 189
3 132 191 61
3 132 61 62
3 165 62 81
3 165 166 62
3 156 94 65
3 156 134 157
3 156 63 94
3 156 83 63
3 156 159 83
3 135 98 166
3 135 65 98
3 135 156 65
3 64 172 98
3 64 98 65
3 64 94 172
3 64 65 94
3 66 72 71
3 66 71 67
3 66 68 72
3 66 67 68
3 138 137 85
3 138 69 144
3 138 88 69
3 70 71 72
3 70 140 71
3 70 72 140
3 142 72 137
3 142 140 72
3 142 137 144
3 145 73 151
3 145 146 73
3 150 178 148
3 150 74 178
3 150 151 74
3 75 148 154
3 75 152 148
3 75 154 152
3 76 77 78
3 76 78 90
3 76 80 79
3 76 79 77
3 76 90 83
3 76 83 80
3 167 157 134
3 167 81 161
3 167 165 81
3 167 134 166
3 162 163 82
3 162 83 160
3 162 82 83
3 84 85 86
3 84 86 87
3 84 87 88
3 84 138 85
3 84 88 138
3 92 89 93
3 92 90 89
3 92 91 90
3 92 169 91
3 192 197 169
3 192 169 92
3 192 93 193
3 192 92 93
3 170 172 94
3 170 94 169
3 171 104 172
3 171 199 116
3 171 100 104
3 171 116 100
3 101 172 104
3 101 96 95
3 101 97 96
3 101 102 97
3 101 98 172
3 101 95 98
3 99 100 118
3 99 102 101
3 99 118 103
3 99 104 100
3 99 101 104
3 99 105 102
3 99 103 105
3 188 107 106
3 188 189 107
3 188 108 191
3 188 109 108
3 188 110 109
3 188 111 110
3 188 106 111
3 112 113 114
3 112 115 113
3 112 114 174
3 112 174 115
3 175 116 199
3 175 174 117
3 175 117 118
3 175 118 116
3 198 175 199
3 183 178 120
3 181 119 182
3 181 183 120
3 181 121 119
3 181 120 121
3 122 128 129
3 122 123 128
3 122 129 124
3 122 124 125
3 122 126 123
3 122 125 126
3 127 129 128
3 127 128 186
3 127 130 129
3 127 186 131
3 127 131 130
3 190 191 132
3 190 132 189
3 133 166 134
3 133 135 166
3 133 134 156
3 133 156 135
3 136 144 137
3 136 138 144
3 136 137 138
3 139 141 140
3 139 140 142
3 139 143 141
3 139 144 143
3 139 142 144
3 153 145 151
3 153 154 146
3 153 146 145
3 147 148 152
3 147 150 148
3 147 152 150
3 149 151 150
3 149 150 152
3 149 153 151
3 149 152 154
3 149 154 153
3 155 159 156
3 155 167 159
3 155 156 157
3 155 157 167
3 158 160 159
3 158 159 167
3 158 167 161
3 158 162 160
3 158 161 163
3 158 163 162
3 164 166 165
3 164 167 166
3 164 165 167
3 168 169 197
3 168 170 169
3 168 197 199
3 168 199 171
3 168 172 170
3 168 171 172
3 173 176 174
3 173 198 176
3 173 174 175
3 173 175 198
3 194 193 176
3 194 176 198
3 184 177 178
3 184 178 183
3 184 185 179
3 184 179 177
3 180 181 182
3 180 183 181
3 180 184 183
3 180 185 184
3 180 186 185
3 180 182 186
3 187 189 188
3 187 190 189
3 187 188 191
3 187 191 190
3 196 192 193
3 196 193 194
3 196 197 192
3 196 194 198
3 195 197 196
3 195 196 198
3 195 199 197
3 195 198 199
