ply
format ascii 1.0
element vertex 200
property float x
property float y
property float z
element face 396
property list uchar int vertex_indices
end_header
-0.556461 0.353217 0.49985
0.968529 -0.098373 0.0732808
0.878066 -0.192208 0.276706
0.853419 0.0942503 0.324332
0.881413 0.175353 0.168182
0.72933 0.407418 0.219377
0.95264 -0.0429938 0.149551
0.890444 0.196013 0.107849
-0.655768 0.396675 0.270217
-0.643569 0.380055 0.331578
0.58837 -0.263487 0.570187
0.812597 0.0387643 0.408988
0.265246 -0.0846656 0.856827
-0.0536068 -0.110308 0.936963
-0.530795 0.219177 0.620213
-0.457857 0.389294 0.552302
0.582994 0.52157 0.240284
-0.740651 -0.0381896 0.230521
-0.748539 0.0482462 0.171514
-0.779549 0.011999 -0.0204151
-0.786229 0.254875 -0.0921993
0.31783 -0.596815 0.564549
-0.251677 -0.669313 0.443796
-0.0243646 -0.816709 0.034948
-0.197365 -0.778376 0.0597678
-0.386935 -0.716521 0.120017
0.655173 0.0518703 -0.599527
-0.385978 -0.0885794 -0.648128
-0.206879 0.131279 -0.753691
-0.499663 -0.15678 -0.566162
0.747391 0.401146 -0.279555
0.590632 0.526123 -0.357585
0.866048 0.21041 -0.257513
0.969492 0.0792883 -0.10189
0.442797 0.690298 -0.019973
0.796173 0.383259 0.0776408
0.532745 0.612916 -0.0990434
0.0850368 0.270549 -0.797831
0.0262689 0.175697 -0.80306
-0.192117 0.356207 -0.788401
0.797061 -0.470819 -0.0594793
0.368999 -0.729759 0.208478
0.426278 -0.605175 0.471352
0.0982636 -0.763185 0.412584
0.384851 -0.305404 0.740025
0.402624 -0.477868 0.622392
0.476146 -0.412981 0.617871
0.410228 -0.228114 0.75088
0.0904086 -0.167312 0.917503
0.510573 0.442149 0.448357
0.01164 0.216609 0.864171
-0.0123944 -0.0507837 0.941224
-0.709372 -0.263421 -0.116396
-0.704688 -0.00615381 -0.280521
-0.699055 -0.156209 -0.240152
0.0569347 -0.655178 0.583699
-0.485806 -0.639062 0.164657
-0.400603 -0.711526 0.146538
-0.154547 -0.719733 -0.256532
-0.35607 -0.68131 -0.204006
0.287835 -0.529037 -0.606276
-0.151675 -0.538062 -0.546055
-0.435915 -0.485025 -0.402285
-0.167366 -0.599527 -0.468492
0.463866 -0.259764 -0.705011
0.512331 -0.0791975 -0.710161
0.239772 -0.721278 -0.393181
0.270171 -0.793215 0.0844448
0.18213 -0.828656 -0.0445457
0.402136 -0.768075 -0.0512309
-0.164612 -0.784926 -0.0821388
-0.00750717 -0.765741 -0.200851
0.0145269 -0.675376 -0.477858
0.454932 -0.621326 -0.478516
0.41076 -0.668521 -0.471981
0.877899 -0.19782 -0.389628
0.924535 -0.162229 -0.277045
0.542683 -0.300176 -0.658671
0.914485 0.0605313 -0.313796
0.742316 0.258463 -0.47938
-0.545938 0.313166 -0.564713
-0.565386 0.0298686 -0.540635
-0.552491 0.40313 -0.517199
-0.380242 0.333765 -0.747935
-0.724865 0.322329 -0.340034
-0.766949 0.285264 -0.235762
-0.693638 0.2873 -0.398076
-0.652398 0.372906 -0.432423
-0.596299 0.605419 -0.320014
-0.637713 0.530598 0.120795
0.0256314 0.773022 0.390759
0.16639 0.794835 0.313369
0.225676 0.866488 0.0832288
0.458949 0.0656543 -0.708082
0.610133 -0.100324 -0.671149
0.328815 0.0772643 -0.769583
0.466099 0.354615 -0.62185
0.878237 -0.360721 -0.183484
0.840927 -0.435134 -0.195577
0.896253 -0.334983 0.0684808
0.880906 -0.334704 -0.221453
0.987606 -0.0507837 -0.0587762
0.552284 -0.697809 -0.236013
0.494962 -0.738413 -0.068388
0.375328 -0.780374 -0.102576
0.267368 -0.820512 -0.105312
0.513733 -0.703514 -0.277465
0.719729 -0.570397 -0.135127
0.679983 -0.598166 -0.187972
0.634382 -0.563216 -0.398333
0.320744 0.0445342 0.822966
0.564402 0.401291 0.437595
-0.335749 0.0339089 0.841471
-0.487955 -0.581464 -0.25022
-0.462238 -0.626675 -0.184925
-0.562081 -0.536744 0.310427
-0.49984 -0.649764 0.0561068
-0.513345 -0.553071 0.447894
-0.665556 -0.451212 0.0592928
-0.583676 -0.529124 0.241454
-0.733778 -0.285793 0.0661008
-0.667161 -0.429942 0.0123643
-0.567664 -0.576366 0.00552973
-0.534228 -0.617274 0.0347513
-0.293554 -0.477916 0.722679
-0.315203 -0.609808 0.60269
-0.104679 -0.565612 0.684018
-0.163893 -0.260086 0.887198
0.0149815 -0.368841 0.850327
-0.464473 -0.274565 0.694956
-0.275939 -0.0831982 0.876277
0.0624681 -0.338869 -0.710732
-0.392748 -0.326691 -0.555018
-0.0282307 -0.189953 -0.740064
0.0938506 -0.529102 -0.642816
0.425765 -0.326356 -0.703725
0.31939 0.0538843 -0.780654
-0.283003 0.870296 -0.038217
-0.446813 0.599035 0.398459
-0.339076 0.357118 0.657002
0.0150432 0.456754 0.705848
-0.0123944 0.949216 -0.0587762
-0.157258 0.929759 -0.132961
-0.310806 0.430416 -0.729803
0.2138 0.865935 -0.220454
-0.108796 0.936692 -0.122555
0.00067304 0.5263 -0.696656
0.133089 0.482631 -0.712893
0.133572 0.436747 -0.746559
0.134401 0.545758 -0.659813
0.547351 0.196689 0.606549
0.360867 0.201606 0.757168
0.68468 0.150031 0.525042
0.568884 0.329447 0.496037
-0.619823 -0.411493 -0.233018
-0.598503 -0.523034 -0.120964
-0.525747 -0.459916 -0.347045
-0.659357 -0.363779 -0.1898
-0.571294 -0.284575 -0.401006
-0.589722 -0.258725 -0.387095
-0.556893 -0.305638 0.615042
-0.505048 -0.378613 0.618759
-0.629228 -0.064058 0.627782
-0.566928 -0.295471 0.611802
-0.527865 -0.293712 0.646211
-0.49943 -0.261947 0.676662
-0.513813 0.00940849 0.731551
-0.589676 0.141556 0.632807
-0.697802 0.16996 0.392533
-0.683416 -0.238887 0.439145
-0.600623 -0.432583 0.479326
-0.208194 0.809786 0.24157
-0.0776202 0.945554 -0.0785925
-0.348257 0.828975 0.0759738
0.0165489 0.870707 0.210422
-0.439687 0.698515 0.261869
-0.1878 0.719412 0.425855
-0.11082 0.738526 0.421428
-0.156887 0.595472 -0.635753
-0.0216708 0.467539 -0.742175
-0.280907 0.834056 -0.327857
-0.232273 0.889912 -0.248675
-0.494953 0.72462 -0.217732
-0.570433 0.667353 -0.217278
0.158774 0.761792 -0.41077
-0.0357432 0.773873 -0.485728
0.233782 0.803176 -0.313794
0.1716 0.593134 -0.606367
0.301866 0.560927 -0.566033
0.296197 0.387788 0.674237
0.346894 0.476225 0.573065
0.281791 0.620782 0.482806
0.283252 0.335881 0.721201
0.171267 0.668393 0.482122
0.0375766 0.298161 0.831839
-0.325734 0.618172 -0.564348
-0.288886 0.532382 -0.665122
-0.129661 0.715346 -0.550672
-0.371736 0.768731 -0.393199
-0.413759 0.731633 -0.407472
3 43 68 67
3 6 11 2
3 3 11 6
3 144 141 92
3 144 145 141
3 42 21 43
3 42 2 46
3 42 99 2
3 45 128 21
3 45 42 46
3 45 21 42
3 0 138 9
3 0 9 167
3 89 9 138
3 89 183 20
3 10 46 2
3 10 2 11
3 48 127 128
3 152 11 3
3 152 5 111
3 152 3 5
3 50 51 110
3 15 139 138
3 15 138 0
3 15 0 167
3 90 177 140
3 19 18 20
3 19 52 120
3 19 54 52
3 168 167 9
3 168 20 18
3 170 169 120
3 125 170 117
3 23 68 43
3 116 59 25
3 63 72 59
3 113 63 59
3 74 135 77
3 88 199 83
3 88 183 199
3 1 99 101
3 1 101 6
3 1 2 99
3 1 6 2
3 186 144 31
3 4 5 3
3 4 6 7
3 4 3 6
3 49 111 5
3 49 5 191
3 16 5 92
3 16 191 5
3 36 31 144
3 35 4 7
3 35 5 4
3 35 92 5
3 33 6 101
3 33 7 6
3 33 101 78
3 33 78 32
3 33 35 7
3 79 96 31
3 79 32 78
3 79 26 96
3 188 31 96
3 188 186 31
3 136 133 38
3 148 188 96
3 143 83 199
3 143 39 83
3 107 99 42
3 103 107 42
3 76 78 101
3 76 101 100
3 8 89 20
3 8 9 89
3 8 20 168
3 8 168 9
3 12 110 51
3 12 51 48
3 47 10 11
3 47 11 152
3 47 152 110
3 47 110 12
3 47 46 10
3 47 12 48
3 13 48 51
3 13 127 48
3 130 13 51
3 130 127 13
3 14 167 139
3 14 15 167
3 14 139 15
3 91 16 92
3 91 191 16
3 17 18 19
3 17 168 18
3 17 169 168
3 17 120 169
3 17 19 120
3 85 19 20
3 85 54 19
3 85 20 183
3 85 183 88
3 22 43 125
3 55 125 43
3 55 21 128
3 55 43 21
3 57 43 22
3 57 22 125
3 57 125 117
3 57 116 25
3 24 57 25
3 24 23 43
3 24 43 57
3 70 68 23
3 70 23 24
3 70 25 59
3 70 24 25
3 132 156 29
3 62 113 156
3 62 63 113
3 62 156 132
3 114 59 116
3 114 113 59
3 94 65 136
3 94 96 26
3 94 26 79
3 60 135 74
3 66 72 74
3 27 29 83
3 27 83 133
3 27 132 29
3 27 133 132
3 28 39 38
3 28 38 133
3 28 83 39
3 28 133 83
3 158 29 156
3 158 159 29
3 81 83 29
3 81 29 159
3 81 159 54
3 30 31 36
3 30 36 35
3 30 79 31
3 30 32 79
3 30 33 32
3 30 35 33
3 34 92 35
3 34 35 36
3 34 144 92
3 34 36 144
3 173 183 89
3 173 142 137
3 37 136 38
3 37 148 136
3 37 38 39
3 37 39 148
3 95 148 96
3 95 136 148
3 147 149 187
3 147 188 148
3 147 187 188
3 179 148 39
3 179 39 143
3 40 99 107
3 98 107 108
3 98 108 109
3 98 40 107
3 98 99 40
3 69 103 67
3 41 67 103
3 41 103 42
3 41 43 67
3 41 42 43
3 106 74 109
3 44 45 46
3 44 46 47
3 44 128 45
3 44 48 128
3 44 47 48
3 194 50 110
3 194 140 139
3 190 111 49
3 190 49 191
3 112 139 167
3 112 194 139
3 112 50 194
3 112 51 50
3 112 130 51
3 193 191 91
3 193 91 90
3 193 90 140
3 193 140 194
3 157 120 52
3 157 121 120
3 157 52 54
3 157 54 159
3 53 54 85
3 53 85 86
3 53 81 54
3 53 86 81
3 126 55 128
3 126 125 55
3 161 170 125
3 129 127 130
3 56 117 116
3 56 57 117
3 56 116 57
3 58 59 72
3 58 72 70
3 58 70 59
3 71 70 72
3 134 74 72
3 134 60 74
3 134 135 60
3 61 63 62
3 61 62 132
3 61 132 134
3 61 72 63
3 61 134 72
3 64 65 94
3 64 135 136
3 64 136 65
3 64 77 135
3 64 94 77
3 105 66 74
3 105 74 106
3 105 67 68
3 105 69 67
3 105 68 70
3 105 70 71
3 105 72 66
3 105 71 72
3 105 104 103
3 105 103 69
3 73 74 77
3 73 77 109
3 73 109 74
3 75 76 100
3 75 100 98
3 75 98 109
3 75 109 77
3 75 77 94
3 75 78 76
3 75 79 78
3 75 94 79
3 80 83 81
3 80 81 86
3 80 87 83
3 80 86 87
3 82 88 83
3 82 83 87
3 82 87 88
3 84 86 85
3 84 87 86
3 84 85 88
3 84 88 87
3 181 137 142
3 181 142 145
3 175 89 138
3 175 173 89
3 174 177 90
3 174 90 91
3 174 92 141
3 174 91 92
3 93 94 136
3 93 136 95
3 93 96 94
3 93 95 96
3 97 99 98
3 97 98 100
3 97 101 99
3 97 100 101
3 102 103 104
3 102 104 105
3 102 105 106
3 102 108 107
3 102 107 103
3 102 109 108
3 102 106 109
3 151 110 152
3 151 194 110
3 153 152 111
3 153 111 190
3 153 190 151
3 166 130 112
3 166 112 167
3 155 156 113
3 155 113 114
3 155 121 157
3 123 116 119
3 123 122 155
3 123 114 116
3 123 155 114
3 115 116 117
3 115 119 116
3 115 117 170
3 115 170 119
3 118 119 170
3 118 170 120
3 118 120 121
3 118 155 122
3 118 121 155
3 118 122 123
3 118 123 119
3 163 170 161
3 124 161 125
3 124 164 161
3 124 125 126
3 124 127 129
3 124 129 164
3 124 128 127
3 124 126 128
3 165 129 130
3 165 164 129
3 165 130 166
3 131 132 133
3 131 134 132
3 131 135 134
3 131 136 135
3 131 133 136
3 182 137 181
3 182 183 173
3 182 173 137
3 176 175 138
3 176 138 139
3 176 139 140
3 176 140 177
3 172 174 141
3 172 142 173
3 172 141 145
3 172 145 142
3 196 179 143
3 196 143 199
3 185 187 149
3 185 144 186
3 185 145 144
3 185 181 145
3 185 180 181
3 185 197 180
3 146 179 197
3 146 147 148
3 146 148 179
3 146 149 147
3 146 185 149
3 146 197 185
3 192 151 190
3 192 194 151
3 150 151 152
3 150 152 153
3 150 153 151
3 154 156 155
3 154 155 157
3 154 158 156
3 154 159 158
3 154 157 159
3 160 161 164
3 160 164 163
3 160 163 161
3 162 163 164
3 162 164 165
3 162 165 166
3 162 166 167
3 162 167 168
3 162 168 169
3 162 169 170
3 162 170 163
3 171 172 173
3 171 174 172
3 171 173 175
3 171 175 176
3 171 177 174
3 171 176 177
3 178 197 179
3 178 179 196
3 178 196 197
3 198 180 197
3 198 181 180
3 198 182 181
3 198 199 183
3 198 183 182
3 184 185 186
3 184 187 185
3 184 186 188
3 184 188 187
3 189 190 191
3 189 192 190
3 189 191 193
3 189 193 194
3 189 194 192
3 195 197 196
3 195 198 197
3 195 196 199
3 195 199 198
