ply
format ascii 1.0
element vertex 200
property float x
property float y
property float z
element face 396
property list uchar int vertex_indices
end_header
-0.675737 0.018747 0.496745
-0.644154 -0.187658 0.582858
-0.502867 0.388605 0.406661
-0.409409 0.383877 0.493349
-0.553185 0.257005 0.493962
-0.555474 0.371818 0.368953
-0.239223 0.430642 0.554031
-0.395915 0.707248 0.083689
-0.227115 0.779199 0.104507
-0.481059 0.633155 0.163421
-0.267359 0.474323 0.500859
-0.160227 0.490395 0.527805
0.0774716 -0.64255 0.61388
-0.690887 -0.424476 0.42372
-0.603381 -0.358101 0.570981
-0.727716 -0.323071 0.431874
-0.795813 -0.233916 0.265526
-0.666314 -0.160301 -0.568821
-0.730816 -0.140451 -0.47094
-0.500925 -0.735044 -0.0139394
-0.325205 -0.757343 0.313765
-0.406674 -0.782738 0.00647603
-0.514295 -0.703617 0.110939
-0.500808 -0.673027 0.217311
-0.588413 -0.510633 0.466467
-0.365808 -0.795422 -0.0114601
-0.854672 -0.000499048 0.017464
-0.806646 0.138753 0.00735303
-0.522277 -0.326167 0.646873
-0.319636 -0.652026 0.568126
-0.369763 -0.0831148 0.775946
-0.417895 0.050171 0.724976
-0.537248 0.020053 0.655464
-0.552788 -0.177558 0.661707
-0.350463 -0.163454 0.794884
-0.0463762 0.481631 0.53752
-0.173842 0.629014 0.385537
0.315282 0.578063 -0.528879
0.438548 0.606441 -0.394391
-0.711917 0.104636 -0.557501
-0.0813327 0.854944 -0.175115
-0.349581 0.757929 -0.0645318
0.935535 -0.036638 -0.0185546
0.545985 0.504019 0.133273
0.660363 0.413097 -0.120579
0.636128 0.421348 -0.261694
0.560275 0.536581 -0.220707
0.169914 -0.752568 0.460056
-0.0929283 -0.51368 0.726864
-0.231225 -0.489548 0.707015
-0.0107944 -0.564563 0.697239
-0.0848893 -0.574977 0.688291
-0.272462 -0.601095 0.6248
-0.843595 -0.0987668 0.139997
-0.853371 -0.0526571 0.079451
-0.772968 -0.0493952 0.359436
-0.812918 -0.171672 0.274121
-0.859337 -0.168421 -0.0433899
-0.58053 -0.669144 -0.0768824
-0.640194 -0.544159 0.173071
-0.728101 -0.416114 -0.0934176
-0.605082 -0.599167 0.164079
-0.551237 -0.696981 -0.0720215
-0.531573 -0.709994 -0.0110421
0.843521 -0.297774 0.207607
0.83972 -0.321412 0.173772
0.871595 -0.196237 0.1757
-0.596555 -0.424826 -0.489584
-0.474492 -0.626893 -0.348143
0.589355 -0.23218 -0.683325
0.391024 -0.623025 -0.626121
0.6034 -0.516818 -0.523304
-0.131022 0.219919 -0.879962
0.280126 -0.022834 -0.815855
0.352853 0.316797 -0.706778
0.0603106 -0.768291 -0.524988
0.661346 -0.629293 -0.379754
0.754305 -0.56733 -0.0163411
0.870431 -0.3893 -0.222032
0.1641 0.823433 -0.157646
0.0609246 0.821755 -0.265449
-0.730238 0.388336 -0.103851
-0.619513 0.496707 0.160352
-0.289241 0.217221 0.704926
-0.246219 0.3538 0.617312
-0.421497 0.152951 0.686342
-0.210697 0.184795 0.74162
-0.321279 0.077106 0.755756
0.0251356 0.246486 0.738223
0.43682 0.655493 -0.138538
0.44524 0.659648 -0.0577355
0.249438 0.773731 -0.278055
0.481903 0.59722 -0.269199
-0.120501 0.529993 -0.729896
-0.150185 0.54884 -0.709718
-0.067558 0.45927 -0.794086
-0.634706 0.355087 -0.533886
-0.506666 0.248732 -0.730084
-0.434063 0.213967 -0.797429
-0.392867 0.246936 -0.802327
-0.0472304 0.037229 -0.887505
-0.253179 0.723349 -0.440698
-0.0967734 0.64183 -0.611674
-0.00393848 0.77692 -0.411198
-0.31618 0.710839 -0.424013
-0.237553 0.791014 -0.274353
0.461282 -0.627972 0.446532
0.38194 -0.586812 0.532223
0.456935 -0.642803 0.438457
0.390611 -0.657087 0.475525
0.591454 -0.45992 0.47372
0.644015 -0.664025 0.127948
0.696985 -0.449764 0.352887
0.547383 -0.637676 0.344619
0.7032 -0.569594 0.161226
0.517743 -0.651681 0.366901
0.707348 -0.642045 -0.0332493
-0.36973 -0.599852 -0.518665
-0.00721308 -0.733005 -0.576555
-0.38749 -0.790985 -0.128442
0.240696 -0.862839 0.00216203
0.474172 -0.779462 0.182538
0.566977 -0.729715 -0.378374
0.313973 -0.794504 -0.375606
0.0931866 -0.871013 0.131582
0.119603 -0.791578 -0.473328
0.345144 -0.0685985 -0.792367
0.274989 -0.277477 -0.777916
0.640997 -0.0835369 -0.69479
0.482229 0.304843 -0.618558
0.638294 0.327112 -0.410721
0.789366 0.173419 -0.304296
0.470779 0.394702 -0.56823
0.880326 -0.173176 -0.361951
0.860713 -0.0538823 -0.380852
0.952633 -0.139708 -0.103258
0.855206 -0.171372 -0.399708
0.842163 -0.318504 -0.375126
0.761662 0.00757195 -0.544184
0.859478 -0.411898 -0.253567
-0.108335 0.774157 0.172341
-0.0473674 0.860292 -0.103258
-0.19086 0.681899 0.324169
-0.611382 0.540385 -0.123253
-0.571762 0.577072 0.036097
-0.530683 0.626345 0.036777
-0.714995 0.426733 -0.324276
-0.0473674 -0.139708 0.896742
0.259367 -0.345712 0.739528
-0.427742 0.503975 -0.633828
-0.244533 0.350986 -0.823438
-0.33464 0.501646 -0.67998
-0.481758 0.392991 -0.676368
-0.536586 0.449536 -0.567677
-0.251211 0.551467 -0.683772
-0.297701 0.633853 -0.567762
-0.497901 0.624696 -0.366706
-0.622257 0.521385 -0.357744
-0.343262 -0.110317 -0.805433
-0.368638 0.138683 -0.853988
-0.625481 -0.200843 -0.611879
0.268544 0.751312 0.06555
0.13285 0.783554 0.125974
0.245606 0.675982 0.273642
0.502421 0.616538 -0.0293046
0.2793 0.756846 0.010519
0.0511566 0.85122 -0.0865569
0.357187 0.375826 0.524009
0.268799 0.028125 0.783409
0.2052 -0.0745199 0.824438
0.213139 0.147159 0.761793
0.266157 0.276217 0.663138
0.276167 0.062333 0.773903
0.150351 0.298851 0.696097
0.134112 0.245892 0.728002
0.152669 0.092546 0.79396
-0.09964 -0.473233 -0.745382
-0.338271 -0.42753 -0.652756
-0.23975 -0.18467 -0.826958
0.0638396 -0.559148 -0.712935
-0.100993 -0.651834 -0.645343
-0.365361 -0.507036 -0.595524
0.0805606 -0.01082 -0.884409
-0.168029 -0.658425 -0.608625
0.306901 -0.604576 -0.692645
0.664654 0.00935595 0.444868
0.847763 -0.154309 0.242035
0.798734 -0.316433 0.296526
0.330835 0.015329 0.759625
0.654727 -0.380855 0.445954
0.91387 0.00266795 0.073295
0.750158 0.301763 0.070125
0.561364 0.413886 0.250417
0.379371 0.527023 0.365667
0.435308 0.382457 0.451411
0.628951 0.209097 0.387531
0.706659 0.082105 0.368857
0.366631 0.087255 0.723088
0.630392 0.234999 0.36673
0.561305 0.304196 0.391463
3 119 124 25
3 156 145 41
3 82 9 145
3 55 82 27
3 55 15 1
3 32 85 4
3 3 10 9
3 3 4 85
3 3 85 10
3 84 10 85
3 84 88 11
3 35 11 88
3 35 88 173
3 8 141 41
3 8 140 141
3 142 140 8
3 142 9 10
3 142 8 9
3 154 150 151
3 154 95 150
3 50 148 147
3 61 22 24
3 61 63 22
3 14 1 15
3 14 24 29
3 14 29 28
3 18 67 57
3 18 160 67
3 18 57 39
3 60 57 67
3 23 24 22
3 78 135 65
3 21 119 25
3 62 68 119
3 40 41 141
3 5 82 4
3 5 9 82
3 146 96 39
3 49 34 28
3 49 147 34
3 0 55 1
3 0 1 32
3 0 32 4
3 0 4 82
3 0 82 55
3 33 32 1
3 33 28 34
3 33 1 14
3 33 14 28
3 31 85 32
3 87 85 31
3 174 173 88
3 2 4 3
3 2 3 9
3 2 5 4
3 2 9 5
3 6 11 10
3 6 84 11
3 6 10 84
3 7 9 8
3 7 8 41
3 7 145 9
3 7 41 145
3 36 10 11
3 36 142 10
3 36 11 35
3 38 130 132
3 72 150 95
3 94 95 154
3 191 42 131
3 45 131 130
3 45 38 46
3 45 130 38
3 107 110 148
3 12 47 109
3 12 50 51
3 12 109 107
3 12 29 47
3 12 51 29
3 12 148 50
3 12 107 148
3 56 15 55
3 56 16 15
3 56 57 16
3 13 24 14
3 13 14 15
3 13 61 24
3 13 59 61
3 13 15 16
3 13 16 57
3 13 57 60
3 13 60 59
3 17 39 160
3 17 160 18
3 17 18 39
3 181 67 160
3 184 180 179
3 184 70 122
3 73 74 128
3 134 42 135
3 134 131 42
3 129 74 132
3 129 128 74
3 76 70 71
3 76 122 70
3 76 71 137
3 76 116 122
3 19 119 21
3 19 63 62
3 19 62 119
3 19 22 63
3 19 21 22
3 20 22 21
3 20 23 22
3 20 29 24
3 20 24 23
3 20 124 47
3 20 47 29
3 20 25 124
3 20 21 25
3 166 40 141
3 80 91 103
3 80 103 40
3 80 40 166
3 81 27 82
3 157 153 96
3 157 96 146
3 157 145 156
3 26 55 27
3 26 54 55
3 26 27 81
3 26 81 146
3 26 57 54
3 26 39 57
3 26 146 39
3 52 28 29
3 52 49 28
3 52 29 51
3 30 31 32
3 30 33 34
3 30 32 33
3 30 87 31
3 30 34 147
3 30 147 87
3 86 88 84
3 86 147 88
3 86 87 147
3 163 173 193
3 163 35 173
3 163 36 35
3 163 142 36
3 92 46 38
3 92 38 91
3 102 94 154
3 37 103 91
3 37 91 38
3 37 102 103
3 37 95 102
3 37 74 95
3 37 132 74
3 37 38 132
3 97 39 96
3 97 98 39
3 159 160 39
3 159 39 98
3 159 72 100
3 159 150 72
3 159 99 150
3 159 98 99
3 105 40 103
3 105 41 40
3 105 156 41
3 105 104 156
3 155 156 104
3 155 102 154
3 192 43 193
3 192 191 43
3 190 42 191
3 190 186 66
3 190 135 42
3 190 66 135
3 164 46 92
3 164 43 191
3 164 193 43
3 164 163 193
3 44 191 131
3 44 131 45
3 44 45 46
3 44 46 164
3 44 164 191
3 121 122 116
3 121 47 124
3 121 109 47
3 48 147 49
3 48 50 147
3 48 51 50
3 48 49 52
3 48 52 51
3 53 55 54
3 53 56 55
3 53 54 57
3 53 57 56
3 58 59 60
3 58 60 67
3 58 61 59
3 58 67 68
3 58 68 62
3 58 63 61
3 58 62 63
3 77 65 114
3 77 114 116
3 77 78 65
3 64 114 65
3 64 187 114
3 64 65 135
3 64 135 66
3 64 66 186
3 64 186 187
3 117 68 67
3 117 67 181
3 117 119 68
3 69 127 128
3 69 184 127
3 69 70 184
3 69 71 70
3 69 128 137
3 69 137 71
3 182 127 184
3 182 100 72
3 182 73 128
3 182 74 73
3 182 95 74
3 182 72 95
3 118 180 184
3 118 184 75
3 118 75 119
3 125 184 122
3 125 75 184
3 125 122 123
3 125 124 119
3 125 119 75
3 136 137 128
3 139 116 76
3 139 77 116
3 139 78 77
3 139 76 137
3 139 135 78
3 165 90 91
3 165 164 90
3 79 91 80
3 79 80 166
3 79 165 91
3 79 166 165
3 144 146 81
3 144 82 145
3 144 81 82
3 83 84 85
3 83 86 84
3 83 85 87
3 83 87 86
3 175 88 147
3 175 174 88
3 189 148 110
3 189 188 148
3 89 91 90
3 89 92 91
3 89 90 164
3 89 164 92
3 93 95 94
3 93 102 95
3 93 94 102
3 152 96 153
3 152 97 96
3 152 98 97
3 152 99 98
3 152 150 99
3 178 159 100
3 178 100 182
3 101 103 102
3 101 102 155
3 101 155 104
3 101 105 103
3 101 104 105
3 115 113 110
3 115 110 108
3 115 108 109
3 115 109 121
3 106 110 107
3 106 108 110
3 106 107 109
3 106 109 108
3 112 110 113
3 112 114 187
3 112 189 110
3 112 187 189
3 111 112 113
3 111 114 112
3 111 113 115
3 111 115 121
3 111 116 114
3 111 121 116
3 183 117 181
3 183 180 118
3 183 119 117
3 183 118 119
3 120 122 121
3 120 123 122
3 120 121 124
3 120 124 125
3 120 125 123
3 126 128 127
3 126 127 182
3 126 182 128
3 138 136 128
3 138 128 129
3 138 130 131
3 138 131 134
3 138 132 130
3 138 129 132
3 133 134 135
3 133 137 136
3 133 138 134
3 133 136 138
3 133 135 139
3 133 139 137
3 162 141 140
3 162 166 141
3 162 140 142
3 162 142 163
3 143 144 145
3 143 146 144
3 143 145 157
3 143 157 146
3 169 175 147
3 169 147 148
3 169 148 188
3 172 188 197
3 172 175 169
3 149 151 150
3 149 150 152
3 149 152 153
3 149 154 151
3 149 155 154
3 149 156 155
3 149 157 156
3 149 153 157
3 158 160 159
3 158 178 160
3 158 159 178
3 177 181 160
3 177 160 178
3 196 186 190
3 161 162 163
3 161 163 164
3 161 164 165
3 161 165 166
3 161 166 162
3 167 197 194
3 167 171 197
3 167 194 193
3 167 193 173
3 167 173 171
3 168 169 188
3 168 188 172
3 168 172 169
3 170 197 171
3 170 172 197
3 170 171 173
3 170 173 174
3 170 174 175
3 170 175 172
3 176 177 178
3 176 179 180
3 176 181 177
3 176 178 182
3 176 180 183
3 176 183 181
3 176 184 179
3 176 182 184
3 185 186 196
3 185 196 197
3 185 187 186
3 185 197 188
3 185 189 187
3 185 188 189
3 198 190 191
3 198 196 190
3 198 191 192
3 199 192 193
3 199 198 192
3 199 193 194
3 199 194 197
3 195 197 196
3 195 196 198
3 195 199 197
3 195 198 199
