ply
format ascii 1.0
element vertex 200
property float x
property float y
property float z
element face 396
property list uchar int vertex_indices
end_header
-0.422914 0.257557 0.724411
-0.300886 0.0178802 0.859411
-0.862422 0.0294876 -0.346276
-0.838766 -0.284675 0.0101163
-0.835728 0.00638308 -0.415046
-0.0375762 0.0749356 -0.816212
-0.285538 0.418512 -0.789742
0.277312 0.510002 0.434908
0.172004 0.275874 0.687321
0.816915 0.11462 -0.28911
-0.39193 -0.769898 0.202016
-0.55103 -0.649981 0.412604
-0.626634 -0.213555 -0.583786
-0.502934 -0.568359 -0.439117
-0.650915 -0.517509 -0.343176
-0.741951 -0.0907002 -0.546432
-0.347405 0.86933 -0.0956225
-0.37055 0.59718 0.424639
-0.128346 0.661251 0.427125
-0.0749146 0.424069 0.628909
0.0305304 0.423046 0.622458
-0.236999 0.67842 0.383478
-0.0487467 0.837052 0.180292
-0.0280008 0.785281 0.24012
-0.324945 0.320996 0.72525
-0.537284 -0.465021 0.605402
-0.528215 -0.555575 0.536948
-0.446642 -0.59654 0.554822
-0.726768 0.0317956 0.524356
-0.355808 -0.445046 0.707636
-0.435714 -0.461772 0.666884
-0.277031 -0.20495 0.859356
-0.152917 -0.458431 0.779838
-0.196925 -0.18671 0.884781
-0.419569 -0.67035 0.496065
0.253588 -0.669211 0.389631
0.299393 -0.530072 0.523113
-0.879542 -0.00182942 0.239923
-0.831236 0.0172721 0.368409
-0.768244 -0.310881 0.417149
-0.861912 -0.11493 0.314456
-0.801376 -0.153215 0.418486
-0.678199 -0.413437 0.504045
-0.179101 0.633063 -0.661673
-0.0241755 0.636154 -0.638144
-0.176397 0.731703 -0.536749
0.252262 0.745048 -0.258646
-0.0892109 0.759351 -0.479893
0.20198 0.725777 0.147188
-0.115789 0.925117 -0.0967817
-0.228646 0.789551 -0.421407
0.570074 0.0957336 -0.62032
-0.67763 0.189509 0.508492
-0.527295 0.765128 -0.216402
-0.651487 0.447644 -0.533775
-0.298856 0.609116 -0.649515
-0.578567 0.177319 -0.732785
-0.601507 0.336602 -0.659602
-0.18421 0.258929 -0.83058
-0.49111 0.248637 -0.766843
-0.416784 0.345294 -0.77817
-0.352682 0.361981 -0.788412
-0.466476 -0.743211 -0.121963
0.274543 0.533591 0.409345
0.240541 0.549427 0.415421
0.292578 0.662218 0.18527
0.275767 0.657428 0.219936
0.329281 0.598743 0.265725
0.486681 0.318195 0.435055
0.278193 0.388567 0.541283
0.403547 0.481572 0.370649
0.479308 0.485239 0.289834
0.51753 0.450123 0.279538
0.609833 0.305812 0.303017
0.691384 -0.170681 0.348175
0.829738 -0.0148232 0.124287
0.658343 0.136878 0.361236
0.745216 -0.222452 0.237293
0.504919 -0.174691 0.553783
0.493321 -0.368893 0.466527
0.866469 -0.210551 -0.100361
0.884211 -0.0748834 -0.0967817
0.512259 -0.288398 -0.654219
0.438578 -0.119848 -0.743698
0.510886 0.0620246 -0.693057
-0.708499 -0.0632174 0.554074
-0.546079 -0.275028 0.697009
-0.569067 -0.0635703 0.679703
-0.72716 -0.0529375 0.53711
-0.213972 -0.738244 0.496661
-0.147011 -0.830371 0.302563
0.210566 -0.680741 0.405377
0.317214 -0.256524 0.710634
0.362964 -0.137578 0.693527
0.0889484 -0.300454 0.809456
-0.097185 -0.299251 0.850752
0.143021 -0.402289 0.754997
0.285541 -0.251782 0.738528
0.0633154 -0.0464004 0.870224
0.126738 -0.175722 0.829804
-0.115789 -0.0748834 0.903218
0.247016 0.0500886 0.781724
-0.250111 0.0726486 0.862753
0.0443554 0.282076 0.716006
0.322113 -0.592961 0.446416
0.485426 -0.605635 0.274051
0.536941 -0.534652 0.301302
-0.782474 -0.503725 0.158412
-0.831122 -0.412123 0.169217
-0.755478 -0.567547 -0.0232035
-0.766654 -0.468676 0.267753
-0.687901 -0.560422 0.306939
-0.553689 -0.708483 0.2009
0.479685 0.437359 -0.489648
0.0981384 0.696572 -0.532984
0.0942044 0.837569 -0.288463
-0.602583 0.510816 0.24415
-0.462541 0.825952 -0.0853476
-0.492008 0.527243 0.419397
-0.373792 0.776963 0.173622
-0.751868 0.416236 -0.00688864
-0.687457 0.612008 -0.291162
-0.702163 0.532692 -0.092695
-0.789655 0.357216 -0.272671
-0.792091 0.372612 -0.410026
-0.859792 0.0831916 0.163317
-0.881157 0.0961516 -0.186798
-0.809746 0.112023 0.371052
-0.705093 0.345825 0.308186
-0.364682 0.132673 -0.810705
-0.616714 -0.0158071 -0.72175
-0.0730608 -0.866522 0.197423
-0.329219 -0.688818 -0.459841
-0.155332 -0.755376 -0.454577
0.556652 0.402255 0.278076
0.802598 0.129399 0.118859
0.868484 0.0534356 -0.0942573
0.802952 0.158779 -0.305764
0.863762 -0.21966 -0.104569
0.660018 -0.417372 -0.485903
-0.158305 -0.698792 0.548462
-0.233465 -0.695539 0.566018
-0.096401 -0.542648 0.732141
-0.0116416 -0.758121 0.447548
0.211004 0.655868 -0.531035
0.362491 0.606856 -0.417366
0.181039 0.713235 -0.454951
0.332158 0.666422 -0.331655
0.679069 0.369419 -0.273787
0.633996 0.450269 -0.175931
0.0223444 -0.423255 -0.749682
-0.302692 -0.204187 -0.763833
-0.290985 -0.394126 -0.694612
-0.116064 -0.486868 -0.695178
0.108626 -0.823947 -0.224827
0.143901 -0.736779 -0.504048
-0.139214 -0.742425 -0.478838
0.154021 -0.42586 -0.774247
0.243854 -0.657336 -0.576765
-0.0601092 -0.792752 -0.416311
0.153778 -0.780302 -0.394825
0.546786 0.54436 -0.0250821
0.531152 0.478156 0.200876
0.527515 0.558497 -0.0127602
0.738724 0.326443 -0.0479391
0.588304 0.508814 -0.114449
0.406941 0.639625 -0.221467
0.858118 -0.25092 -0.0690613
0.641217 -0.417759 0.271681
0.504076 -0.669435 -0.302653
0.744405 -0.432517 -0.301929
0.503303 -0.534391 -0.577719
0.554551 -0.526183 -0.537037
0.43192 -0.527685 -0.657273
0.449212 -0.715513 -0.313542
0.42399 -0.682033 0.237072
0.317614 -0.791608 -0.0259857
0.182137 -0.799194 0.206467
0.549255 -0.606937 0.166319
0.673837 -0.466237 0.132556
0.558179 -0.539997 0.258062
0.471951 -0.681438 0.170555
0.539974 -0.644895 0.0861883
0.783148 -0.435001 -0.130495
0.471241 -0.649446 0.233675
0.205764 0.495381 -0.707149
0.199227 0.55485 -0.653564
0.118727 0.471991 -0.75277
0.262586 0.33871 -0.782198
0.476628 0.172131 -0.686162
0.505048 0.0859786 -0.692224
0.407914 0.0440446 -0.759108
0.0502144 0.361615 -0.841023
0.0996774 0.382492 -0.816565
0.172989 0.444632 -0.753623
0.344495 0.520255 -0.57333
0.293941 0.56613 -0.581467
0.333601 0.567395 -0.5416
0.263993 0.438841 -0.719708
0.559923 0.275436 -0.549946
3 14 132 62
3 14 62 109
3 119 16 117
3 119 22 49
3 119 49 16
3 52 127 28
3 102 103 24
3 20 7 64
3 20 24 103
3 53 117 16
3 4 124 130
3 4 14 109
3 57 124 54
3 123 124 126
3 157 83 173
3 157 192 83
3 157 5 192
3 75 81 136
3 75 167 81
3 9 136 81
3 9 137 136
3 9 51 137
3 10 62 131
3 13 132 14
3 6 43 192
3 55 45 43
3 55 57 54
3 55 60 57
3 55 43 6
3 55 6 60
3 21 22 119
3 66 22 64
3 48 49 22
3 48 65 163
3 48 22 66
3 48 66 65
3 63 7 70
3 63 64 7
3 23 64 22
3 86 30 31
3 32 33 31
3 32 141 142
3 32 30 141
3 1 31 33
3 1 86 31
3 1 87 86
3 1 100 102
3 1 33 100
3 0 52 28
3 0 28 87
3 0 87 1
3 0 24 118
3 0 118 52
3 0 102 24
3 0 1 102
3 90 10 131
3 104 96 142
3 38 28 127
3 38 40 41
3 108 3 109
3 149 166 165
3 187 192 43
3 46 163 166
3 46 48 163
3 15 4 130
3 15 14 4
3 2 108 126
3 2 3 108
3 2 126 124
3 2 124 4
3 2 109 3
3 2 4 109
3 56 130 124
3 56 124 57
3 191 83 192
3 191 84 83
3 61 60 6
3 58 5 157
3 58 192 5
3 58 6 192
3 58 61 6
3 152 132 13
3 152 13 130
3 159 131 62
3 69 7 20
3 69 70 7
3 8 20 103
3 8 69 20
3 101 93 76
3 101 69 8
3 101 8 103
3 77 168 167
3 77 167 75
3 190 51 84
3 190 189 51
3 190 84 191
3 138 9 81
3 139 84 51
3 139 51 9
3 139 9 138
3 11 34 26
3 11 90 34
3 11 10 90
3 11 42 111
3 11 26 42
3 112 109 62
3 112 62 10
3 112 10 11
3 112 11 111
3 12 130 13
3 12 13 14
3 12 15 130
3 12 14 15
3 50 45 55
3 50 55 53
3 50 53 16
3 50 16 49
3 19 24 20
3 17 119 118
3 17 21 119
3 17 118 24
3 17 24 21
3 18 19 20
3 18 22 21
3 18 23 22
3 18 21 24
3 18 24 19
3 18 20 64
3 18 64 23
3 27 26 34
3 27 34 141
3 27 141 30
3 25 42 26
3 25 86 42
3 25 30 86
3 25 27 30
3 25 26 27
3 88 87 28
3 88 28 38
3 88 38 41
3 88 42 86
3 88 41 42
3 29 31 30
3 29 32 31
3 29 30 32
3 95 33 32
3 95 100 33
3 95 142 96
3 95 32 142
3 180 168 106
3 89 141 34
3 89 34 90
3 79 106 168
3 99 100 95
3 35 91 175
3 35 104 91
3 35 175 104
3 36 104 106
3 36 96 104
3 36 92 96
3 36 106 79
3 36 79 92
3 105 106 104
3 37 40 38
3 37 125 126
3 37 127 125
3 37 38 127
3 37 126 108
3 37 108 40
3 110 111 42
3 39 40 108
3 39 42 41
3 39 41 40
3 39 110 42
3 39 108 110
3 193 192 187
3 44 43 45
3 44 45 114
3 44 187 43
3 186 114 144
3 186 187 44
3 186 44 114
3 47 114 45
3 47 45 50
3 147 46 166
3 115 46 147
3 115 114 47
3 115 49 48
3 115 48 46
3 115 50 49
3 115 47 50
3 199 148 137
3 199 113 148
3 199 51 189
3 199 137 51
3 128 52 118
3 128 127 52
3 121 117 53
3 121 122 117
3 121 54 124
3 121 55 54
3 121 53 55
3 59 130 56
3 59 57 60
3 59 56 57
3 129 58 157
3 129 130 59
3 129 59 60
3 129 60 61
3 129 61 58
3 153 132 152
3 154 131 159
3 154 159 160
3 133 62 132
3 133 159 62
3 67 63 70
3 67 66 64
3 67 64 63
3 71 163 65
3 71 65 66
3 71 66 67
3 71 67 70
3 162 72 134
3 162 163 71
3 162 71 72
3 68 76 73
3 68 101 76
3 68 69 101
3 68 70 69
3 68 71 70
3 68 72 71
3 68 134 72
3 68 73 134
3 135 76 75
3 135 73 76
3 135 75 136
3 135 134 73
3 78 76 93
3 78 93 92
3 78 92 79
3 74 75 76
3 74 77 75
3 74 76 78
3 74 168 77
3 74 79 168
3 74 78 79
3 80 81 167
3 80 138 81
3 80 167 138
3 82 83 84
3 82 84 139
3 82 173 83
3 82 139 173
3 170 139 138
3 85 86 87
3 85 87 88
3 85 88 86
3 143 89 90
3 143 175 91
3 143 177 175
3 143 90 131
3 143 131 177
3 143 104 142
3 143 91 104
3 143 141 89
3 97 96 92
3 97 101 99
3 97 92 93
3 97 93 101
3 94 95 96
3 94 99 95
3 94 96 97
3 94 97 99
3 98 100 99
3 98 99 101
3 98 102 100
3 98 103 102
3 98 101 103
3 184 104 175
3 184 105 104
3 184 180 106
3 184 106 105
3 107 108 109
3 107 110 108
3 107 111 110
3 107 109 112
3 107 112 111
3 197 113 199
3 197 148 113
3 194 193 187
3 146 144 114
3 146 114 115
3 146 115 147
3 146 197 144
3 116 117 122
3 116 122 128
3 116 128 118
3 116 118 119
3 116 119 117
3 120 122 121
3 120 124 123
3 120 121 124
3 120 126 125
3 120 123 126
3 120 125 127
3 120 127 128
3 120 128 122
3 151 129 157
3 151 152 130
3 151 130 129
3 176 177 131
3 176 131 154
3 158 157 173
3 156 153 157
3 156 132 153
3 156 133 132
3 156 159 133
3 164 162 134
3 164 134 135
3 164 149 165
3 164 135 136
3 164 136 137
3 164 137 148
3 164 148 149
3 183 138 167
3 183 170 138
3 172 173 139
3 172 139 170
3 140 142 141
3 140 143 142
3 140 141 143
3 196 186 144
3 196 144 197
3 145 146 147
3 145 197 146
3 145 148 197
3 145 149 148
3 145 166 149
3 145 147 166
3 150 151 157
3 150 152 151
3 150 157 153
3 150 153 152
3 174 154 160
3 174 176 154
3 174 158 173
3 155 156 157
3 155 157 158
3 155 159 156
3 155 158 174
3 155 160 159
3 155 174 160
3 161 163 162
3 161 162 164
3 161 164 165
3 161 166 163
3 161 165 166
3 182 176 174
3 179 167 168
3 179 183 167
3 179 168 180
3 169 172 170
3 169 174 172
3 169 170 183
3 169 183 182
3 169 182 174
3 171 173 172
3 171 174 173
3 171 172 174
3 181 184 175
3 181 176 182
3 181 175 177
3 181 177 176
3 178 179 180
3 178 181 182
3 178 182 183
3 178 183 179
3 178 180 184
3 178 184 181
3 185 186 196
3 185 196 198
3 185 198 194
3 185 187 186
3 185 194 187
3 188 199 189
3 188 198 199
3 188 189 190
3 188 190 191
3 188 191 192
3 188 192 193
3 188 193 194
3 188 194 198
3 195 196 197
3 195 198 196
3 195 197 199
3 195 199 198
