ply
format ascii 1.0
element vertex 200
property float x
property float y
property float z
element face 396
property list uchar int vertex_indices
end_header
0.767153 0.0821355 -0.41903
-0.671611 0.401932 0.364636
0.153463 -0.0992154 -0.860379
-0.0770459 0.205668 -0.869881
-0.113617 -0.0510002 -0.843849
-0.0100246 -0.758323 -0.420776
-0.793082 0.204517 -0.27037
-0.598887 0.563357 -0.494984
-0.557486 0.404422 -0.666203
-0.417715 0.498497 -0.697553
-0.316359 0.636827 -0.616357
-0.606516 0.53261 0.301634
-0.517188 0.431968 0.49451
-0.478472 0.591087 0.369865
-0.492144 0.556663 0.402973
-0.606579 0.517481 0.326426
0.598438 0.500626 0.0246967
0.785154 0.319943 -0.0380457
0.522004 0.194289 0.435328
0.41697 0.473996 0.278253
0.382348 0.609241 0.182256
0.0893793 0.855171 0.0725977
0.0633223 0.821076 0.198183
-0.167952 0.699653 -0.585583
0.690511 0.357649 -0.388855
0.526895 -0.637066 0.0955317
-0.731483 0.202345 -0.5404
0.221591 -0.402291 -0.787736
0.371577 -0.5096 -0.691222
0.131118 -0.212042 -0.849671
0.453424 -0.407727 -0.724377
-0.283247 -0.608482 -0.51005
-0.342439 -0.599405 -0.487103
-0.0407795 -0.54137 -0.711148
-0.172341 -0.481415 -0.706726
-0.749294 -0.403676 0.360613
-0.756718 -0.189185 -0.253869
-0.774564 0.0657755 -0.386373
-0.465507 -0.728585 -0.149569
-0.126154 -0.720714 -0.426078
-0.488965 -0.615163 -0.364026
-0.148728 -0.783738 -0.270944
-0.649797 -0.635083 -0.061137
-0.302734 -0.826918 0.107453
-0.338744 -0.753453 0.324042
0.797051 -0.118006 -0.408821
0.58012 -0.352956 -0.637749
0.293475 0.331838 0.536767
-0.632192 0.150825 0.561056
-0.719705 -0.00265052 0.489761
-0.753289 0.127548 0.393309
-0.84402 -0.0571468 0.206732
-0.663106 0.262013 0.485965
-0.666238 -0.210493 0.556036
-0.72054 -0.216854 0.5015
-0.635121 0.00973568 0.610735
-0.184778 0.306414 0.767158
-0.555879 -0.0750008 0.676661
-0.547913 0.718804 -0.0244137
-0.563549 0.687711 -0.10233
-0.74034 0.462469 -0.275908
-0.716247 0.524135 0.0870777
-0.331235 0.808986 -0.353017
-0.288666 0.829573 -0.356295
-0.544578 0.642678 -0.431871
-0.350299 0.858332 -0.207428
0.775424 0.317775 -0.202088
0.778279 0.179579 -0.361054
0.87103 0.0904535 -0.115821
0.819804 0.227498 0.0158167
0.843451 0.189524 -0.0741735
-0.264423 0.838147 0.13274
-0.120959 0.867807 0.133586
-0.104301 0.932206 -0.113279
0.335131 -0.251147 -0.837059
0.895699 -0.0677935 -0.113279
0.887375 -0.0333804 -0.0234621
0.645358 -0.56485 -0.245689
-0.172105 -0.825573 0.204289
0.143349 -0.823501 0.157475
-0.0761758 -0.823196 0.265639
0.0395113 -0.817404 0.266366
0.126178 -0.756407 0.372325
-0.071693 -0.819724 0.28114
-0.464055 0.00332188 -0.762988
-0.424651 0.106419 -0.804086
-0.562451 -0.0973822 -0.684233
0.153414 0.662905 -0.569517
-0.0602191 0.924601 -0.194525
0.0659203 0.77686 -0.434461
0.0969453 0.857512 0.0587017
0.378266 0.677652 0.0292637
-0.0297727 0.578655 -0.695804
-0.00348775 0.608403 -0.670532
0.176431 0.262217 -0.834293
-0.0225768 0.365929 -0.8208
0.137342 0.17348 -0.875851
0.532461 -0.0855194 -0.730614
0.505204 -0.0942315 -0.757425
-0.50815 -0.499069 -0.481005
-0.512581 -0.534826 -0.449133
-0.350949 -0.39336 -0.68085
-0.430907 -0.21034 -0.732438
-0.548659 -0.281658 -0.584542
-0.635233 -0.112153 -0.615789
-0.531674 -0.636794 0.437189
-0.3958 -0.705747 0.440091
-0.424186 -0.783019 0.117693
0.687297 -0.401127 -0.454549
0.721459 -0.256846 -0.503831
0.702308 -0.235128 -0.549689
0.451502 -0.639514 -0.482026
0.66511 -0.446572 -0.456821
0.496415 -0.684909 -0.323192
0.421845 -0.51126 -0.673679
0.382321 -0.556392 -0.633364
0.421505 -0.736401 -0.270322
0.159393 -0.765577 -0.350068
0.167474 -0.632116 -0.592527
0.0188343 0.217044 0.801895
-0.000262748 0.287396 0.777146
-0.12499 0.123245 0.849385
-0.485725 -0.637383 0.488193
-0.527763 -0.29937 0.652024
-0.732374 -0.293611 0.459822
-0.656158 -0.590605 0.341092
-0.385219 0.558499 0.478656
-0.399776 0.282001 0.677681
-0.266024 0.210856 0.798665
-0.42903 0.208944 0.699945
-0.417316 0.424857 0.579402
-0.595931 0.279773 0.537358
-0.104301 -0.0677935 0.886721
-0.210268 -0.247253 0.84229
-0.204642 -0.106855 0.876007
-0.0693188 -0.714277 0.518092
0.464139 -0.529952 0.436885
0.52829 -0.502515 0.391986
0.274044 -0.655169 0.447889
-0.463664 0.764708 0.0915147
-0.431548 0.817176 -0.0463558
-0.526152 0.745887 0.00817967
-0.395412 0.792356 0.141371
-0.446756 0.753714 0.161336
0.513657 0.224971 -0.676937
0.608374 0.114859 -0.628715
0.515652 -0.0344061 -0.745792
0.318286 0.425168 -0.699763
0.398421 0.210555 -0.772263
0.21376 0.50243 -0.708645
0.762022 -0.418593 0.0541787
0.758173 -0.440963 -0.114192
0.690323 -0.526922 0.0936927
0.819241 -0.272028 0.0595277
0.815204 -0.306307 -0.247767
0.318982 0.669749 -0.419561
0.207449 0.833095 -0.193876
0.226032 0.712028 -0.443256
0.441454 0.567047 -0.418407
0.643501 0.494406 -0.205237
0.572556 0.337429 -0.5796
0.375115 0.544967 -0.521157
0.161707 0.630274 -0.612524
0.182087 0.570132 -0.672314
-0.264469 0.710817 0.349118
-0.336765 0.630699 0.423729
-0.369291 0.727468 0.285936
-0.234929 0.628251 0.458054
-0.0540923 0.838381 0.208914
0.0493243 0.73607 0.353188
-0.292272 -0.446585 0.736403
-0.437704 -0.530933 0.617937
-0.33849 -0.305029 0.795216
-0.152558 -0.482918 0.730805
-0.208596 -0.621248 0.619632
-0.14419 -0.285066 0.837448
0.247465 -0.615692 0.505532
0.10104 -0.562885 0.627175
0.0755253 -0.554844 0.644297
-0.0765647 -0.588432 0.662259
-0.125848 -0.456929 0.751097
0.698301 -0.0174912 0.341913
0.653332 -0.436181 0.290687
0.825706 -0.0933601 0.142465
0.76064 -0.350924 0.164869
0.761964 0.193973 0.204263
0.427605 0.0912695 0.582462
0.133982 -0.457377 0.687351
0.0306533 -0.470826 0.707752
0.1387 -0.530698 0.642119
0.207873 -0.483053 0.644025
0.24742 -0.178087 0.74683
0.443005 -0.00569462 0.584607
0.153926 0.012529 0.808417
0.456526 -0.185965 0.566891
0.524117 -0.287173 0.483142
0.288925 -0.31 0.670227
0.277314 -0.397967 0.647965
0.175684 -0.293254 0.742519
0.0437103 -0.288952 0.811155
3 50 61 51
3 47 20 169
3 3 95 96
3 3 96 2
3 3 9 95
3 74 2 96
3 41 5 117
3 41 117 79
3 60 51 61
3 104 37 26
3 67 0 145
3 45 67 75
3 45 0 67
3 45 110 145
3 45 145 0
3 12 14 15
3 131 48 129
3 131 52 48
3 131 12 52
3 1 61 50
3 1 50 52
3 1 15 61
3 1 52 12
3 1 12 15
3 141 61 143
3 66 24 159
3 66 67 24
3 25 138 79
3 185 16 20
3 22 169 20
3 22 168 169
3 118 5 33
3 118 117 5
3 28 118 33
3 28 115 118
3 82 79 138
3 85 8 9
3 85 9 3
3 85 4 102
3 85 3 4
3 85 26 8
3 162 23 89
3 162 93 23
3 10 63 23
3 10 64 63
3 92 95 9
3 92 9 10
3 92 23 93
3 92 10 23
3 29 2 74
3 29 3 2
3 29 4 3
3 29 102 4
3 146 145 110
3 39 5 41
3 39 33 5
3 32 39 40
3 6 37 51
3 6 51 60
3 6 26 37
3 6 60 26
3 7 8 26
3 7 26 60
3 7 60 64
3 7 9 8
3 7 64 10
3 7 10 9
3 103 104 102
3 107 125 42
3 154 45 75
3 121 134 132
3 54 51 124
3 11 143 61
3 11 61 15
3 11 15 143
3 126 166 14
3 130 12 131
3 130 56 126
3 130 14 12
3 130 126 14
3 13 14 166
3 13 166 143
3 13 15 14
3 13 143 15
3 59 64 60
3 65 64 141
3 17 159 16
3 17 66 159
3 17 185 69
3 17 16 185
3 91 16 159
3 91 20 16
3 91 22 20
3 91 90 22
3 70 17 69
3 70 66 17
3 116 25 79
3 116 79 117
3 18 47 186
3 18 186 185
3 18 185 47
3 19 20 47
3 19 185 20
3 19 47 185
3 199 193 132
3 72 168 73
3 21 22 90
3 21 168 22
3 21 90 73
3 21 73 168
3 160 24 67
3 160 67 145
3 88 73 90
3 88 65 73
3 88 63 65
3 88 89 23
3 88 23 63
3 158 159 24
3 158 24 160
3 114 28 30
3 114 115 28
3 114 30 46
3 152 113 77
3 152 116 113
3 152 25 116
3 152 184 182
3 152 182 137
3 152 138 25
3 86 102 104
3 86 104 26
3 86 26 85
3 149 95 92
3 27 33 29
3 27 29 74
3 27 28 33
3 27 74 30
3 27 30 28
3 34 102 29
3 34 29 33
3 34 101 102
3 98 30 74
3 98 46 30
3 98 110 46
3 100 32 40
3 100 101 34
3 100 34 32
3 100 40 42
3 100 42 104
3 31 39 32
3 31 33 39
3 31 34 33
3 31 32 34
3 35 125 124
3 35 42 125
3 35 124 51
3 35 51 42
3 36 104 42
3 36 37 104
3 36 42 51
3 36 51 37
3 43 78 44
3 43 79 78
3 43 41 79
3 38 40 39
3 38 39 41
3 38 42 40
3 38 107 42
3 38 41 43
3 38 43 107
3 106 174 122
3 106 43 44
3 106 107 43
3 106 44 78
3 106 78 83
3 109 110 45
3 109 45 154
3 112 154 77
3 112 77 113
3 112 114 46
3 112 46 110
3 120 47 169
3 120 169 56
3 120 186 47
3 120 56 121
3 172 133 134
3 172 57 123
3 172 134 57
3 55 129 48
3 55 57 129
3 55 48 52
3 49 50 51
3 49 51 54
3 49 54 55
3 49 52 50
3 49 55 52
3 53 123 57
3 53 124 123
3 53 54 124
3 53 57 55
3 53 55 54
3 167 56 169
3 167 126 56
3 128 56 130
3 128 121 56
3 128 134 121
3 128 129 57
3 128 57 134
3 58 59 60
3 58 60 61
3 58 61 141
3 58 141 64
3 58 64 59
3 62 63 64
3 62 64 65
3 62 65 63
3 140 65 141
3 140 73 65
3 68 67 66
3 68 66 70
3 68 75 67
3 76 75 68
3 76 69 185
3 76 185 183
3 76 70 69
3 76 68 70
3 197 199 190
3 195 137 182
3 195 196 197
3 142 143 166
3 71 166 168
3 71 168 72
3 71 142 166
3 71 72 73
3 71 73 140
3 71 140 142
3 148 146 98
3 148 74 96
3 148 98 74
3 153 154 75
3 153 75 76
3 153 183 184
3 153 76 183
3 151 77 154
3 151 152 77
3 80 78 79
3 80 83 78
3 81 79 82
3 81 80 79
3 81 83 80
3 135 179 174
3 135 81 82
3 135 83 81
3 135 174 106
3 135 106 83
3 135 82 138
3 135 177 179
3 84 85 102
3 84 102 86
3 84 86 85
3 87 162 89
3 87 89 157
3 87 157 162
3 156 89 88
3 156 157 89
3 156 88 90
3 156 90 91
3 156 91 159
3 163 92 93
3 163 149 92
3 163 93 162
3 163 161 160
3 94 96 95
3 94 95 149
3 94 148 96
3 94 149 148
3 97 146 110
3 97 110 98
3 97 98 146
3 99 101 100
3 99 102 101
3 99 103 102
3 99 104 103
3 99 100 104
3 105 122 125
3 105 106 122
3 105 125 107
3 105 107 106
3 108 109 154
3 108 154 112
3 108 110 109
3 108 112 110
3 111 112 113
3 111 114 112
3 111 115 114
3 111 113 116
3 111 116 117
3 111 118 115
3 111 117 118
3 119 193 186
3 119 186 120
3 119 120 121
3 119 132 193
3 119 121 132
3 171 122 174
3 171 172 123
3 171 123 124
3 171 125 122
3 171 124 125
3 165 166 126
3 165 126 167
3 127 129 128
3 127 128 130
3 127 131 129
3 127 130 131
3 175 180 199
3 175 199 132
3 175 133 172
3 175 132 134
3 175 134 133
3 173 174 179
3 173 179 180
3 176 135 138
3 176 177 135
3 178 179 177
3 136 197 190
3 136 190 176
3 136 137 195
3 136 195 197
3 136 176 138
3 136 138 152
3 136 152 137
3 198 199 197
3 139 140 141
3 139 142 140
3 139 141 143
3 139 143 142
3 144 160 145
3 144 148 160
3 144 145 146
3 144 146 148
3 147 160 148
3 147 148 149
3 147 163 160
3 147 149 163
3 150 152 151
3 150 184 152
3 150 153 184
3 150 154 153
3 150 151 154
3 155 157 156
3 155 159 158
3 155 156 159
3 155 160 161
3 155 158 160
3 155 162 157
3 155 161 163
3 155 163 162
3 164 166 165
3 164 165 167
3 164 168 166
3 164 169 168
3 164 167 169
3 170 172 171
3 170 173 180
3 170 171 174
3 170 174 173
3 170 175 172
3 170 180 175
3 189 176 190
3 189 177 176
3 189 178 177
3 188 179 178
3 188 180 179
3 188 199 180
3 188 178 189
3 192 186 193
3 181 194 195
3 181 195 182
3 181 192 194
3 181 184 183
3 181 182 184
3 181 183 185
3 181 185 186
3 181 186 192
3 187 199 188
3 187 188 189
3 187 190 199
3 187 189 190
3 191 192 193
3 191 194 192
3 191 196 195
3 191 195 194
3 191 197 196
3 191 198 197
3 191 193 199
3 191 199 198
