ply
format ascii 1.0
element vertex 200
property float x
property float y
property float z
element face 396
property list uchar int vertex_indices
end_header
-0.321083 -0.465221 -0.593534
-0.156099 -0.12458 -0.808536
-0.697367 0.532993 0.0325981
-0.526579 0.324129 0.595139
0.283543 -0.431243 0.66278
0.417415 -0.633476 0.341276
0.211326 -0.68017 0.414523
0.467175 -0.646936 0.286559
0.389644 -0.45435 0.574254
0.143857 -0.0565257 -0.897075
0.425007 0.664457 -0.244375
0.364515 0.729816 0.0948511
0.805174 0.209138 -0.239266
0.467222 0.65782 -0.186045
0.476555 0.667829 -0.0410081
0.599961 0.359628 -0.411525
0.809147 0.15473 -0.316505
0.893608 -0.0660659 -0.205654
0.905869 -0.0826321 -0.0923839
0.837915 0.0694899 -0.337356
-0.396958 -0.767644 -0.136098
-0.229625 -0.754857 -0.29441
-0.18981 -0.832899 0.226632
-0.0794533 0.32276 -0.840365
-0.803623 -0.192625 -0.136018
-0.620888 -0.199054 -0.578415
-0.651781 0.600543 -0.203329
-0.630382 0.0535809 -0.616695
-0.585564 0.23611 -0.631915
-0.658645 0.50013 -0.389896
-0.588862 0.513704 -0.463438
-0.417969 0.349886 -0.693509
-0.233799 0.43035 -0.774368
-0.568168 -0.622981 -0.194591
-0.560221 -0.737015 0.0893821
-0.419432 -0.67989 -0.329413
-0.782794 -0.383849 0.0238271
-0.612424 -0.421011 0.538034
-0.725643 -0.163882 0.471437
-0.560229 -0.347347 0.619084
0.506637 -0.680488 0.131402
0.756493 -0.332347 -0.381998
-0.148957 0.807667 0.27501
-0.0871969 0.900445 0.0402061
-0.351769 0.467464 0.578198
-0.325004 0.353125 0.699973
-0.388005 0.530971 0.4953
-0.424067 0.165447 0.737967
-0.153592 0.214987 0.806158
-0.237508 0.317082 0.74411
-0.227246 0.562834 0.550814
-0.488276 0.392047 0.577728
0.509245 0.438558 0.273476
0.405036 0.00340068 0.65965
0.171602 -0.134268 0.829137
-0.795577 0.0679709 0.342369
-0.665786 0.191217 0.531683
-0.788922 -0.132782 0.384234
-0.743159 0.254211 0.393495
-0.811213 0.0634449 0.287216
-0.796915 0.295687 0.230624
0.649653 0.00212058 0.357102
0.604342 -0.597591 0.0985661
0.510941 -0.668368 0.177867
0.634027 -0.511846 0.238255
-0.339937 -0.446752 0.743214
0.243112 0.245395 -0.812382
0.122796 0.396501 -0.7987
0.0473471 0.571401 -0.70198
0.196241 0.34598 -0.800401
-0.0238784 0.449305 -0.801834
-0.0102771 0.238113 -0.878594
0.707866 0.316756 0.106584
0.588258 0.414346 0.216659
0.757947 0.216768 0.100812
0.676115 0.384509 0.0672491
0.756464 0.275027 -0.083093
-0.353791 0.843237 -0.139016
-0.36541 0.837752 -0.174038
-0.539785 0.716224 0.0258721
-0.188218 0.909149 -0.109562
-0.333772 0.779517 0.198643
0.165305 -0.444378 -0.761151
0.251055 -0.329038 -0.809455
0.0436991 -0.260164 -0.877302
0.0592701 -0.832939 -0.0843218
-0.773453 -0.0603882 -0.409741
-0.690431 0.00159038 -0.549613
-0.645254 -0.0562326 -0.607884
-0.740459 -0.123015 -0.446041
-0.695203 0.349498 -0.498222
-0.734368 -0.257172 -0.380907
-0.826845 0.315118 -0.112333
-0.81423 0.0213579 -0.314362
-0.853122 0.24549 0.0963561
-0.766574 0.383289 -0.315058
-0.682108 0.578916 -0.126929
-0.564427 -0.708756 0.25252
-0.512018 -0.774435 0.164044
-0.369338 0.694595 0.317888
-0.321826 0.76528 0.245242
-0.413481 0.671078 0.32125
0.0701961 0.761619 0.313987
0.00700708 0.532652 0.553906
-0.175042 0.716512 0.405966
-0.0836052 0.819131 0.254356
0.303117 0.730069 0.18534
0.189404 0.251214 0.733402
0.136784 0.296433 0.732056
0.191789 0.46128 0.575656
0.422475 0.334835 0.456214
0.232283 0.147316 0.751937
-0.0437762 0.107302 0.868453
-0.638968 0.452437 0.359878
-0.488042 0.597998 0.367523
-0.682137 0.423259 0.337214
-0.518313 0.482536 0.464663
-0.607706 0.320261 0.526834
0.684752 -0.397482 0.27226
-0.157127 -0.170886 0.896735
0.15103 -0.266102 0.804078
-0.203395 -0.280779 0.854575
-0.0941309 -0.0826321 0.907616
-0.397622 -0.00737612 0.798991
-0.478423 -0.0348699 0.76542
-0.218605 -0.822492 0.355152
0.519669 -0.105354 0.547153
0.573531 -0.391476 0.42198
0.455415 -0.036857 0.624882
0.617636 -0.257125 0.409163
0.630038 -0.16784 0.408187
0.512627 0.0599849 0.546177
0.360023 -0.391018 -0.729601
0.595839 -0.347663 -0.621905
0.535747 0.251643 -0.612051
0.400556 0.41025 -0.591121
0.668669 0.184263 -0.540236
0.408867 0.241683 -0.733597
0.477137 -0.674926 -0.240374
0.289272 -0.785406 -0.131907
0.483658 -0.718469 -0.0502645
0.467502 -0.637212 -0.374496
0.578671 -0.580355 -0.377647
-0.733965 -0.47287 0.349879
-0.700239 -0.588296 0.260729
-0.622586 -0.58268 0.39961
-0.570396 -0.453675 0.576671
-0.660005 -0.527502 0.411172
-0.735133 -0.447471 0.372245
0.0100301 0.82085 -0.395203
-0.228901 0.883235 -0.244527
-0.0964716 0.721892 -0.568816
0.116444 0.821557 -0.300328
0.0632711 0.774346 -0.479061
0.335645 0.717394 -0.283325
0.0254951 0.900702 -0.147795
-0.0941309 0.917368 -0.0923839
0.0589591 0.88604 -0.00353143
0.00790108 0.891117 -0.219421
0.0732331 0.875013 -0.208699
0.252084 0.808654 0.0230851
0.346069 0.764825 -0.0267869
0.767389 -0.295054 0.181676
0.683296 -0.452021 0.212985
0.657694 -0.494627 0.21023
-0.377016 -0.672724 0.519911
-0.369655 -0.761308 0.404865
-0.491558 -0.730762 0.340738
-0.597411 -0.5386 0.492529
-0.189797 -0.640837 0.610868
-0.258941 -0.736721 0.483777
-0.117699 -0.697448 0.561621
-0.389943 -0.55157 0.659399
-0.0481676 -0.485476 0.749228
0.730341 -0.202331 -0.517671
0.773529 -0.0424827 -0.476737
0.552562 -0.0859271 -0.738707
0.633912 -0.0416799 -0.664957
0.571754 0.00128318 -0.726043
0.585077 -0.278866 -0.673443
0.387057 -0.20316 -0.828862
0.686041 -0.131839 -0.603503
0.339745 -0.0909769 -0.860078
-0.152424 -0.673429 -0.536509
0.33541 -0.597989 -0.549304
0.446941 -0.620534 -0.435503
0.627716 -0.429548 -0.521998
0.331397 -0.608069 -0.539931
0.224143 -0.469572 -0.750388
0.745343 -0.430123 0.0297811
0.742985 -0.453109 -0.0962693
0.637504 -0.588844 0.0250931
0.731534 -0.424187 0.116707
0.905037 -0.0895495 -0.0501502
0.814526 -0.333619 -0.243192
0.0548081 -0.703186 -0.497818
0.0378091 -0.660832 -0.559176
0.229771 -0.747952 -0.389634
-0.0952157 -0.685453 -0.526354
-0.0222013 -0.764466 -0.369869
3 125 7 6
3 150 151 30
3 88 84 25
3 91 25 35
3 186 194 142
3 190 191 142
3 190 142 194
3 81 79 101
3 112 123 122
3 112 122 54
3 47 124 123
3 59 94 57
3 36 24 91
3 36 94 24
3 36 57 94
3 56 124 47
3 8 4 6
3 8 7 64
3 8 128 54
3 8 54 4
3 161 13 154
3 161 14 13
3 161 11 14
3 26 96 79
3 0 25 84
3 0 84 183
3 0 35 25
3 0 183 35
3 21 35 183
3 185 186 142
3 32 30 151
3 32 151 70
3 32 71 28
3 32 28 31
3 1 71 84
3 1 88 71
3 1 84 88
3 27 28 71
3 27 71 88
3 87 27 88
3 22 85 125
3 22 125 98
3 34 98 144
3 34 144 36
3 38 124 56
3 38 56 57
3 38 57 148
3 166 98 125
3 140 142 191
3 140 191 40
3 174 186 133
3 19 136 16
3 19 175 136
3 17 18 194
3 17 175 19
3 17 194 174
3 17 174 175
3 100 81 101
3 43 105 157
3 80 81 43
3 45 49 50
3 45 47 49
3 114 101 79
3 114 79 115
3 114 51 46
3 114 46 50
3 2 60 115
3 2 94 60
3 2 96 94
3 2 79 96
3 2 115 79
3 73 11 106
3 73 14 11
3 73 110 131
3 73 131 74
3 73 109 110
3 111 112 54
3 3 117 56
3 3 56 47
3 3 51 117
3 3 45 51
3 3 47 45
3 58 115 60
3 58 117 115
3 58 56 117
3 193 194 18
3 63 40 191
3 63 64 7
3 63 7 125
3 63 125 40
3 164 64 191
3 120 4 54
3 120 173 4
3 120 54 122
3 171 6 4
3 171 4 173
3 171 125 6
3 5 6 7
3 5 7 8
3 5 8 6
3 127 64 118
3 127 8 64
3 127 128 8
3 180 84 182
3 9 84 71
3 9 71 182
3 9 182 84
3 135 153 154
3 68 70 151
3 68 151 153
3 68 135 69
3 68 153 135
3 10 154 13
3 10 135 154
3 15 16 136
3 15 10 13
3 15 136 135
3 15 135 10
3 160 11 161
3 160 106 11
3 160 157 106
3 75 76 14
3 75 14 73
3 12 13 14
3 12 14 76
3 12 16 15
3 12 15 13
3 12 18 17
3 12 193 18
3 12 19 16
3 12 17 19
3 12 76 74
3 12 74 193
3 78 26 79
3 78 80 150
3 78 150 30
3 78 30 29
3 78 29 26
3 199 21 183
3 20 35 21
3 20 34 35
3 20 98 34
3 20 85 22
3 20 22 98
3 20 199 85
3 20 21 199
3 188 133 186
3 23 70 71
3 23 71 32
3 23 32 70
3 93 91 24
3 93 24 94
3 89 88 25
3 89 25 91
3 95 96 26
3 95 26 29
3 90 28 27
3 90 27 87
3 90 95 29
3 90 93 95
3 90 29 30
3 90 31 28
3 90 30 32
3 90 32 31
3 33 36 91
3 33 34 36
3 33 91 35
3 33 35 34
3 143 57 36
3 143 148 57
3 143 36 144
3 39 124 38
3 39 65 124
3 39 146 65
3 37 148 146
3 37 38 148
3 37 146 39
3 37 39 38
3 167 98 166
3 139 140 40
3 139 125 85
3 139 40 125
3 41 194 186
3 41 174 194
3 41 186 174
3 104 101 114
3 104 114 50
3 104 50 103
3 42 81 100
3 42 43 81
3 42 105 43
3 42 104 105
3 42 100 104
3 156 43 157
3 156 80 43
3 156 150 80
3 44 51 45
3 44 45 50
3 44 46 51
3 44 50 46
3 48 49 47
3 48 123 112
3 48 47 123
3 108 109 103
3 108 48 112
3 108 49 48
3 108 50 49
3 108 103 50
3 116 117 51
3 116 51 114
3 52 106 109
3 52 109 73
3 52 73 106
3 53 54 128
3 53 111 54
3 53 128 131
3 53 131 111
3 55 57 56
3 55 56 58
3 55 59 57
3 55 58 60
3 55 60 94
3 55 94 59
3 61 131 130
3 61 130 193
3 61 74 131
3 61 193 74
3 62 191 64
3 62 63 191
3 62 64 63
3 163 118 64
3 163 64 164
3 121 65 173
3 121 124 65
3 172 173 65
3 172 65 146
3 129 127 118
3 179 174 133
3 66 71 69
3 66 182 71
3 178 182 66
3 137 69 135
3 137 136 178
3 137 66 69
3 137 178 66
3 67 68 69
3 67 70 68
3 67 69 71
3 67 71 70
3 72 73 74
3 72 75 73
3 72 74 76
3 72 76 75
3 77 78 79
3 77 80 78
3 77 79 81
3 77 81 80
3 82 183 84
3 82 84 188
3 82 188 183
3 83 84 180
3 83 188 84
3 83 180 188
3 197 85 199
3 197 139 85
3 86 87 88
3 86 88 89
3 86 90 87
3 86 93 90
3 86 91 93
3 86 89 91
3 92 93 94
3 92 95 93
3 92 94 96
3 92 96 95
3 97 144 98
3 97 167 144
3 97 98 167
3 145 144 167
3 99 100 101
3 99 101 104
3 99 104 100
3 102 103 109
3 102 104 103
3 102 105 104
3 102 109 106
3 102 157 105
3 102 106 157
3 152 154 153
3 158 150 156
3 107 109 108
3 107 110 109
3 107 112 111
3 107 108 112
3 107 131 110
3 107 111 131
3 113 114 115
3 113 116 114
3 113 115 117
3 113 117 116
3 162 118 163
3 162 193 130
3 162 129 118
3 162 130 129
3 119 173 120
3 119 121 173
3 119 120 122
3 119 122 123
3 119 123 124
3 119 124 121
3 170 166 125
3 170 125 171
3 126 128 127
3 126 127 129
3 126 129 130
3 126 131 128
3 126 130 131
3 132 188 180
3 132 180 179
3 132 133 188
3 132 179 133
3 177 136 175
3 177 178 136
3 134 135 136
3 134 136 137
3 134 137 135
3 196 183 188
3 187 185 197
3 187 196 188
3 187 197 196
3 141 185 142
3 141 197 185
3 138 140 139
3 138 139 197
3 138 197 141
3 138 142 140
3 138 141 142
3 147 143 144
3 147 144 145
3 147 148 143
3 168 145 167
3 168 172 146
3 168 147 145
3 168 146 148
3 168 148 147
3 149 150 158
3 149 158 153
3 149 151 150
3 149 153 151
3 159 152 153
3 159 153 158
3 159 161 154
3 159 154 152
3 155 156 157
3 155 158 156
3 155 159 158
3 155 157 160
3 155 160 161
3 155 161 159
3 192 162 163
3 192 193 162
3 192 164 191
3 192 163 164
3 165 166 170
3 165 170 172
3 165 167 166
3 165 168 167
3 165 172 168
3 169 170 171
3 169 172 170
3 169 171 173
3 169 173 172
3 181 175 174
3 181 177 175
3 181 174 179
3 176 178 177
3 176 179 180
3 176 181 179
3 176 177 181
3 176 180 182
3 176 182 178
3 198 199 183
3 198 183 196
3 184 186 185
3 184 185 187
3 184 188 186
3 184 187 188
3 189 191 190
3 189 192 191
3 189 193 192
3 189 190 194
3 189 194 193
3 195 196 197
3 195 198 196
3 195 197 199
3 195 199 198
