ply
format ascii 1.0
element vertex 200
property float x
property float y
property float z
element face 396
property list uchar int vertex_indices
end_header
-0.771785 -0.337004 -0.124084
-0.67503 0.481316 0.146718
-0.836379 -0.0393245 0.0392071
-0.818363 -0.120064 0.190453
0.262452 0.0612988 0.771306
0.607805 0.19336 0.420924
0.49107 0.0954118 0.578621
0.197023 0.0302228 0.8347
0.292594 0.349845 0.600543
-0.779068 0.334884 0.0667781
-0.661543 0.510868 -0.224718
-0.773727 0.347438 -0.00231767
-0.779904 0.116071 0.294402
-0.582537 0.217113 0.53214
-0.554175 0.230457 0.542256
-0.293023 -0.651545 0.548308
-0.531658 -0.518043 -0.412461
-0.513482 -0.672756 0.389437
-0.0131677 0.370199 -0.802269
-0.0450309 -0.289762 -0.757021
-0.189342 0.117793 -0.843186
0.363192 -0.536731 -0.612735
0.397576 -0.394146 -0.697463
-0.180982 -0.581707 -0.567264
-0.0353257 -0.372771 -0.731018
-0.475073 0.0935278 -0.77884
-0.695047 -0.537309 0.2845
-0.79521 -0.315345 0.203882
-0.692376 -0.568656 0.244779
-0.631654 -0.62261 0.282273
0.394904 0.411887 0.49056
0.331325 0.334943 0.587816
0.504516 0.271884 0.478455
0.0787122 -0.622507 0.613881
0.169614 -0.557478 0.654933
0.206196 -0.263388 0.806095
0.0072058 -0.00349156 0.915579
-0.0706088 -0.0868582 0.927738
0.0726172 -0.441462 0.753923
0.0234603 -0.453895 0.755374
0.0435482 -0.545436 0.699156
0.252325 0.62329 0.433193
0.280649 0.586919 0.462169
0.752643 0.177093 0.239789
0.623666 0.268768 0.354467
0.405596 0.713956 -0.0899685
0.0533962 0.851736 -0.280173
0.160499 0.744284 0.319433
0.101882 0.766058 0.305397
-0.0261224 0.576901 -0.67269
-0.0767808 0.6354 -0.637297
-0.0155277 0.390198 -0.796128
0.0760722 0.619238 -0.620028
0.134473 0.432807 -0.747135
-0.157903 0.893414 0.0404721
-0.585825 0.637475 -0.17518
-0.190109 0.837947 0.21126
-0.53053 0.673302 0.197564
-0.629931 0.0124606 0.593519
-0.668794 0.0305298 0.554435
-0.655979 -0.245582 -0.421756
-0.594235 0.0407718 -0.633512
-0.665144 -0.272648 -0.391088
0.28448 0.207873 -0.767087
0.389004 0.146223 -0.728998
0.719601 -0.00324026 -0.527129
0.417662 0.31226 -0.648743
0.718406 -0.361632 -0.471847
0.614472 -0.393114 -0.592041
0.774415 -0.14279 -0.455546
0.626048 -0.189717 -0.632903
0.713465 -0.131414 0.366318
0.926817 -0.0996713 -0.0139292
0.790819 -0.271035 0.252506
0.789622 0.11922 0.23021
0.83881 -0.274074 -0.29199
0.48104 -0.25495 0.612402
0.39374 -0.130683 0.724576
0.288432 -0.193714 0.781318
0.247822 -0.341023 0.767946
0.788154 -0.378058 0.1564
0.682445 -0.567177 -0.0102206
-0.540955 -0.350406 -0.521402
-0.593848 -0.261725 -0.516485
-0.521135 -0.51967 -0.425906
-0.517155 -0.342468 -0.546647
-0.432563 -0.732471 -0.177129
-0.480124 -0.712335 -0.129804
-0.505021 -0.710912 0.0449351
-0.280406 -0.648784 -0.435248
-0.699579 -0.457925 -0.166248
-0.741801 -0.436887 -0.110809
-0.594311 -0.500848 -0.319954
0.161454 0.837367 0.0586641
0.0724412 0.855711 0.113858
0.390181 0.725005 -0.0670747
0.294487 0.508458 -0.596723
0.257109 0.526199 -0.611707
-0.339281 0.753611 -0.356192
-0.189445 0.73712 -0.502721
-0.0682477 0.855873 -0.306687
-0.0706088 0.913142 -0.0722619
-0.412975 0.792441 0.0588571
-0.514321 0.643867 -0.399299
-0.411817 0.648376 -0.510231
-0.227725 0.708097 -0.541101
-0.355013 0.702946 -0.460773
-0.202985 -0.294902 0.863814
0.187917 -0.644973 -0.584842
0.631569 -0.527752 -0.441046
0.560137 0.324758 -0.533942
0.255978 0.67864 -0.493627
0.362191 0.702618 -0.345791
0.429732 -0.152805 -0.741473
0.292935 0.0785188 -0.807543
0.428796 -0.206815 -0.736254
0.459208 -0.00179786 -0.74226
0.454961 -0.463678 0.531334
0.710658 -0.387923 0.324069
0.41751 -0.319382 0.663443
-0.0794432 -0.843085 0.172228
-0.0497429 -0.838789 0.271821
0.468803 -0.691072 -0.0171231
0.666163 -0.594063 -0.0265353
0.480895 -0.680286 -0.108036
0.420341 -0.565867 0.474498
-0.0085599 -0.764248 0.467892
0.0240437 -0.726985 0.50927
0.267865 -0.541168 0.630113
-0.766591 0.287292 -0.405588
-0.694693 0.353091 -0.501704
-0.642449 0.483462 -0.442028
-0.463917 -0.653487 -0.304195
-0.512001 -0.67693 -0.192661
-0.507905 -0.573644 -0.372074
-0.433512 -0.671206 -0.310114
-0.409233 -0.607553 -0.428306
0.556266 0.477873 0.163434
0.328751 0.731426 0.151634
0.769904 0.21286 0.161053
0.525174 0.38298 0.367863
0.351809 0.57881 0.376713
0.278449 0.697125 0.310928
0.774353 0.111111 -0.376777
0.780666 0.0691598 -0.39349
0.728184 0.104033 -0.481834
0.809912 0.233634 -0.0137162
0.929391 -0.0868582 -0.0722619
0.584189 0.499614 -0.267549
0.542287 0.591371 -0.0999941
0.490539 0.57556 -0.348873
0.742565 0.359959 -0.0532551
0.622155 0.418966 -0.300265
0.547314 0.42892 -0.456679
0.204275 0.816733 -0.220002
0.31038 0.73832 -0.321285
0.233225 0.81358 -0.167469
0.233047 0.772301 -0.339032
0.125487 0.86708 -0.152658
-0.279708 0.513118 0.513475
-0.348708 0.379523 0.569608
-0.551907 0.651403 0.220792
-0.100125 0.440655 0.624009
-0.183064 0.729021 0.402229
0.0818122 0.624191 0.491415
-0.124245 0.399019 0.651384
0.0309092 0.0693198 0.902462
-0.554364 -0.17654 0.679595
-0.389514 -0.114258 0.813083
-0.425147 -0.0236794 0.79295
-0.405056 -0.271458 0.773734
-0.443413 -0.45493 0.66429
-0.461144 -0.51267 0.613023
-0.564792 -0.55529 0.487405
-0.0665074 -0.808725 -0.15433
-0.398167 -0.733663 -0.221941
0.429321 -0.640447 0.374165
0.0862152 -0.828878 0.218907
0.625625 -0.580445 0.207089
0.393671 -0.644995 0.410466
0.697942 -0.490092 0.237388
0.437123 -0.543819 0.483304
-0.534168 0.363255 -0.648972
-0.645764 0.322896 -0.582772
-0.572913 0.242117 -0.68372
-0.426759 0.473173 -0.648017
-0.36032 0.435871 -0.706318
-0.494587 0.624168 -0.46729
-0.632449 -0.282963 0.587873
-0.741209 -0.252737 0.477155
-0.594515 -0.475526 0.521076
-0.512543 -0.400598 0.653746
-0.638787 -0.19356 0.607692
-0.720903 -0.187207 0.520118
0.153239 -0.782199 -0.304649
0.0083989 -0.786213 -0.33975
0.104105 -0.846761 0.000775225
0.206582 -0.741394 -0.375884
0.359209 -0.730688 -0.257078
0.0813652 -0.700108 -0.549589
3 74 6 71
3 74 43 44
3 77 6 7
3 77 71 6
3 94 101 54
3 186 51 20
3 50 105 99
3 50 186 105
3 50 51 186
3 50 100 111
3 50 99 100
3 129 2 9
3 129 0 2
3 15 40 107
3 15 126 40
3 15 17 126
3 62 0 129
3 91 62 92
3 91 0 62
3 29 17 173
3 121 17 120
3 121 126 17
3 109 21 68
3 125 181 128
3 199 23 24
3 22 68 21
3 22 115 68
3 25 186 20
3 27 91 28
3 27 0 91
3 27 189 3
3 27 2 0
3 27 3 2
3 1 161 55
3 1 55 9
3 12 1 9
3 12 9 2
3 12 2 3
3 12 189 193
3 12 3 189
3 12 161 1
3 8 31 42
3 8 7 31
3 4 7 6
3 4 6 31
3 4 31 7
3 32 31 6
3 39 107 40
3 5 6 74
3 5 74 44
3 5 32 6
3 5 44 32
3 78 7 36
3 78 77 7
3 79 37 107
3 46 111 100
3 46 100 101
3 46 101 158
3 140 141 42
3 56 94 54
3 41 164 42
3 41 47 164
3 166 42 164
3 166 36 7
3 166 8 42
3 166 7 8
3 166 37 36
3 166 169 37
3 185 105 186
3 57 55 161
3 57 161 56
3 103 131 55
3 11 9 55
3 11 129 9
3 10 55 131
3 10 131 129
3 10 11 55
3 10 129 11
3 59 169 13
3 59 12 193
3 59 13 161
3 59 161 12
3 168 107 37
3 168 37 169
3 14 161 13
3 14 13 169
3 160 161 14
3 160 14 169
3 172 15 107
3 172 173 17
3 172 17 15
3 16 92 62
3 16 134 92
3 16 84 134
3 83 61 25
3 83 84 16
3 83 16 62
3 88 17 29
3 88 120 17
3 88 29 28
3 144 147 69
3 70 68 115
3 149 112 45
3 149 150 112
3 75 69 147
3 75 123 109
3 76 71 77
3 18 20 51
3 18 114 20
3 18 51 53
3 18 53 114
3 19 114 115
3 19 115 22
3 19 22 24
3 19 20 114
3 19 25 20
3 19 24 25
3 108 21 109
3 108 22 21
3 108 199 24
3 108 24 22
3 136 134 84
3 136 23 199
3 85 23 136
3 85 136 84
3 85 24 23
3 85 25 24
3 85 83 25
3 184 61 129
3 184 25 61
3 184 186 25
3 133 28 91
3 133 92 134
3 133 88 28
3 133 87 88
3 26 27 28
3 26 189 27
3 26 190 189
3 26 173 190
3 26 29 173
3 26 28 29
3 30 42 31
3 30 31 32
3 30 140 42
3 30 32 44
3 30 44 140
3 34 40 33
3 34 79 40
3 34 128 79
3 127 40 126
3 127 33 40
3 127 128 34
3 127 34 33
3 35 36 37
3 35 78 36
3 35 37 79
3 35 79 78
3 38 39 40
3 38 40 79
3 38 107 39
3 38 79 107
3 142 94 47
3 142 47 41
3 142 41 42
3 142 42 141
3 95 149 45
3 95 138 149
3 139 43 74
3 139 74 146
3 139 44 43
3 139 140 44
3 156 45 112
3 156 95 45
3 157 46 158
3 157 112 111
3 157 111 46
3 48 164 47
3 48 47 94
3 48 94 56
3 163 164 48
3 163 48 56
3 163 56 161
3 52 50 111
3 52 111 53
3 49 51 50
3 49 53 51
3 49 50 52
3 49 52 53
3 97 53 111
3 97 66 53
3 97 110 66
3 63 53 66
3 63 114 53
3 63 66 64
3 106 99 105
3 187 131 103
3 187 103 106
3 102 54 101
3 102 103 55
3 102 56 54
3 102 57 56
3 102 55 57
3 58 169 59
3 192 169 58
3 192 59 193
3 192 58 59
3 171 172 107
3 60 61 83
3 60 83 62
3 60 129 61
3 60 62 129
3 198 109 123
3 198 123 124
3 65 69 70
3 65 145 144
3 65 144 69
3 116 70 115
3 116 114 63
3 116 63 64
3 116 65 70
3 116 64 66
3 116 66 110
3 116 110 145
3 116 145 65
3 67 109 68
3 67 75 109
3 67 69 75
3 67 68 70
3 67 70 69
3 73 118 80
3 73 74 71
3 73 71 76
3 73 76 118
3 72 75 147
3 72 80 75
3 72 73 80
3 72 74 73
3 72 147 146
3 72 146 74
3 81 123 75
3 81 75 80
3 119 76 77
3 119 77 78
3 119 78 79
3 119 79 128
3 119 118 76
3 180 80 118
3 180 118 181
3 180 178 123
3 180 123 81
3 180 81 80
3 177 126 121
3 89 199 175
3 89 136 199
3 82 84 83
3 82 85 84
3 82 83 85
3 130 129 131
3 86 87 133
3 86 133 175
3 86 120 88
3 86 88 87
3 86 174 120
3 86 175 174
3 135 175 133
3 135 89 175
3 135 136 89
3 90 91 92
3 90 92 133
3 90 133 91
3 93 94 142
3 93 142 138
3 93 101 94
3 93 158 101
3 93 138 95
3 93 156 158
3 93 95 156
3 151 149 138
3 151 139 146
3 155 156 112
3 155 112 157
3 165 169 166
3 165 160 169
3 96 111 110
3 96 97 111
3 96 110 97
3 98 100 99
3 98 99 106
3 98 101 100
3 98 102 101
3 98 106 103
3 98 103 102
3 104 105 185
3 104 185 187
3 104 106 105
3 104 187 106
3 170 107 168
3 170 171 107
3 197 108 109
3 197 109 198
3 197 199 108
3 153 110 111
3 153 145 110
3 153 111 112
3 153 112 150
3 113 115 114
3 113 116 115
3 113 114 116
3 117 181 118
3 117 118 119
3 117 128 181
3 117 119 128
3 196 120 174
3 196 121 120
3 196 177 121
3 122 123 178
3 122 178 177
3 122 177 196
3 122 124 123
3 122 198 124
3 122 196 198
3 179 181 125
3 179 126 177
3 179 127 126
3 179 125 128
3 179 128 127
3 183 184 129
3 183 129 130
3 183 131 187
3 183 130 131
3 132 133 134
3 132 135 133
3 132 134 136
3 132 136 135
3 137 151 138
3 137 139 151
3 137 140 139
3 137 141 140
3 137 142 141
3 137 138 142
3 143 152 151
3 143 144 145
3 143 151 146
3 143 145 153
3 143 153 152
3 143 146 147
3 143 147 144
3 148 150 149
3 148 149 151
3 148 151 152
3 148 153 150
3 148 152 153
3 154 156 155
3 154 155 157
3 154 158 156
3 154 157 158
3 159 160 165
3 159 165 163
3 159 161 160
3 159 163 161
3 162 164 163
3 162 163 165
3 162 166 164
3 162 165 166
3 167 170 168
3 167 192 170
3 167 168 169
3 167 169 192
3 191 171 170
3 191 170 192
3 191 172 171
3 191 190 173
3 191 173 172
3 195 196 174
3 195 174 175
3 195 175 199
3 176 177 178
3 176 179 177
3 176 178 180
3 176 180 181
3 176 181 179
3 182 184 183
3 182 185 186
3 182 186 184
3 182 187 185
3 182 183 187
3 188 189 190
3 188 190 191
3 188 191 192
3 188 193 189
3 188 192 193
3 194 196 195
3 194 197 198
3 194 198 196
3 194 199 197
3 194 195 199
