ply
format ascii 1.0
element vertex 200
property float x
property float y
property float z
element face 396
property list uchar int vertex_indices
end_header
-0.450854 0.177716 0.737072
-0.151301 0.307796 -0.873951
0.354163 0.491621 0.529763
-0.806901 0.212747 0.339241
-0.239573 0.383126 0.653219
-0.569431 0.564645 -0.404984
-0.573291 0.504874 -0.495748
-0.306488 0.720865 -0.544568
-0.348902 -0.176336 -0.700638
-0.486373 0.249889 -0.701652
-0.382894 0.193182 -0.798897
-0.528154 0.497077 -0.562809
-0.6909 0.54287 -0.0259858
-0.826103 0.236842 0.189174
-0.615777 0.563469 -0.318734
-0.723722 0.217072 0.478327
-0.600181 0.227383 0.605732
0.399237 0.189284 -0.795735
0.670944 0.50617 -0.142477
0.630391 0.556423 -0.147549
0.147246 0.319023 0.734358
0.326641 0.431135 0.59426
0.10591 0.45127 0.664585
-0.217663 0.14052 0.85098
0.0374054 0.201026 0.848027
0.34763 0.241215 0.701799
0.946294 0.0255388 -0.0731596
0.916787 -0.050956 -0.26699
0.947035 -0.007736 -0.0983195
0.839341 -0.204114 -0.399688
0.235117 0.109223 0.794459
0.51923 0.190651 0.573372
0.436732 0.176663 0.646411
0.354114 0.218628 0.70442
0.482305 0.657975 0.167118
0.584184 0.534233 0.17809
0.522643 0.648306 0.0747425
0.529958 0.547914 0.262157
0.283673 0.753563 0.333926
-0.683336 0.557529 0.00287552
-0.47574 0.715565 -0.278378
-0.385766 0.740558 0.247024
-0.468409 0.575923 0.388254
-0.048117 0.964101 0.0775985
0.0368916 0.886286 0.264641
0.0658641 0.860566 0.312929
-0.0266399 0.894816 0.256284
-0.631408 -0.304524 -0.498883
-0.710055 -0.00318659 -0.447128
-0.697856 0.127484 -0.463752
0.0108399 0.878844 -0.464915
-0.0586781 0.955527 -0.28894
0.0259574 0.982489 -0.0316368
0.0257986 0.967261 0.0652655
0.340071 0.79703 0.101822
0.169502 0.933205 -0.233938
-0.0529649 0.992264 -0.0983195
0.0488971 0.958073 -0.252037
0.19275 0.91087 -0.308875
0.410032 0.377586 -0.710241
0.636633 0.209908 -0.601814
-0.524224 0.131091 0.716036
-0.687849 0.178601 0.533471
-0.281106 0.0667875 0.841417
-0.243473 0.146627 0.845807
0.0419433 0.582556 -0.747568
0.319781 0.359972 -0.768577
0.382634 0.552121 -0.599377
-0.0166873 0.718191 -0.671675
-0.0189192 0.493077 -0.814274
0.659075 -0.0245399 -0.642674
0.0211405 0.0346822 -0.853389
-0.0749541 -0.641084 -0.537675
0.490221 -0.237138 0.552274
0.538225 -0.329352 0.477611
0.608365 -0.379774 0.333603
-0.625174 0.489743 0.302809
-0.619672 0.56776 0.176861
-0.486378 0.687436 0.229336
-0.782273 0.25652 0.365813
-0.515398 0.387407 0.572484
-0.498095 0.734676 0.0750565
-0.443775 0.773738 0.0421585
-0.46795 0.713155 0.202214
-0.526765 0.719672 0.0640515
-0.815654 -0.161273 -0.170941
-0.838736 0.0554837 0.104548
-0.715015 0.393245 -0.33307
-0.25055 -0.548964 -0.571308
-0.793823 -0.3599 -0.153043
-0.772504 -0.225387 -0.330251
-0.69123 -0.378269 -0.351376
-0.628155 -0.425259 -0.412218
0.382708 0.702611 -0.410595
0.427054 0.54987 -0.57488
0.400467 0.4183 -0.690437
0.450652 0.591635 -0.494362
0.809454 0.118372 -0.480722
-0.417292 0.094014 0.783069
-0.826182 -0.277426 0.109576
-0.783218 0.0391128 0.411414
0.559974 -0.150283 -0.741217
0.678096 -0.288465 -0.59227
0.643812 -0.222231 -0.643934
0.449626 -0.0819872 -0.789949
0.555387 0.000443187 -0.746611
0.60806 -0.0651093 -0.696638
-0.0220536 -0.379548 -0.784236
0.161673 -0.283503 -0.826881
0.331089 -0.46565 -0.728709
0.100619 -0.555167 -0.668559
-0.0570775 -0.383562 -0.770767
-0.0971381 -0.191879 -0.835294
0.869665 -0.305662 -0.143281
0.872581 -0.301372 -0.114666
0.897667 -0.209765 -0.182524
0.791011 -0.0834501 0.287018
0.712953 -0.196161 0.371093
0.592951 0.0761996 0.512616
0.884546 -0.105632 0.129149
0.904262 0.189716 0.00891252
0.277663 -0.640424 0.322772
0.277607 -0.648952 0.306699
-0.656058 -0.496737 -0.263539
-0.748341 -0.448842 -0.136495
-0.764723 -0.415788 -0.172321
-0.733318 -0.469625 -0.159962
-0.792309 -0.369612 0.111909
-0.821183 -0.338408 0.00149842
-0.340744 -0.724115 -0.0457464
0.0676091 -0.722012 0.187559
0.136095 -0.759997 0.0287545
0.168981 -0.664935 0.342802
-0.144761 -0.69214 0.302047
-0.289345 -0.717897 0.18685
0.665529 0.436149 -0.419639
0.71808 0.344995 -0.425241
0.598247 0.40913 -0.544955
0.535144 0.482577 -0.542903
0.558436 0.566049 -0.391801
0.697079 0.459149 -0.241137
0.745457 0.378859 -0.243277
0.900015 0.110717 -0.276519
-0.615311 -0.118354 0.613391
-0.550843 -0.0176448 0.699521
0.835568 -0.260453 -0.352785
0.660636 -0.449153 -0.476953
0.0329268 -0.689917 -0.516092
0.311994 -0.675055 -0.48106
-0.634381 -0.432185 0.428519
-0.729533 -0.211788 0.434096
-0.737216 -0.332137 0.291959
-0.715023 -0.182707 0.490999
-0.677296 -0.20568 0.525029
-0.584799 -0.488729 0.437206
-0.57153 -0.467976 0.467353
-0.500567 -0.178129 0.720652
-0.667169 -0.565225 0.0313705
-0.678031 -0.551232 -0.109953
-0.753632 -0.445841 -0.0532042
-0.725263 -0.465441 0.178703
-0.625217 -0.610772 -0.0731871
-0.630704 -0.550052 0.26968
-0.545278 -0.661162 0.0150235
-0.493294 -0.563236 0.447754
-0.529536 -0.531049 0.450677
-0.469128 -0.482028 0.548213
-0.497907 -0.60838 0.389831
-0.190514 -0.639121 0.439635
-0.426484 -0.133774 0.769211
-0.226885 -0.0519382 0.869423
0.458806 -0.634158 -0.445962
0.642755 -0.510994 -0.438025
0.348759 -0.621885 -0.582323
0.480757 -0.526564 -0.591901
0.495959 -0.648139 0.146608
0.636266 -0.53542 0.123292
0.525106 -0.414726 0.41133
0.378057 -0.567563 0.365311
0.578352 -0.62559 -0.222413
0.820585 -0.404129 -0.193685
0.65738 -0.53966 -0.362887
0.638353 -0.550389 0.0771145
0.557891 -0.613074 0.130963
0.343464 -0.756373 -0.242863
0.324756 -0.739326 -0.341179
0.367679 -0.716316 -0.377975
0.47326 -0.709189 -0.197704
0.140477 -0.810919 -0.209485
0.295446 -0.761772 0.0203675
-0.0529649 -0.007736 0.901681
0.417517 -0.0369506 0.679863
0.428416 -0.254225 0.596501
0.253858 -0.420373 0.623269
0.246982 -0.514119 0.555123
-0.092231 -0.581414 0.530931
-0.338009 -0.333979 0.739822
-0.229395 -0.136207 0.852617
-0.345129 -0.335115 0.73802
-0.0210319 -0.296667 0.809667
3 31 2 25
3 31 118 120
3 35 120 36
3 53 38 54
3 53 56 43
3 21 25 2
3 21 2 38
3 21 38 22
3 45 22 38
3 45 38 53
3 99 3 86
3 99 100 3
3 7 1 11
3 6 11 49
3 6 49 87
3 6 7 11
3 14 39 40
3 14 6 87
3 19 139 58
3 10 1 112
3 10 11 1
3 71 112 1
3 69 7 68
3 69 1 7
3 0 64 80
3 0 98 64
3 61 98 0
3 61 80 16
3 61 0 80
3 13 87 86
3 13 86 3
3 15 3 100
3 15 16 80
3 17 1 69
3 17 104 71
3 17 71 1
3 105 104 17
3 140 139 19
3 24 30 25
3 24 190 30
3 24 22 64
3 29 102 97
3 29 97 27
3 147 129 161
3 119 26 120
3 119 28 26
3 119 114 28
3 37 31 120
3 37 120 35
3 37 2 31
3 37 38 2
3 79 39 13
3 79 13 3
3 79 3 15
3 79 15 80
3 46 80 45
3 46 53 43
3 63 64 98
3 4 22 45
3 4 64 22
3 4 45 80
3 4 80 64
3 50 68 7
3 50 58 68
3 51 40 56
3 51 7 40
3 51 50 7
3 5 14 40
3 5 6 14
3 5 40 7
3 5 7 6
3 55 54 36
3 55 36 19
3 55 19 58
3 94 67 68
3 94 68 58
3 94 95 67
3 8 112 47
3 8 10 112
3 8 47 10
3 9 47 48
3 9 10 47
3 9 48 49
3 9 49 11
3 9 11 10
3 12 13 39
3 12 87 13
3 12 39 14
3 12 14 87
3 62 15 100
3 62 61 16
3 62 16 15
3 66 59 17
3 66 17 69
3 66 95 59
3 60 17 59
3 60 105 17
3 60 97 105
3 141 140 120
3 18 120 140
3 18 140 19
3 18 36 120
3 18 19 36
3 20 25 21
3 20 24 25
3 20 21 22
3 20 22 24
3 23 64 190
3 23 190 24
3 23 24 64
3 33 31 25
3 33 32 31
3 33 25 30
3 142 27 97
3 142 120 26
3 142 26 28
3 142 28 27
3 142 141 120
3 111 47 112
3 88 92 47
3 88 47 111
3 146 174 102
3 146 102 29
3 146 29 145
3 109 102 174
3 115 27 28
3 115 28 114
3 115 145 29
3 115 29 27
3 191 30 190
3 191 118 31
3 191 31 32
3 191 33 30
3 191 32 33
3 188 129 147
3 34 35 36
3 34 37 35
3 34 38 37
3 34 36 54
3 34 54 38
3 77 39 79
3 82 56 40
3 82 43 56
3 82 83 43
3 84 78 83
3 84 39 77
3 84 77 78
3 84 40 39
3 84 82 40
3 42 78 80
3 42 80 46
3 41 83 78
3 41 78 42
3 41 42 46
3 41 43 83
3 41 46 43
3 44 45 53
3 44 53 46
3 44 46 45
3 128 99 86
3 128 127 99
3 91 47 92
3 90 48 47
3 90 47 91
3 90 49 48
3 90 87 49
3 57 58 50
3 57 50 51
3 57 55 58
3 57 51 56
3 52 53 54
3 52 54 55
3 52 56 53
3 52 57 56
3 52 55 57
3 93 58 139
3 93 94 58
3 137 59 95
3 137 60 59
3 137 97 60
3 144 98 61
3 144 61 62
3 144 62 100
3 170 63 98
3 170 190 64
3 170 64 63
3 155 166 156
3 65 95 66
3 65 68 67
3 65 67 95
3 65 69 68
3 65 66 69
3 103 97 102
3 70 105 97
3 70 106 105
3 70 97 103
3 70 103 106
3 72 147 161
3 72 161 88
3 108 112 71
3 108 71 104
3 110 147 72
3 110 88 111
3 110 72 88
3 173 109 174
3 173 110 109
3 173 148 147
3 173 147 110
3 113 115 114
3 193 194 74
3 193 74 192
3 117 74 75
3 117 118 191
3 73 192 74
3 73 191 192
3 73 74 117
3 73 117 191
3 177 75 74
3 177 74 194
3 177 194 178
3 176 117 75
3 176 75 177
3 176 114 119
3 176 119 117
3 76 78 77
3 76 77 79
3 76 80 78
3 76 79 80
3 81 83 82
3 81 84 83
3 81 82 84
3 85 89 128
3 85 90 89
3 85 128 86
3 85 86 87
3 85 87 90
3 123 126 92
3 123 92 88
3 123 88 161
3 125 128 89
3 125 89 90
3 125 90 91
3 125 91 92
3 125 92 126
3 163 161 129
3 167 154 162
3 167 162 163
3 131 188 189
3 96 93 139
3 96 94 93
3 138 95 94
3 138 137 95
3 138 94 96
3 138 96 139
3 136 97 137
3 136 142 97
3 169 170 98
3 169 98 144
3 169 144 156
3 150 100 99
3 150 99 127
3 150 127 151
3 152 144 100
3 152 100 150
3 101 102 109
3 101 103 102
3 101 108 104
3 101 109 108
3 101 104 105
3 101 105 106
3 101 106 103
3 107 108 109
3 107 110 111
3 107 109 110
3 107 111 112
3 107 112 108
3 180 113 114
3 180 114 176
3 180 145 115
3 180 115 113
3 116 118 117
3 116 117 119
3 116 120 118
3 116 119 120
3 132 189 122
3 132 122 121
3 132 194 195
3 132 121 194
3 175 121 122
3 175 122 189
3 175 178 194
3 175 194 121
3 186 148 173
3 158 123 161
3 158 126 123
3 158 159 126
3 124 128 125
3 124 125 126
3 124 159 128
3 124 126 159
3 160 151 127
3 160 127 128
3 160 128 159
3 165 154 167
3 165 166 155
3 165 155 154
3 168 195 166
3 168 132 195
3 168 133 132
3 134 163 129
3 134 167 163
3 134 133 168
3 134 168 167
3 134 129 188
3 134 188 131
3 130 131 189
3 130 189 132
3 130 132 133
3 130 133 134
3 130 134 131
3 135 136 137
3 135 138 139
3 135 137 138
3 135 139 140
3 135 140 141
3 135 141 142
3 135 142 136
3 198 166 195
3 198 156 166
3 198 169 156
3 143 156 144
3 143 152 156
3 143 144 152
3 153 156 152
3 182 180 176
3 172 180 181
3 172 145 180
3 172 146 145
3 172 174 146
3 185 188 147
3 185 147 148
3 185 148 186
3 187 186 181
3 187 175 189
3 149 150 151
3 149 151 160
3 149 152 150
3 149 153 152
3 149 162 154
3 149 160 162
3 149 154 155
3 149 155 156
3 149 156 153
3 157 159 158
3 157 160 159
3 157 158 161
3 157 162 160
3 157 161 163
3 157 163 162
3 164 166 165
3 164 165 167
3 164 168 166
3 164 167 168
3 197 170 169
3 197 169 198
3 197 190 170
3 171 181 186
3 171 172 181
3 171 186 173
3 171 173 174
3 171 174 172
3 183 175 187
3 183 182 176
3 183 176 177
3 183 177 178
3 183 178 175
3 179 181 180
3 179 187 181
3 179 180 182
3 179 182 183
3 179 183 187
3 184 185 186
3 184 186 187
3 184 188 185
3 184 189 188
3 184 187 189
3 199 190 197
3 199 191 190
3 199 192 191
3 199 193 192
3 199 194 193
3 199 195 194
3 199 198 195
3 196 197 198
3 196 198 199
3 196 199 197
