ply
format ascii 1.0
element vertex 200
property float x
property float y
property float z
element face 396
property list uchar int vertex_indices
end_header
-0.141967 0.777978 0.243282
-0.274972 0.699463 0.354595
0.328244 0.288279 0.645889
-0.389204 -0.0321677 0.860792
-0.242559 -0.544998 0.805296
0.295195 0.706629 0.147403
-0.0911506 0.859196 -0.0269
-0.0962633 0.858969 0.00776026
-0.111159 0.859966 -0.0107034
-0.642352 0.126022 -0.549003
-0.71869 0.104067 -0.471538
0.729422 -0.232463 -0.441358
0.686549 -0.315291 -0.466599
0.768545 -0.179522 -0.373378
-0.479831 0.669866 -0.253182
-0.336403 0.709223 -0.288157
-0.677435 0.523565 -0.140949
-0.192434 0.844177 -0.101248
-0.522889 0.602817 0.242392
-0.393192 0.760734 -0.0209121
-0.637406 0.575592 -0.0358141
-0.0917635 0.331824 0.768623
-0.138162 0.696349 0.404345
0.0411584 0.412815 0.702754
-0.10324 0.31978 0.774606
0.0924354 0.248054 0.817199
-0.00590078 0.0609403 0.923663
-0.51496 0.586048 0.298063
-0.258151 0.769377 0.226585
-0.302844 0.660241 0.41453
-0.859644 -0.128628 0.217442
-0.0911506 -0.140804 0.9731
0.841331 0.108634 -0.0682073
-0.170186 0.824468 -0.227085
0.106377 0.81755 0.0212056
-0.0994456 0.848567 -0.13387
0.523911 0.321111 -0.483142
0.513564 0.255929 -0.562068
0.662031 0.374656 0.114757
0.590986 0.212192 0.388054
-0.72904 0.225869 -0.388036
-0.675136 0.178934 -0.507099
-0.862299 0.0733263 0.0285298
-0.784566 0.0876693 -0.370208
-0.882699 -0.0241427 0.146125
-0.571241 -0.0556164 -0.573773
0.604956 0.0714003 -0.532815
-0.459061 0.353154 -0.61408
-0.459096 0.499698 -0.48933
-0.563649 0.420965 -0.479817
-0.21714 0.523757 -0.579559
-0.116599 0.30069 -0.68847
-0.450142 0.294747 -0.660614
-0.237495 0.524027 -0.575395
-0.420785 0.22967 0.7092
-0.399422 0.251646 0.707633
-0.464549 0.00863328 0.821554
-0.497191 0.287236 0.625185
-0.387743 0.459924 0.574303
-0.548984 0.567682 0.292862
-0.509752 0.404364 0.516133
-0.780377 0.217222 0.327096
-0.626716 0.258946 0.520744
-0.79746 -0.129544 0.409766
-0.829644 0.0857553 0.310012
-0.431816 -0.676127 0.58757
-0.236617 -0.826243 0.149378
-0.433652 -0.776168 0.351542
-0.0575473 -0.328938 0.94277
0.706931 0.231685 -0.324989
0.827679 0.0915703 -0.173675
0.56559 0.251943 -0.504555
0.659555 0.301419 -0.342884
0.744627 0.277948 -0.153821
0.264963 0.333219 -0.661999
0.195297 0.305397 -0.694956
0.412784 0.274024 -0.620361
0.173762 0.160745 -0.767503
-0.085468 0.550636 -0.575682
0.0947814 0.539358 -0.550932
0.0647594 0.499485 -0.608821
0.337128 0.408201 -0.564201
0.427618 0.438628 -0.459346
0.19712 0.704355 -0.247546
-0.0420122 0.685362 -0.403876
0.0159814 0.54294 -0.572566
0.484299 0.424664 -0.423682
0.591467 0.466566 -0.0892611
0.592979 0.460663 0.000485059
0.569195 0.469185 -0.166513
0.542729 0.507652 0.099869
0.27167 0.721882 -0.158032
0.72169 0.317407 -0.101861
0.677928 0.375208 -0.168291
0.712268 0.319184 0.0429786
0.296627 0.560594 0.392476
0.329049 0.394176 0.548369
0.358477 -0.291763 -0.723407
0.439589 -0.197811 -0.690198
0.270077 -0.0689541 -0.764371
-0.570035 -0.72631 0.140871
-0.303545 -0.816094 0.0278163
0.536984 -0.0405227 -0.624503
0.292258 0.169205 -0.723449
0.538432 -0.165593 -0.641223
0.497467 0.150806 -0.612946
0.573558 0.0903463 -0.565103
0.775876 -0.0601449 -0.366283
-0.751953 0.378325 0.201887
-0.647979 0.37691 0.397697
-0.782013 0.268953 0.269179
-0.714516 0.416504 0.219581
-0.796636 0.243464 0.270304
-0.719195 0.455572 0.113928
-0.789915 0.359659 -0.170846
-0.51655 -0.230028 0.753395
-0.471776 -0.071374 0.828323
-0.730203 -0.47782 0.286761
-0.577282 -0.734278 0.273222
-0.794818 -0.303067 0.34037
-0.837586 -0.165598 0.324283
-0.0303211 -0.282006 0.949913
0.703605 0.0835123 0.310284
0.799906 0.214349 -0.0201233
0.909449 -0.123621 -0.0373862
0.546053 0.4407 0.201337
0.655361 0.381157 0.118842
0.443109 0.377857 0.43837
0.324018 0.541826 0.390448
0.373381 0.667913 0.119656
-0.00439178 -0.261999 -0.771549
-0.412737 0.0591663 -0.721329
-0.0251952 -0.0811067 -0.803976
-0.742746 -0.413487 -0.141344
-0.858899 -0.142435 0.073104
-0.744291 0.00575428 -0.460419
-0.854693 -0.187742 0.146464
-0.656001 -0.524214 -0.191874
-0.737276 -0.416473 -0.152966
-0.717419 -0.567074 0.0407604
-0.695569 -0.319399 0.554887
-0.613257 -0.583671 0.510023
-0.486083 -0.519355 0.685116
-0.737245 -0.323767 0.489958
-0.534954 -0.37265 0.697705
-0.67064 -0.187782 0.619714
-0.719082 -0.152844 0.570993
0.0246484 -0.872042 0.300192
0.0300924 -0.806393 0.442554
0.235835 -0.755843 0.45069
-0.170052 -0.655986 0.73935
0.292975 -0.080537 0.788884
0.263536 0.105424 0.795227
-0.46189 -0.477632 -0.499642
-0.405725 -0.286349 -0.627672
-0.489059 -0.486753 -0.469653
0.452567 -0.719548 0.106644
0.127393 -0.83487 0.375308
0.382314 -0.697432 0.356839
0.886701 -0.278953 0.0327775
0.777088 -0.410099 -0.233811
0.908849 -0.140804 -0.0269
0.515627 -0.708053 -0.164703
0.725758 -0.521754 0.0462408
0.517923 -0.690788 -0.00211174
0.306642 -0.49221 -0.671011
0.384543 -0.362327 -0.696148
0.103342 -0.332909 -0.779875
0.0852464 -0.553354 -0.674257
0.562921 -0.598548 -0.386086
-0.366055 -0.52685 -0.538274
-0.0763197 -0.520037 -0.697809
0.446892 -0.508186 0.50446
0.424175 -0.504468 0.529536
0.331242 -0.308279 0.717061
0.0989264 -0.590037 0.756182
0.753682 -0.232972 0.347085
0.399721 -0.280594 0.675979
0.464921 -0.42267 0.543749
0.857529 -0.280117 0.174355
0.544766 -0.531113 0.388797
0.855897 -0.164236 0.197984
0.632281 -0.0731938 0.496074
0.450453 -0.12166 0.668661
0.335896 -0.220751 0.758059
0.526178 -0.50696 -0.526086
0.566619 -0.391013 -0.577154
0.557542 -0.664524 -0.274381
0.51736 -0.616291 -0.435437
-0.0516896 -0.790414 -0.368977
-0.0959044 -0.761577 -0.416292
0.242591 -0.803701 -0.288828
-0.0388568 -0.847179 -0.201302
-0.433202 -0.772474 -0.102395
0.366304 -0.66548 -0.506941
0.276722 -0.714987 -0.472181
0.367976 -0.817079 -0.148591
0.425316 -0.645587 -0.48926
0.216416 -0.699033 -0.56295
0.430551 -0.597658 -0.544102
3 152 31 151
3 22 5 0
3 28 8 19
3 28 7 8
3 28 0 7
3 28 22 0
3 3 116 31
3 3 56 116
3 93 123 73
3 93 73 72
3 161 160 124
3 169 12 160
3 34 7 0
3 34 0 5
3 2 25 152
3 2 127 96
3 2 39 127
3 2 182 39
3 2 152 182
3 95 5 22
3 52 41 49
3 52 132 131
3 52 77 132
3 13 124 160
3 13 107 124
3 20 16 113
3 1 22 28
3 59 20 113
3 55 24 58
3 55 56 24
3 29 22 1
3 29 59 58
3 29 1 28
3 23 95 22
3 23 96 95
3 23 2 96
3 23 25 2
3 26 56 3
3 26 24 56
3 26 3 31
3 26 31 152
3 26 152 25
3 146 116 56
3 146 56 62
3 134 44 43
3 134 43 135
3 68 31 116
3 68 116 4
3 142 4 116
3 142 65 4
3 150 4 65
3 150 68 4
3 32 123 124
3 32 73 123
3 122 39 182
3 17 19 8
3 17 8 35
3 33 35 83
3 33 17 35
3 71 37 72
3 86 93 72
3 38 39 122
3 38 122 123
3 129 5 95
3 129 34 5
3 186 12 169
3 6 7 34
3 6 34 35
3 6 8 7
3 6 35 8
3 9 131 135
3 9 135 41
3 9 52 131
3 9 41 52
3 10 135 43
3 10 41 135
3 10 43 41
3 114 16 49
3 114 113 16
3 51 77 52
3 106 37 71
3 105 37 106
3 99 104 98
3 99 132 77
3 99 167 132
3 11 160 12
3 11 13 160
3 11 12 186
3 11 186 104
3 11 107 13
3 11 104 107
3 53 33 78
3 53 48 15
3 53 15 33
3 14 15 48
3 14 49 16
3 14 48 49
3 14 20 19
3 14 16 20
3 14 33 15
3 14 19 17
3 14 17 33
3 18 28 19
3 18 59 28
3 18 19 20
3 18 20 59
3 57 62 56
3 57 55 58
3 21 22 29
3 21 23 22
3 21 58 24
3 21 29 58
3 21 25 23
3 21 26 25
3 21 24 26
3 27 28 59
3 27 29 28
3 27 59 29
3 64 112 44
3 100 118 139
3 120 44 30
3 120 64 44
3 136 120 30
3 136 30 44
3 136 44 134
3 121 151 31
3 121 31 68
3 70 124 107
3 70 32 124
3 70 73 32
3 76 81 37
3 76 37 105
3 84 78 33
3 84 33 83
3 80 75 77
3 80 51 78
3 80 77 51
3 91 34 129
3 91 83 35
3 91 35 34
3 82 83 91
3 82 91 86
3 82 37 81
3 82 86 37
3 36 72 37
3 36 37 86
3 36 86 72
3 88 90 38
3 88 38 93
3 94 38 123
3 94 93 38
3 126 38 90
3 126 90 129
3 126 127 39
3 126 39 38
3 166 104 186
3 40 41 43
3 40 43 114
3 40 49 41
3 40 114 49
3 42 43 44
3 42 114 43
3 42 44 112
3 42 112 114
3 45 135 131
3 45 154 135
3 45 131 154
3 130 132 167
3 46 71 107
3 46 107 106
3 46 106 71
3 103 104 99
3 103 99 77
3 103 76 105
3 47 53 52
3 47 48 53
3 47 52 49
3 47 49 48
3 50 51 52
3 50 52 53
3 50 78 51
3 50 53 78
3 54 56 55
3 54 57 56
3 54 55 57
3 60 57 58
3 60 62 57
3 60 58 59
3 111 59 113
3 109 110 112
3 109 59 111
3 109 62 60
3 109 60 59
3 61 112 64
3 61 62 109
3 61 109 112
3 61 146 62
3 61 64 146
3 141 118 65
3 141 65 142
3 63 146 64
3 63 120 146
3 63 64 120
3 119 136 139
3 119 120 136
3 115 142 116
3 115 144 142
3 67 150 65
3 67 65 118
3 67 118 101
3 67 101 66
3 187 169 160
3 147 101 192
3 147 66 101
3 147 150 67
3 147 67 66
3 175 121 68
3 175 149 180
3 175 68 150
3 69 70 107
3 69 107 71
3 69 71 72
3 69 72 73
3 69 73 70
3 74 75 80
3 74 80 81
3 74 81 76
3 74 76 103
3 74 77 75
3 74 103 77
3 85 78 84
3 85 80 78
3 79 81 80
3 79 83 82
3 79 82 81
3 79 84 83
3 79 85 84
3 79 80 85
3 89 93 86
3 89 86 91
3 87 88 93
3 87 93 89
3 87 129 90
3 87 90 88
3 87 91 129
3 87 89 91
3 92 123 93
3 92 94 123
3 92 93 94
3 128 129 95
3 128 96 127
3 128 95 96
3 97 98 104
3 97 104 166
3 97 99 98
3 97 167 99
3 97 166 167
3 153 135 154
3 153 155 135
3 138 135 155
3 193 100 139
3 193 118 100
3 193 101 118
3 193 192 101
3 102 104 103
3 102 103 105
3 102 105 106
3 102 107 104
3 102 106 107
3 108 110 109
3 108 109 111
3 108 112 110
3 108 111 113
3 108 113 114
3 108 114 112
3 145 144 115
3 145 116 146
3 145 115 116
3 117 119 139
3 117 141 119
3 117 139 118
3 117 118 141
3 143 119 141
3 143 146 120
3 143 120 119
3 196 147 192
3 148 150 147
3 158 180 149
3 184 151 121
3 184 121 175
3 181 122 182
3 181 124 123
3 181 123 122
3 181 161 124
3 181 179 161
3 125 127 126
3 125 128 127
3 125 126 129
3 125 129 128
3 171 130 167
3 171 154 131
3 171 131 132
3 171 132 130
3 133 134 135
3 133 135 138
3 133 138 139
3 133 139 136
3 133 136 134
3 137 139 138
3 137 138 155
3 137 193 139
3 137 155 193
3 140 141 142
3 140 143 141
3 140 142 144
3 140 144 145
3 140 145 146
3 140 146 143
3 157 147 196
3 157 148 147
3 157 158 149
3 157 149 175
3 157 175 150
3 157 150 148
3 183 151 184
3 183 182 152
3 183 152 151
3 163 179 180
3 163 180 158
3 163 187 160
3 199 166 186
3 191 196 192
3 191 198 196
3 195 196 198
3 170 153 154
3 170 154 171
3 170 155 153
3 170 193 155
3 156 157 196
3 156 158 157
3 156 196 164
3 156 163 158
3 156 164 163
3 173 178 175
3 177 175 178
3 159 163 160
3 159 179 163
3 159 160 161
3 159 161 179
3 162 196 187
3 162 187 163
3 162 164 196
3 162 163 164
3 168 198 171
3 168 171 167
3 165 166 199
3 165 199 198
3 165 167 166
3 165 198 168
3 165 168 167
3 188 186 169
3 188 169 187
3 190 193 170
3 190 170 171
3 190 171 198
3 172 175 180
3 172 173 175
3 172 180 178
3 172 178 173
3 174 184 175
3 174 175 177
3 174 177 184
3 176 177 178
3 176 180 179
3 176 178 180
3 176 181 182
3 176 179 181
3 176 182 183
3 176 183 184
3 176 184 177
3 185 199 186
3 185 186 188
3 185 188 199
3 197 187 196
3 197 188 187
3 197 199 188
3 189 190 198
3 189 191 192
3 189 198 191
3 189 192 193
3 189 193 190
3 194 196 195
3 194 197 196
3 194 195 198
3 194 198 199
3 194 199 197
